<svg width="32" height="33" viewBox="0 0 32 33" fill="none" xmlns="http://www.w3.org/2000/svg">
<g clip-path="url(#clip0_1205_13269)">
<path d="M20.958 7.82267C20.1914 7.82267 19.4794 7.94 18.8207 8.17467C18.162 8.40933 17.562 8.64133 17.0207 8.872C16.4794 9.10133 16.01 9.216 15.6114 9.216C15.1927 9.216 14.7287 9.10667 14.218 8.88667C13.6753 8.65452 13.1262 8.43754 12.5714 8.236C11.9695 8.0186 11.3339 7.90936 10.694 7.91333C9.43803 7.91333 8.22736 8.25467 7.0647 8.94C5.89936 9.62267 4.9447 10.6333 4.19936 11.972C3.45403 13.3093 3.08203 14.9587 3.08203 16.92C3.08203 18.1453 3.2247 19.3707 3.51003 20.596C3.7967 21.8227 4.17936 22.9813 4.65936 24.0733C5.13936 25.1667 5.67003 26.1307 6.2527 26.9693C6.92765 27.9224 7.66716 28.8281 8.46603 29.68C9.18603 30.436 10.0207 30.8133 10.97 30.8133C11.5927 30.8133 12.134 30.712 12.594 30.5067C13.054 30.3027 13.5407 30.096 14.0567 29.8867C14.5727 29.6773 15.2194 29.5733 15.9954 29.5733C16.5874 29.5733 17.082 29.6347 17.4807 29.756C17.8794 29.8787 18.2434 30.02 18.5754 30.1773C18.9087 30.3373 19.258 30.476 19.6247 30.5987C19.9927 30.7213 20.438 30.7827 20.958 30.7827C21.642 30.7827 22.2567 30.6013 22.8034 30.2387C23.35 29.8773 23.8567 29.4093 24.3207 28.8387C24.7847 28.2653 25.2367 27.668 25.6767 27.0453C26.1567 26.34 26.546 25.664 26.8474 25.016C27.198 24.2793 27.4974 23.5193 27.7434 22.7413C27.714 22.7307 27.49 22.616 27.0767 22.396C26.6634 22.1773 26.194 21.8267 25.6687 21.3467C25.142 20.8667 24.682 20.24 24.29 19.4627C23.8967 18.6867 23.6994 17.7373 23.6994 16.6133C23.6994 15.6333 23.8554 14.788 24.166 14.0787C24.478 13.368 24.8434 12.7813 25.262 12.3173C25.6807 11.852 26.0567 11.4973 26.3887 11.252C26.7207 11.0067 26.9114 10.8693 26.962 10.8387C26.4514 10.1027 25.8954 9.532 25.2927 9.12267C24.7467 8.74235 24.1485 8.44323 23.5167 8.23467C23.011 8.06728 22.4897 7.95158 21.9607 7.88933C21.6277 7.85154 21.2931 7.83018 20.958 7.82267ZM19.886 5.34C20.3554 4.78 20.7394 4.12667 21.034 3.388C21.3278 2.66005 21.4785 1.88232 21.478 1.09733C21.478 0.873333 21.4634 0.673333 21.4327 0.5C20.6674 0.530667 19.8674 0.76 19.0354 1.18933C18.2484 1.58273 17.548 2.12944 16.9754 2.79733C16.4974 3.34844 16.1051 3.96825 15.8114 4.636C15.4797 5.34572 15.3068 6.11926 15.3047 6.90267C15.3026 7.08848 15.3232 7.27386 15.366 7.45467C15.4994 7.48533 15.638 7.5 15.7794 7.5C16.4647 7.5 17.1927 7.296 17.9634 6.88667C18.7013 6.50502 19.3551 5.97907 19.886 5.34Z" fill="#0045A5"/>
</g>
<defs>
<clipPath id="clip0_1205_13269">
<rect width="32" height="32" fill="white" transform="translate(0 0.5)"/>
</clipPath>
</defs>
</svg>
