<svg width="268" height="206" viewBox="0 0 268 206" fill="none" xmlns="http://www.w3.org/2000/svg">
<g clip-path="url(#clip0_1132_4674)">
<path d="M139.439 93.0229C138.379 93.3325 137.771 94.443 138.08 95.5033L143.125 112.782C143.435 113.842 144.545 114.451 145.606 114.141C146.666 113.831 147.274 112.721 146.965 111.661L142.48 96.302L157.839 91.8175C158.899 91.5079 159.508 90.3974 159.198 89.3371C158.889 88.2768 157.778 87.6682 156.718 87.9778L139.439 93.0229ZM394.533 85.1469C389.816 111.405 364.618 134.155 321.226 139.994C277.865 145.828 216.636 134.659 140.961 93.1888L139.039 96.6966C215.187 138.426 277.287 149.942 321.759 143.958C366.2 137.978 393.341 114.407 398.47 85.8541L394.533 85.1469Z" fill="url(#paint0_linear_1132_4674)"/>
</g>
<defs>
<linearGradient id="paint0_linear_1132_4674" x1="161.184" y1="102.887" x2="398.684" y2="102.887" gradientUnits="userSpaceOnUse">
<stop stop-color="white"/>
<stop offset="1" stop-color="white" stop-opacity="0"/>
</linearGradient>
<clipPath id="clip0_1132_4674">
<rect width="267.218" height="205.223" fill="white"/>
</clipPath>
</defs>
</svg>
