<svg width="270" height="206" viewBox="0 0 270 206" fill="none" xmlns="http://www.w3.org/2000/svg">
<path d="M1.43987 93.0228C0.379579 93.3324 -0.228982 94.4429 0.0806016 95.5032L5.12568 112.782C5.43526 113.842 6.54578 114.451 7.60607 114.141C8.66638 113.831 9.27494 112.721 8.96534 111.661L4.48083 96.3019L19.8395 91.8174C20.8998 91.5078 21.5084 90.3973 21.1988 89.337C20.8892 88.2767 19.7787 87.6682 18.7184 87.9777L1.43987 93.0228ZM256.533 85.1469C251.817 111.405 226.619 134.155 183.226 139.994C139.866 145.828 78.6365 134.659 2.9616 93.1888L1.03929 96.6966C77.1879 138.426 139.287 149.942 183.76 143.958C228.201 137.978 255.342 114.407 260.47 85.854L256.533 85.1469Z" fill="url(#paint0_linear_1205_13288)"/>
<defs>
<linearGradient id="paint0_linear_1205_13288" x1="23.1848" y1="102.887" x2="260.685" y2="102.887" gradientUnits="userSpaceOnUse">
<stop stop-color="white"/>
<stop offset="1" stop-color="white" stop-opacity="0"/>
</linearGradient>
</defs>
</svg>
