<svg width="55" height="56" viewBox="0 0 55 56" fill="none" xmlns="http://www.w3.org/2000/svg">
<circle cx="27.4696" cy="28.409" r="27.4696" fill="white"/>
<path d="M16.0039 17V27H38.0039V17H16.0039ZM28.0039 23H19.0039V21H28.0039V23ZM31.0039 23C30.8061 23 30.6128 22.9414 30.4483 22.8315C30.2839 22.7216 30.1557 22.5654 30.08 22.3827C30.0043 22.2 29.9845 21.9989 30.0231 21.8049C30.0617 21.6109 30.1569 21.4327 30.2968 21.2929C30.4367 21.153 30.6148 21.0578 30.8088 21.0192C31.0028 20.9806 31.2039 21.0004 31.3866 21.0761C31.5693 21.1518 31.7255 21.28 31.8354 21.4444C31.9453 21.6089 32.0039 21.8022 32.0039 22C32.0039 22.2652 31.8986 22.5196 31.711 22.7071C31.5235 22.8946 31.2691 23 31.0039 23ZM34.0039 23C33.8061 23 33.6128 22.9414 33.4483 22.8315C33.2839 22.7216 33.1557 22.5654 33.08 22.3827C33.0043 22.2 32.9845 21.9989 33.0231 21.8049C33.0617 21.6109 33.1569 21.4327 33.2968 21.2929C33.4367 21.153 33.6148 21.0578 33.8088 21.0192C34.0028 20.9806 34.2039 21.0004 34.3866 21.0761C34.5693 21.1518 34.7255 21.28 34.8354 21.4444C34.9453 21.6089 35.0039 21.8022 35.0039 22C35.0039 22.2652 34.8986 22.5196 34.711 22.7071C34.5235 22.8946 34.2691 23 34.0039 23ZM37.6939 34.37L38.8339 33.37L37.8339 31.64L36.3839 32.13C36.0629 31.8594 35.6975 31.6463 35.3039 31.5L35.0039 30H33.0039L32.7039 31.49C32.3103 31.6362 31.9449 31.8494 31.6239 32.12L30.1739 31.63L29.1739 33.36L30.3139 34.36C30.2339 34.7762 30.2339 35.2038 30.3139 35.62L29.1739 36.62L30.1739 38.35L31.6239 37.86C31.9449 38.1306 32.3103 38.3438 32.7039 38.49L33.0039 40H35.0039L35.3039 38.51C35.6975 38.3638 36.0629 38.1506 36.3839 37.88L37.8339 38.37L38.8339 36.64L37.6939 35.64C37.7739 35.2204 37.7739 34.7896 37.6939 34.37ZM34.0039 37C33.6083 37 33.2217 36.8827 32.8928 36.6629C32.5639 36.4432 32.3075 36.1308 32.1561 35.7654C32.0048 35.3999 31.9652 34.9978 32.0423 34.6098C32.1195 34.2219 32.31 33.8655 32.5897 33.5858C32.8694 33.3061 33.2258 33.1156 33.6137 33.0384C34.0017 32.9613 34.4038 33.0009 34.7693 33.1522C35.1347 33.3036 35.4471 33.56 35.6668 33.8889C35.8866 34.2178 36.0039 34.6044 36.0039 35C36.0023 35.5299 35.7911 36.0377 35.4164 36.4125C35.0416 36.7872 34.5339 36.9984 34.0039 37Z" fill="#91AE20"/>
<path d="M27.0039 35H19.0039V33H27.2979C27.8004 31.3248 28.9111 29.8981 30.4119 29H16.0039V39H28.2639C27.4428 37.8279 27.0028 36.4311 27.0039 35Z" fill="#91AE20"/>
</svg>
