<svg width="55" height="55" viewBox="0 0 55 55" fill="none" xmlns="http://www.w3.org/2000/svg">
<circle cx="27.4696" cy="27.4696" r="27.4696" fill="white"/>
<g clip-path="url(#clip0_1205_13209)">
<path d="M21.0039 15C19.3492 15 18.0039 16.3453 18.0039 18V36C18.0039 37.6547 19.3492 39 21.0039 39H33.0039C34.6586 39 36.0039 37.6547 36.0039 36V22.5H30.0039C29.1742 22.5 28.5039 21.8297 28.5039 21V15H21.0039ZM30.0039 15V21H36.0039L30.0039 15ZM21.0039 18.75C21.0039 18.3375 21.3414 18 21.7539 18H24.7539C25.1664 18 25.5039 18.3375 25.5039 18.75C25.5039 19.1625 25.1664 19.5 24.7539 19.5H21.7539C21.3414 19.5 21.0039 19.1625 21.0039 18.75ZM21.0039 21.75C21.0039 21.3375 21.3414 21 21.7539 21H24.7539C25.1664 21 25.5039 21.3375 25.5039 21.75C25.5039 22.1625 25.1664 22.5 24.7539 22.5H21.7539C21.3414 22.5 21.0039 22.1625 21.0039 21.75ZM27.0039 25.125C27.4164 25.125 27.7539 25.4625 27.7539 25.875V26.6859C28.1523 26.7422 28.5367 26.8312 28.8836 26.925C29.282 27.0328 29.5211 27.4406 29.4133 27.8438C29.3055 28.2469 28.8977 28.4812 28.4945 28.3734C27.9742 28.2328 27.4633 28.1297 26.9898 28.125C26.5961 28.1203 26.1742 28.2094 25.8836 28.3828C25.6164 28.5422 25.5039 28.725 25.5039 28.9828C25.5039 29.1562 25.5648 29.2875 25.8461 29.4562C26.1695 29.6484 26.6242 29.7891 27.2148 29.9672L27.2383 29.9719C27.768 30.1312 28.4242 30.3281 28.9398 30.6562C29.507 31.0125 29.9898 31.5797 30.0039 32.4469C30.018 33.3516 29.5539 34.0078 28.9305 34.3969C28.5695 34.6219 28.1617 34.7531 27.7539 34.8234V35.625C27.7539 36.0375 27.4164 36.375 27.0039 36.375C26.5914 36.375 26.2539 36.0375 26.2539 35.625V34.7906C25.7289 34.6922 25.2367 34.5234 24.8055 34.3734C24.707 34.3406 24.6086 34.3078 24.5148 34.275C24.1211 34.1438 23.9102 33.7172 24.0414 33.3281C24.1727 32.9391 24.5992 32.7234 24.9883 32.8547C25.1055 32.8922 25.2133 32.9297 25.3211 32.9672C25.9586 33.1828 26.4742 33.3609 27.0227 33.375C27.4492 33.3891 27.8617 33.2953 28.1336 33.1266C28.3727 32.9766 28.5039 32.7844 28.4992 32.4703C28.4945 32.2547 28.4148 32.1047 28.1383 31.9266C27.8195 31.725 27.3648 31.5797 26.7789 31.4016L26.7039 31.3781C26.1883 31.2234 25.5648 31.0359 25.0727 30.7359C24.5102 30.3984 24.0133 29.85 24.0086 28.9875C24.0039 28.0781 24.5148 27.45 25.1242 27.0891C25.4758 26.8828 25.8648 26.7516 26.2539 26.6812V25.875C26.2539 25.4625 26.5914 25.125 27.0039 25.125Z" fill="#FF672C"/>
</g>
<defs>
<clipPath id="clip0_1205_13209">
<rect width="18" height="24" fill="white" transform="translate(18.0039 15)"/>
</clipPath>
</defs>
</svg>
