<svg width="55" height="55" viewBox="0 0 55 55" fill="none" xmlns="http://www.w3.org/2000/svg">
<circle cx="27.4696" cy="27.4696" r="27.4696" fill="white"/>
<g clip-path="url(#clip0_1205_13198)">
<path d="M31.0034 27C31.7991 27 32.5622 27.3161 33.1248 27.8787C33.6874 28.4413 34.0034 29.2044 34.0034 30V36C34.0034 36.552 33.5534 37 33.0004 37H21.0034C20.7382 37 20.4839 36.8947 20.2963 36.7071C20.1088 36.5196 20.0034 36.2652 20.0034 36V30C20.0034 29.2044 20.3195 28.4413 20.8821 27.8787C21.4447 27.3161 22.2078 27 23.0034 27H31.0034ZM29.0034 31H25.0034C24.7486 31.0003 24.5034 31.0979 24.3181 31.2729C24.1327 31.4478 24.0212 31.687 24.0063 31.9414C23.9913 32.1958 24.0741 32.4464 24.2377 32.6418C24.4013 32.8373 24.6334 32.9629 24.8864 32.993L25.0034 33H29.0034C29.2583 32.9997 29.5035 32.9021 29.6888 32.7272C29.8742 32.5522 29.9857 32.3131 30.0006 32.0586C30.0156 31.8042 29.9328 31.5536 29.7692 31.3582C29.6056 31.1627 29.3735 31.0371 29.1204 31.007L29.0034 31ZM27.0034 23C28.0634 23 29.0504 23.331 29.8604 23.896C30.0781 24.0477 30.2265 24.2797 30.2731 24.5408C30.3197 24.8019 30.2607 25.0709 30.1089 25.2885C29.9572 25.5061 29.7253 25.6546 29.4642 25.7012C29.203 25.7478 28.9341 25.6887 28.7164 25.537C28.2142 25.1863 27.6161 24.9988 27.0034 25C26.3644 25 25.7754 25.198 25.2904 25.537C25.1829 25.6153 25.0608 25.6714 24.9313 25.702C24.8019 25.7325 24.6676 25.7369 24.5364 25.7149C24.4052 25.6929 24.2797 25.645 24.1672 25.5739C24.0548 25.5027 23.9577 25.4099 23.8815 25.3008C23.8054 25.1917 23.7519 25.0685 23.724 24.9384C23.6961 24.8083 23.6944 24.674 23.7191 24.5432C23.7437 24.4125 23.7942 24.288 23.8676 24.1771C23.941 24.0661 24.0358 23.9709 24.1464 23.897C24.9843 23.3121 25.9817 22.999 27.0034 23ZM27.0034 20C28.9214 20 30.6844 20.676 32.0634 21.803C32.2641 21.9723 32.3902 22.2138 32.4143 22.4752C32.4385 22.7367 32.3589 22.9971 32.1927 23.2004C32.0265 23.4036 31.787 23.5333 31.5259 23.5615C31.2649 23.5897 31.0032 23.5141 30.7974 23.351C29.7274 22.4749 28.3864 21.9974 27.0034 22C25.5634 22 24.2454 22.506 23.2114 23.35C23.1099 23.4346 22.9926 23.4982 22.8664 23.5371C22.7401 23.5761 22.6074 23.5897 22.4759 23.577C22.3443 23.5644 22.2166 23.5258 22.1001 23.4636C21.9835 23.4013 21.8805 23.3165 21.7969 23.2142C21.7133 23.1118 21.6509 22.9939 21.6131 22.8673C21.5754 22.7407 21.5631 22.6078 21.577 22.4764C21.5909 22.345 21.6307 22.2177 21.6941 22.1017C21.7575 21.9858 21.8433 21.8836 21.9464 21.801C23.3732 20.634 25.1603 19.9976 27.0034 20ZM27.0034 17C29.6527 16.9962 32.2137 17.9522 34.2124 19.691C34.4075 19.8663 34.5259 20.1112 34.5421 20.373C34.5583 20.6347 34.471 20.8923 34.2991 21.0904C34.1272 21.2884 33.8843 21.4109 33.6229 21.4316C33.3615 21.4523 33.1024 21.3695 32.9014 21.201C31.2663 19.7782 29.1709 18.9962 27.0034 19C24.8346 18.9959 22.738 19.7794 21.1034 21.205C20.9032 21.379 20.6421 21.4663 20.3774 21.4477C20.1128 21.4292 19.8664 21.3062 19.6924 21.106C19.5185 20.9058 19.4312 20.6446 19.4497 20.38C19.4683 20.1154 19.5912 19.869 19.7914 19.695C21.7905 17.9542 24.3527 16.9967 27.0034 17Z" fill="#0045A5"/>
</g>
<defs>
<clipPath id="clip0_1205_13198">
<rect width="24" height="24" fill="white" transform="translate(15.0039 15)"/>
</clipPath>
</defs>
</svg>
