<svg width="55" height="56" viewBox="0 0 55 56" fill="none" xmlns="http://www.w3.org/2000/svg">
<circle cx="27.4696" cy="28.409" r="27.4696" fill="white"/>
<path d="M27.0039 17L18.0039 21V27C18.0039 32.55 21.8439 37.74 27.0039 39C32.1639 37.74 36.0039 32.55 36.0039 27V21L27.0039 17ZM27.0039 23C28.4039 23 29.8039 24.1 29.8039 25.5V27C30.4039 27 31.0039 27.6 31.0039 28.3V31.8C31.0039 32.4 30.4039 33 29.7039 33H24.2039C23.6039 33 23.0039 32.4 23.0039 31.7V28.2C23.0039 27.6 23.6039 27 24.2039 27V25.5C24.2039 24.1 25.6039 23 27.0039 23ZM27.0039 24.2C26.2039 24.2 25.5039 24.7 25.5039 25.5V27H28.5039V25.5C28.5039 24.7 27.8039 24.2 27.0039 24.2Z" fill="#3CA7E1"/>
</svg>
