<svg width="55" height="55" viewBox="0 0 55 55" fill="none" xmlns="http://www.w3.org/2000/svg">
<circle cx="27.4696" cy="27.4696" r="27.4696" fill="white"/>
<g clip-path="url(#clip0_1205_13189)">
<path d="M19.6914 34.2332L21.1258 34.8613L21.332 34.3973L19.8977 33.7691L19.6914 34.2332ZM21.5383 35.0535L22.9727 35.6816L23.1789 35.2176L21.7445 34.5895L21.5383 35.0535ZM29.6055 34.3973L29.8117 34.8613L31.2461 34.2332L31.0398 33.7691L29.6055 34.3973ZM23.3992 35.8598L24.8195 36.502L25.0258 36.0379L23.6055 35.4098L23.3992 35.8598ZM17.8352 33.4129L19.2695 34.041L19.4758 33.591L18.0414 32.9488L17.8352 33.4129ZM27.7445 35.2176L27.9508 35.6816L29.3852 35.0535L29.1789 34.5895L27.7445 35.2176ZM25.9023 36.0379L26.1086 36.502L27.543 35.8598L27.3367 35.4098L25.9023 36.0379ZM31.4523 33.591L31.6586 34.041L33.093 33.4129L32.8867 32.9488L31.4523 33.591ZM22.9727 17.1848H21.4023V17.677H22.9727V17.1848ZM20.7602 17.1848H19.1852V17.677H20.7555L20.7602 17.1848ZM18.543 17.1848H16.9867V17.677H18.5477L18.543 17.1848ZM25.1758 17.1848H23.6195V17.677H25.1758V17.1848ZM29.6055 17.1848H28.0352V17.677H29.6055V17.1848ZM31.8227 17.1848H30.2523V17.677H31.8227V17.1848ZM27.3883 17.1848H25.832V17.677H27.3883V17.1848ZM34.0211 17.1848H32.4602V17.677H34.0211V17.1848ZM17.4789 31.4582H16.9727V33.0285H17.4789V31.4582ZM20.7602 21.3379H19.1852V21.8301H20.7555L20.7602 21.3379ZM17.4789 21.8348H18.5477V21.3426H16.9727V22.9129H17.4789V21.8348ZM25.3961 32.5504C27.7633 32.5504 29.6758 30.6379 29.6758 28.2707C29.6758 25.9176 27.7633 23.991 25.3961 23.991C23.043 23.991 21.1164 25.9176 21.1164 28.2707C21.1164 30.6379 23.043 32.5504 25.3961 32.5504ZM23.1367 27.3426C23.1367 26.152 24.5195 25.852 25.4617 25.852C26.2539 25.852 26.8305 26.1238 27.5383 26.4145L27.1258 27.2066H27.0836C26.7836 26.7426 25.9211 26.5926 25.4148 26.5926C24.993 26.5926 24.018 26.677 24.018 27.291C24.018 28.3035 27.6977 26.8129 27.6977 29.0676C27.6977 30.2582 26.2211 30.5301 25.307 30.5301C24.4586 30.5301 23.7883 30.3941 23.0945 29.9582L23.5164 29.0957H23.5586C23.8445 29.6676 24.6648 29.7941 25.2414 29.7941C25.6492 29.7941 26.7742 29.7379 26.7742 29.1238C26.7742 27.9004 23.1367 29.4191 23.1367 27.3426ZM17.4789 23.3629H16.9727V24.9379H17.4789V23.3629ZM33.5289 33.0285H34.0352V31.4582H33.5289V33.0285ZM17.4789 29.4332H16.9727V31.0035H17.4789V29.4332ZM15.0039 15.1738V34.2051L25.3961 38.827L36.0039 34.2051V15.1738H15.0039ZM34.6352 33.3191L25.4102 37.3363L16.3727 33.3191V20.6582H34.6398V33.3191H34.6352ZM34.6352 19.2895H16.3727V16.5426H34.6398V19.2895H34.6352ZM17.4789 25.3879H16.9727V26.9582H17.4789V25.3879ZM17.4789 27.4129H16.9727V28.9832H17.4789V27.4129ZM22.9727 21.3379H21.4023V21.8301H22.9727V21.3379ZM33.5289 28.9832H34.0352V27.4129H33.5289V28.9832ZM33.5289 26.9582H34.0352V25.3879H33.5289V26.9582ZM25.1758 21.3379H23.6195V21.8301H25.1758V21.3379ZM33.5289 24.9379H34.0352V23.3676H33.5289V24.9379ZM33.5289 31.0082H34.0352V29.4379H33.5289V31.0082ZM27.3883 21.3379H25.832V21.8301H27.3883V21.3379ZM29.6055 21.3379H28.0352V21.8301H29.6055V21.3379ZM33.5289 22.9129H34.0352V21.3426H32.4648V21.8348H33.5336L33.5289 22.9129ZM31.8227 21.3379H30.2523V21.8301H31.8227V21.3379Z" fill="#EA952F"/>
</g>
<defs>
<clipPath id="clip0_1205_13189">
<rect width="21" height="24" fill="white" transform="translate(15.0039 15)"/>
</clipPath>
</defs>
</svg>
