<svg width="60" height="61" viewBox="0 0 60 61" fill="none" xmlns="http://www.w3.org/2000/svg">
<circle cx="30" cy="30.709" r="28" fill="white" stroke="#0045A5" stroke-width="4"/>
<path d="M36.3242 36.1582H34.2617V39.709H30.7227V36.1582H23.4102V33.6387L30.9219 22.5762H34.2617V33.3457H36.3242V36.1582ZM30.7227 33.3457V30.4395C30.7227 30.166 30.7266 29.8418 30.7344 29.4668C30.75 29.0918 30.7656 28.7168 30.7812 28.3418C30.7969 27.9668 30.8125 27.6348 30.8281 27.3457C30.8516 27.0488 30.8672 26.8418 30.875 26.7246H30.7812C30.6328 27.0449 30.4766 27.3574 30.3125 27.6621C30.1484 27.959 29.957 28.2715 29.7383 28.5996L26.5977 33.3457H30.7227Z" fill="#0045A5"/>
</svg>
