<svg width="60" height="61" viewBox="0 0 60 61" fill="none" xmlns="http://www.w3.org/2000/svg">
<circle cx="30" cy="30.709" r="28" fill="white" stroke="#0045A5" stroke-width="4"/>
<path d="M35.9375 39.709H23.9609V37.1895L28.2617 32.8418C29.1289 31.9512 29.8242 31.209 30.3477 30.6152C30.8789 30.0137 31.2617 29.4668 31.4961 28.9746C31.7383 28.4824 31.8594 27.9551 31.8594 27.3926C31.8594 26.7129 31.668 26.2051 31.2852 25.8691C30.9102 25.5254 30.4062 25.3535 29.7734 25.3535C29.1094 25.3535 28.4648 25.5059 27.8398 25.8105C27.2148 26.1152 26.5625 26.5488 25.8828 27.1113L23.9141 24.7793C24.4062 24.3574 24.9258 23.959 25.4727 23.584C26.0273 23.209 26.668 22.9082 27.3945 22.6816C28.1289 22.4473 29.0078 22.3301 30.0312 22.3301C31.1562 22.3301 32.1211 22.5332 32.9258 22.9395C33.7383 23.3457 34.3633 23.9004 34.8008 24.6035C35.2383 25.2988 35.457 26.0879 35.457 26.9707C35.457 27.916 35.2695 28.7793 34.8945 29.5605C34.5195 30.3418 33.9727 31.1152 33.2539 31.8809C32.543 32.6465 31.6836 33.4941 30.6758 34.4238L28.4727 36.498V36.6621H35.9375V39.709Z" fill="#0045A5"/>
</svg>
