<svg width="60" height="61" viewBox="0 0 60 61" fill="none" xmlns="http://www.w3.org/2000/svg">
<circle cx="30" cy="30.709" r="28" fill="white" stroke="#0045A5" stroke-width="4"/>
<path d="M35.2695 26.4082C35.2695 27.1973 35.1055 27.8809 34.7773 28.459C34.4492 29.0371 34.0039 29.5098 33.4414 29.877C32.8867 30.2441 32.2617 30.5137 31.5664 30.6855V30.7559C32.9414 30.9277 33.9844 31.3496 34.6953 32.0215C35.4141 32.6934 35.7734 33.5918 35.7734 34.7168C35.7734 35.7168 35.5273 36.6113 35.0352 37.4004C34.5508 38.1895 33.8008 38.8105 32.7852 39.2637C31.7695 39.7168 30.4609 39.9434 28.8594 39.9434C27.9141 39.9434 27.0312 39.8652 26.2109 39.709C25.3984 39.5605 24.6328 39.3301 23.9141 39.0176V35.9355C24.6484 36.3105 25.418 36.5957 26.2227 36.791C27.0273 36.9785 27.7773 37.0723 28.4727 37.0723C29.7695 37.0723 30.6758 36.8496 31.1914 36.4043C31.7148 35.9512 31.9766 35.3184 31.9766 34.5059C31.9766 34.0293 31.8555 33.627 31.6133 33.2988C31.3711 32.9707 30.9492 32.7207 30.3477 32.5488C29.7539 32.377 28.9219 32.291 27.8516 32.291H26.5508V29.5137H27.875C28.9297 29.5137 29.7305 29.416 30.2773 29.2207C30.832 29.0176 31.207 28.7441 31.4023 28.4004C31.6055 28.0488 31.707 27.6504 31.707 27.2051C31.707 26.5957 31.5195 26.1191 31.1445 25.7754C30.7695 25.4316 30.1445 25.2598 29.2695 25.2598C28.7227 25.2598 28.2227 25.3301 27.7695 25.4707C27.3242 25.6035 26.9219 25.7676 26.5625 25.9629C26.2031 26.1504 25.8867 26.334 25.6133 26.5137L23.9375 24.0176C24.6094 23.5332 25.3945 23.1309 26.293 22.8105C27.1992 22.4902 28.2773 22.3301 29.5273 22.3301C31.293 22.3301 32.6914 22.6855 33.7227 23.3965C34.7539 24.1074 35.2695 25.1113 35.2695 26.4082Z" fill="#0045A5"/>
</svg>
