<svg width="176" height="96" viewBox="0 0 176 96" fill="none" xmlns="http://www.w3.org/2000/svg">
<rect width="176" height="96" rx="20" fill="white"/>
<g clip-path="url(#clip0_1163_1597)">
<path d="M81.427 48.4105C81.427 52.8522 77.9379 56.1252 73.6559 56.1252C69.3739 56.1252 65.8848 52.8522 65.8848 48.4105C65.8848 43.9374 69.3739 40.6957 73.6559 40.6957C77.9379 40.6957 81.427 43.9374 81.427 48.4105ZM78.0252 48.4105C78.0252 45.6348 76.003 43.7357 73.6559 43.7357C71.3088 43.7357 69.2866 45.6348 69.2866 48.4105C69.2866 51.1583 71.3088 53.0852 73.6559 53.0852C76.003 53.0852 78.0252 51.1548 78.0252 48.4105Z" fill="#EA4335"/>
<path d="M98.1917 48.4105C98.1917 52.8522 94.7025 56.1252 90.4206 56.1252C86.1386 56.1252 82.6494 52.8522 82.6494 48.4105C82.6494 43.9409 86.1386 40.6957 90.4206 40.6957C94.7025 40.6957 98.1917 43.9374 98.1917 48.4105ZM94.7898 48.4105C94.7898 45.6348 92.7676 43.7357 90.4206 43.7357C88.0735 43.7357 86.0513 45.6348 86.0513 48.4105C86.0513 51.1583 88.0735 53.0852 90.4206 53.0852C92.7676 53.0852 94.7898 51.1548 94.7898 48.4105Z" fill="#FBBC05"/>
<path d="M114.258 41.1618V55.0122C114.258 60.7096 110.884 63.0365 106.895 63.0365C103.141 63.0365 100.881 60.5357 100.029 58.4905L102.991 57.2626C103.518 58.5183 104.81 60 106.892 60C109.445 60 111.027 58.4313 111.027 55.4783V54.3687H110.909C110.147 55.3044 108.68 56.1218 106.829 56.1218C102.956 56.1218 99.4072 52.7618 99.4072 48.4383C99.4072 44.0835 102.956 40.6957 106.829 40.6957C108.677 40.6957 110.144 41.5131 110.909 42.4209H111.027V41.1652H114.258V41.1618ZM111.268 48.4383C111.268 45.7218 109.449 43.7357 107.133 43.7357C104.786 43.7357 102.82 45.7218 102.82 48.4383C102.82 51.127 104.786 53.0852 107.133 53.0852C109.449 53.0852 111.268 51.127 111.268 48.4383Z" fill="#4285F4"/>
<path d="M119.585 33.0435V55.6522H116.267V33.0435H119.585Z" fill="#34A853"/>
<path d="M132.514 50.9495L135.154 52.7026C134.302 53.9582 132.249 56.1217 128.7 56.1217C124.299 56.1217 121.013 52.7339 121.013 48.4069C121.013 43.8191 124.327 40.6921 128.319 40.6921C132.339 40.6921 134.306 43.8782 134.948 45.6L135.301 46.4765L124.945 50.7478C125.738 52.2956 126.971 53.0852 128.7 53.0852C130.432 53.0852 131.634 52.2365 132.514 50.9495ZM124.387 48.1739L131.309 45.3113C130.928 44.3478 129.783 43.6765 128.435 43.6765C126.706 43.6765 124.299 45.1965 124.387 48.1739Z" fill="#EA4335"/>
<path d="M53.3258 46.4035V43.1304H64.401C64.5092 43.7008 64.5651 44.3756 64.5651 45.1061C64.5651 47.5617 63.8911 50.5982 61.7186 52.7617C59.6056 54.953 56.9058 56.1217 53.3293 56.1217C46.7002 56.1217 41.126 50.7443 41.126 44.1426C41.126 37.5408 46.7002 32.1635 53.3293 32.1635C56.9966 32.1635 59.6091 33.5965 61.5719 35.4643L59.2528 37.7739C57.8453 36.4591 55.9383 35.4365 53.3258 35.4365C48.485 35.4365 44.699 39.3217 44.699 44.1426C44.699 48.9635 48.485 52.8487 53.3258 52.8487C56.4657 52.8487 58.2539 51.593 59.3995 50.4521C60.3286 49.5269 60.9398 48.2052 61.1808 46.4L53.3258 46.4035Z" fill="#4285F4"/>
</g>
<defs>
<clipPath id="clip0_1163_1597">
<rect width="95" height="32" fill="white" transform="translate(41 32)"/>
</clipPath>
</defs>
</svg>
