<svg width="176" height="96" viewBox="0 0 176 96" fill="none" xmlns="http://www.w3.org/2000/svg">
<rect width="176" height="96" rx="20" fill="white"/>
<g clip-path="url(#clip0_1163_1513)">
<path fill-rule="evenodd" clip-rule="evenodd" d="M51.5362 44.0549C50.0252 44.0549 48.7301 44.6029 47.6509 45.4795V44.2741H43.9814V58.4106H47.7588V49.4246C48.2984 48.6575 49.5935 47.6712 51.2124 47.6712C51.752 47.6712 52.2916 47.7808 52.7233 47.8904V44.2741C52.2916 44.1645 51.8599 44.0549 51.5362 44.0549Z" fill="#293E40"/>
<path fill-rule="evenodd" clip-rule="evenodd" d="M19.051 54.0271C20.0223 54.9038 21.5333 55.4517 22.8284 55.4517C23.7997 55.4517 24.6631 54.9038 24.6631 54.2463C24.6631 52.0546 17.8638 52.8217 17.8638 48.3287C17.8638 45.5891 20.454 43.9453 23.1521 43.9453C24.9869 43.9453 26.9295 44.6028 27.9008 45.3699L26.174 48.1095C25.4186 47.6712 24.5552 47.1233 23.4759 47.1233C22.3967 47.1233 21.6412 47.5616 21.6412 48.3287C21.6412 50.1917 28.4404 49.4246 28.4404 54.3559C28.4404 57.0955 25.8503 58.7393 22.9363 58.7393C20.9937 58.7393 18.9431 58.0818 17.3242 56.8763L19.051 54.0271Z" fill="#293E40"/>
<path fill-rule="evenodd" clip-rule="evenodd" d="M42.3621 51.1779C42.3621 47.2329 39.664 43.9453 35.7787 43.9453C31.6776 43.9453 28.9795 47.452 28.9795 51.2875C28.9795 55.7805 32.1093 58.6297 36.2104 58.6297C38.3689 58.6297 40.5274 57.753 41.9304 56.1092L39.7719 53.9175C39.1244 54.6846 37.8293 55.5613 36.3184 55.5613C34.3757 55.5613 32.7569 54.1367 32.541 52.1642H42.1463C42.3621 51.945 42.3621 51.6163 42.3621 51.1779ZM32.8648 49.5341C33.0806 48.2191 34.3757 47.0137 35.8867 47.0137C37.3976 47.0137 38.4769 48.2191 38.6927 49.5341H32.8648Z" fill="#293E40"/>
<path fill-rule="evenodd" clip-rule="evenodd" d="M61.4654 52.9313L65.2427 44.274H69.128L62.7605 58.4105H60.1703L53.8027 44.274H57.5801L61.4654 52.9313Z" fill="#293E40"/>
<path fill-rule="evenodd" clip-rule="evenodd" d="M72.2572 37.5895C73.6602 37.5895 74.7394 38.6853 74.7394 40.0003C74.7394 41.4249 73.6602 42.4112 72.2572 42.4112C70.8541 42.4112 69.8828 41.3154 69.8828 40.0003C69.8828 38.5757 70.8541 37.5895 72.2572 37.5895Z" fill="#293E40"/>
<path d="M74.2002 44.274H70.4229V58.4105H74.2002V44.274Z" fill="#293E40"/>
<path fill-rule="evenodd" clip-rule="evenodd" d="M89.5257 55.4517C87.9069 57.6434 85.8563 58.6297 83.2661 58.6297C78.9491 58.6297 75.8193 55.3421 75.8193 51.2875C75.8193 47.1233 79.0571 43.9453 83.2661 43.9453C85.7484 43.9453 87.799 45.1507 89.094 46.7945L86.6118 49.0958C85.8563 48.1095 84.7771 47.452 83.482 47.452C81.3235 47.452 79.7046 49.2054 79.7046 51.2875C79.7046 53.4792 81.2156 55.123 83.482 55.123C84.9929 55.123 86.1801 54.2463 86.8276 53.26L89.5257 55.4517Z" fill="#293E40"/>
<path fill-rule="evenodd" clip-rule="evenodd" d="M103.015 56.1092C101.612 57.753 99.4539 58.6297 97.2954 58.6297C93.1943 58.6297 90.0645 55.7805 90.0645 51.2875C90.0645 47.3424 92.6546 43.9453 96.8637 43.9453C100.641 43.9453 103.447 47.2329 103.447 51.1779C103.447 51.6163 103.447 51.945 103.339 52.2738H93.626C93.8418 54.2463 95.4607 55.6709 97.4033 55.6709C98.9143 55.6709 100.209 54.7942 100.857 54.0271L103.015 56.1092ZM99.5618 49.5341C99.4539 48.3287 98.3747 47.0137 96.7558 47.0137C95.2448 47.0137 93.9497 48.2191 93.7339 49.5341H99.5618Z" fill="#293E40"/>
<path fill-rule="evenodd" clip-rule="evenodd" d="M104.851 58.4106V44.2741H108.412V45.4795C109.491 44.6029 110.786 44.0549 112.297 44.0549C114.24 44.0549 115.967 44.9316 117.154 46.3562C118.017 47.4521 118.665 48.8767 118.665 51.2875V58.5201H114.888V50.9588C114.888 49.5342 114.564 48.7671 114.024 48.3287C113.485 47.7808 112.837 47.4521 111.866 47.4521C110.355 47.4521 109.06 48.4383 108.412 49.2054V58.4106C108.52 58.4106 104.851 58.4106 104.851 58.4106Z" fill="#293E40"/>
<path fill-rule="evenodd" clip-rule="evenodd" d="M128.27 43.9453C123.737 43.9453 120.176 47.5616 120.176 52.1642C120.176 54.575 121.147 56.7667 122.658 58.3009C123.198 58.8489 124.169 58.8489 124.817 58.4105C125.68 57.6434 126.975 57.2051 128.27 57.2051C129.673 57.2051 130.752 57.6434 131.724 58.4105C132.371 58.9584 133.235 58.8489 133.882 58.1914C135.393 56.6572 136.364 54.575 136.364 52.1642C136.257 47.6712 132.695 43.9453 128.27 43.9453ZM128.162 56.438C125.68 56.438 124.061 54.575 124.061 52.2738C124.061 49.9725 125.68 48.1095 128.162 48.1095C130.644 48.1095 132.263 49.9725 132.263 52.2738C132.263 54.575 130.644 56.438 128.162 56.438Z" fill="#81B5A1"/>
<path fill-rule="evenodd" clip-rule="evenodd" d="M143.704 58.4105H140.898L135.394 44.274H139.063L142.085 52.3833L145.107 44.274H148.237L151.151 52.3833L154.172 44.274H157.95L152.446 58.4105H149.64L146.618 50.4108L143.704 58.4105Z" fill="#293E40"/>
<path d="M157.95 56.7667H157.626V57.3147H157.41V55.6709H158.058C158.381 55.6709 158.597 55.8901 158.597 56.2188C158.597 56.438 158.381 56.6572 158.274 56.7667L158.705 57.4243H158.381L157.95 56.7667ZM157.626 56.5476H158.058C158.274 56.5476 158.274 56.438 158.274 56.3284C158.274 56.1092 158.166 56.1092 158.058 56.1092H157.626V56.5476Z" fill="#293E40"/>
<path d="M157.949 55.1229C158.813 55.1229 159.46 55.7805 159.46 56.6571C159.46 57.5338 158.813 58.1913 157.949 58.1913C157.086 58.1913 156.439 57.5338 156.439 56.6571C156.439 55.7805 157.194 55.1229 157.949 55.1229ZM157.949 54.7942C156.978 54.7942 156.223 55.6709 156.223 56.5475C156.223 57.5338 157.086 58.3009 157.949 58.3009C158.921 58.3009 159.676 57.4242 159.676 56.5475C159.676 55.6709 158.813 54.7942 157.949 54.7942Z" fill="#293E40"/>
</g>
<defs>
<clipPath id="clip0_1163_1513">
<rect width="143" height="22" fill="white" transform="translate(17 37)"/>
</clipPath>
</defs>
</svg>
