<svg width="176" height="96" viewBox="0 0 176 96" fill="none" xmlns="http://www.w3.org/2000/svg">
<rect width="176" height="96" rx="20" fill="white"/>
<path fill-rule="evenodd" clip-rule="evenodd" d="M104.2 40.31L102.2 36.93L98.6497 38.62L96.6497 35.23L93.0997 36.93L91.1097 33.53L87.5597 35.23L85.5597 31.84L82.0097 33.54L80.0197 30.14L76.4597 31.84L68.9297 56.36L78.0797 59.16C78.4244 58.0548 79.153 57.1094 80.1339 56.4945C81.1148 55.8797 82.2833 55.636 83.4282 55.8075C84.5731 55.979 85.6189 56.5544 86.3766 57.4296C87.1343 58.3049 87.554 59.4223 87.5597 60.58V60.68C87.5797 61.12 87.5297 61.56 87.3997 62L96.6997 64.85L104.2 40.31Z" fill="#D61920"/>
<path fill-rule="evenodd" clip-rule="evenodd" d="M76.78 54.34C76.5487 54.3017 76.3388 54.1818 76.1884 54.002C76.0379 53.8222 75.9569 53.5944 75.96 53.36V41.36C75.9587 41.2283 75.9837 41.0976 76.0334 40.9757C76.0832 40.8538 76.1568 40.743 76.25 40.6499C76.3431 40.5568 76.4539 40.4832 76.5758 40.4334C76.6977 40.3836 76.8284 40.3586 76.96 40.36H85.6301C86.1409 40.3587 86.647 40.458 87.1194 40.6523C87.5919 40.8465 88.0215 41.132 88.3836 41.4923C88.7458 41.8525 89.0334 42.2806 89.2301 42.7521C89.4268 43.2236 89.5287 43.7291 89.53 44.24V53.36C89.5298 53.5073 89.497 53.6527 89.434 53.7858C89.371 53.9189 89.2794 54.0365 89.1658 54.1301C89.0521 54.2237 88.9191 54.2911 88.7764 54.3274C88.6336 54.3637 88.4846 54.368 88.34 54.34C88.1106 54.2996 87.903 54.1788 87.7546 53.9992C87.6061 53.8196 87.5265 53.593 87.53 53.36V44.25C87.53 43.7461 87.3299 43.2628 86.9736 42.9065C86.6172 42.5502 86.134 42.35 85.6301 42.35H83.7401V53.35C83.7408 53.484 83.7147 53.6167 83.6631 53.7404C83.6116 53.8641 83.5357 53.9762 83.44 54.07C83.3262 54.1829 83.1866 54.2664 83.0333 54.3135C82.88 54.3605 82.7176 54.3696 82.5601 54.34C82.3287 54.3017 82.1188 54.1818 81.9684 54.002C81.8179 53.8222 81.7369 53.5944 81.7401 53.36V42.35H77.96V53.35C77.961 53.4971 77.9294 53.6426 77.8677 53.7761C77.8059 53.9096 77.7155 54.0279 77.6028 54.1224C77.4901 54.217 77.3579 54.2855 77.2157 54.3231C77.0735 54.3607 76.9247 54.3665 76.78 54.34ZM91.2001 59.57C90.967 59.5315 90.7557 59.4101 90.605 59.2282C90.4544 59.0463 90.3745 58.8161 90.3801 58.58C90.3812 58.3176 90.4853 58.0662 90.67 57.88C90.8547 57.6916 91.1063 57.5837 91.37 57.58C92.22 57.58 92.9501 57.04 93.1901 56.23L94.2201 52.8L90.85 41.53C90.8099 41.4039 90.7951 41.2712 90.8066 41.1394C90.818 41.0076 90.8556 40.8794 90.917 40.7622C90.9783 40.645 91.0624 40.5411 91.1642 40.4566C91.266 40.3722 91.3835 40.3087 91.51 40.27C91.7619 40.2002 92.031 40.2297 92.2618 40.3525C92.4925 40.4753 92.6673 40.682 92.75 40.93L95.25 49.33L97.7901 40.93C97.9101 40.47 98.4201 40.16 98.9401 40.26L99.0101 40.27C99.5501 40.44 99.8501 41.01 99.6901 41.54L96.2201 53.1L95.1201 56.8C94.8732 57.5962 94.3837 58.2955 93.7201 58.8C93.045 59.3063 92.2239 59.58 91.3801 59.58C91.3199 59.5823 91.2596 59.5789 91.2001 59.57Z" fill="#FEFEFE"/>
<path fill-rule="evenodd" clip-rule="evenodd" d="M30.0801 52.15H32.0401C32.5626 52.15 33.0637 51.9424 33.4331 51.573C33.8025 51.2035 34.0101 50.7025 34.0101 50.18V44.41C34.0114 44.1513 33.9618 43.8949 33.864 43.6553C33.7662 43.4158 33.6222 43.1979 33.4402 43.0141C33.2582 42.8302 33.0417 42.684 32.8032 42.5838C32.5647 42.4836 32.3088 42.4313 32.0501 42.43H30.0801V52.13V52.15ZM28.8501 54.21C28.61 54.1694 28.3923 54.0443 28.2364 53.8572C28.0805 53.6702 27.9967 53.4335 28.0001 53.19V35.27C27.9983 35.1329 28.024 34.9968 28.0755 34.8697C28.127 34.7427 28.2034 34.6272 28.3001 34.53C28.4171 34.4085 28.5623 34.3175 28.7227 34.2652C28.8831 34.2129 29.0539 34.2008 29.2201 34.23C29.7201 34.33 30.0801 34.75 30.0801 35.26V40.36H32.0401C32.5715 40.3587 33.0979 40.4622 33.5892 40.6646C34.0805 40.8671 34.5271 41.1645 34.9033 41.5397C35.2795 41.915 35.578 42.3608 35.7816 42.8516C35.9853 43.3424 36.0901 43.8686 36.0901 44.4V50.17C36.0875 51.2407 35.661 52.2667 34.9039 53.0238C34.1468 53.7809 33.1208 54.2074 32.0501 54.21H29.0401C28.9733 54.2139 28.9062 54.2106 28.8401 54.2L28.8501 54.21Z" fill="#333545"/>
<path fill-rule="evenodd" clip-rule="evenodd" d="M43.14 42.35C43.0277 42.3304 42.914 42.3204 42.8 42.32C42.5406 42.3174 42.2832 42.3665 42.043 42.4645C41.8028 42.5626 41.5845 42.7076 41.4011 42.8911C41.2176 43.0745 41.0726 43.2928 40.9745 43.533C40.8765 43.7732 40.8273 44.0306 40.83 44.29V50.3C40.8287 50.5591 40.8787 50.8159 40.9773 51.0555C41.0758 51.2951 41.2209 51.5128 41.4041 51.696C41.5873 51.8792 41.805 52.0242 42.0446 52.1228C42.2842 52.2213 42.5409 52.2714 42.8 52.27C43.3225 52.27 43.8236 52.0625 44.193 51.693C44.5625 51.3236 44.77 50.8225 44.77 50.3V44.3C44.77 43.33 44.08 42.52 43.14 42.35ZM42.09 54.3C41.1524 54.1351 40.3032 53.6443 39.6921 52.9144C39.0811 52.1844 38.7474 51.262 38.75 50.31V44.3C38.7483 43.7681 38.8526 43.2412 39.0569 42.7502C39.2613 42.2591 39.5615 41.8137 39.94 41.44C40.3155 41.0646 40.7615 40.7672 41.2523 40.5647C41.7431 40.3621 42.2691 40.2586 42.8 40.26C43.8715 40.26 44.8991 40.6857 45.6567 41.4433C46.4144 42.201 46.84 43.2286 46.84 44.3V50.31C46.84 51.39 46.42 52.41 45.65 53.18C45.2761 53.5547 44.8318 53.8518 44.3427 54.0543C43.8536 54.2568 43.3294 54.3607 42.8 54.36C42.562 54.361 42.3245 54.341 42.09 54.3ZM53.89 42.36C53.7778 42.3404 53.664 42.3303 53.55 42.33C53.2906 42.3274 53.0332 42.3765 52.793 42.4745C52.5528 42.5726 52.3345 42.7176 52.1511 42.9011C51.9676 43.0845 51.8226 43.3028 51.7245 43.543C51.6265 43.7832 51.5773 44.0406 51.58 44.3V50.31C51.5787 50.5691 51.6287 50.8259 51.7273 51.0655C51.8258 51.3051 51.9709 51.5228 52.1541 51.706C52.3373 51.8892 52.555 52.0342 52.7946 52.1328C53.0342 52.2313 53.2909 52.2814 53.55 52.28C53.8091 52.2814 54.0659 52.2313 54.3055 52.1328C54.5451 52.0342 54.7628 51.8892 54.946 51.706C55.1292 51.5228 55.2742 51.3051 55.3728 51.0655C55.4713 50.8259 55.5213 50.5691 55.52 50.31V44.3C55.52 43.34 54.83 42.53 53.89 42.36ZM52.84 54.3C51.9043 54.133 51.0574 53.6413 50.4483 52.9115C49.8392 52.1818 49.507 51.2606 49.51 50.31V44.3C49.5116 43.7107 49.6418 43.1288 49.8915 42.5949C50.1412 42.0611 50.5043 41.5882 50.9557 41.2092C51.407 40.8302 51.9357 40.5543 52.5046 40.4007C53.0736 40.2472 53.6693 40.2196 54.25 40.32C55.1878 40.4826 56.038 40.971 56.6509 41.6991C57.2637 42.4272 57.5999 43.3483 57.6 44.3V50.31C57.6012 50.8442 57.4957 51.3733 57.2897 51.8661C57.0836 52.359 56.7811 52.8057 56.4 53.18C56.0261 53.5547 55.5818 53.8518 55.0927 54.0543C54.6036 54.2568 54.0794 54.3607 53.55 54.36C53.31 54.36 53.07 54.34 52.84 54.3ZM61.11 54.34C60.8699 54.2995 60.6522 54.1743 60.4963 53.9873C60.3404 53.8002 60.2566 53.5635 60.26 53.32V35.27C60.26 34.99 60.36 34.72 60.56 34.53C60.678 34.4136 60.8223 34.3273 60.9807 34.2786C61.1392 34.2298 61.307 34.22 61.47 34.25C61.97 34.33 62.34 34.76 62.34 35.27V45.95L67.12 40.59C67.36 40.33 67.72 40.21 68.08 40.27C68.2615 40.3004 68.4316 40.3789 68.5725 40.4972C68.7134 40.6156 68.8201 40.7696 68.8813 40.9431C68.9426 41.1167 68.9562 41.3034 68.9208 41.484C68.8854 41.6646 68.8023 41.8325 68.68 41.97L65.07 46L68.8 52.83C68.8672 52.9452 68.9106 53.0727 68.9278 53.2049C68.945 53.3372 68.9355 53.4715 68.9 53.6C68.8614 53.7325 68.7962 53.8558 68.7086 53.9623C68.6209 54.0689 68.5125 54.1566 68.39 54.22C68.1783 54.3418 67.9302 54.3843 67.69 54.34C67.5406 54.3148 67.3986 54.2569 67.2742 54.1705C67.1497 54.084 67.0459 53.9712 66.97 53.84L63.61 47.66L62.33 49.07V53.32C62.33 53.5959 62.2204 53.8604 62.0254 54.0554C61.8304 54.2505 61.5658 54.36 61.29 54.36C61.22 54.36 61.16 54.36 61.09 54.34H61.11ZM106.92 54.33C106.358 54.2358 105.823 54.0173 105.356 53.6903C104.889 53.3633 104.501 52.9362 104.22 52.44C104.083 52.197 104.047 51.9095 104.12 51.64C104.2 51.38 104.37 51.16 104.6 51.02C104.814 50.9034 105.061 50.8645 105.3 50.91C105.6 50.96 105.87 51.14 106.02 51.41C106.29 51.87 106.72 52.17 107.25 52.26C107.523 52.3075 107.804 52.2926 108.07 52.2164C108.337 52.1402 108.583 52.0047 108.79 51.82C109.19 51.45 109.39 50.92 109.34 50.4C109.329 50.1335 109.255 49.8733 109.125 49.6405C108.995 49.4077 108.811 49.2089 108.59 49.06L105.79 47.07C105.334 46.7497 104.954 46.3327 104.677 45.8487C104.401 45.3647 104.234 44.8257 104.19 44.27C104.154 43.7094 104.246 43.1479 104.459 42.6281C104.672 42.1083 105.001 41.6439 105.42 41.27C105.829 40.8897 106.318 40.6053 106.851 40.4376C107.383 40.2698 107.947 40.2228 108.5 40.3C109.68 40.5 110.64 41.18 111.19 42.14C111.323 42.3799 111.357 42.6618 111.286 42.9266C111.215 43.1914 111.045 43.4184 110.81 43.56C110.598 43.6818 110.35 43.7243 110.11 43.68C109.961 43.6548 109.819 43.5969 109.694 43.5105C109.57 43.424 109.466 43.3112 109.39 43.18C109.265 42.9679 109.094 42.7861 108.89 42.6478C108.686 42.5095 108.454 42.418 108.21 42.38C107.961 42.3349 107.705 42.3485 107.462 42.4197C107.219 42.4908 106.995 42.6176 106.81 42.79C106.629 42.9609 106.488 43.1696 106.396 43.4011C106.304 43.6327 106.265 43.8815 106.28 44.13C106.3 44.62 106.58 45.1 107 45.38L109.8 47.33C110.275 47.6628 110.668 48.0998 110.949 48.6076C111.23 49.1153 111.391 49.6805 111.42 50.26C111.466 50.8368 111.377 51.4165 111.16 51.9529C110.943 52.4893 110.604 52.9677 110.17 53.35C109.748 53.7425 109.243 54.036 108.693 54.209C108.143 54.3819 107.561 54.4301 106.99 54.35L106.91 54.33H106.92ZM114.95 54.36C114.71 54.3178 114.492 54.1926 114.335 54.0061C114.178 53.8197 114.091 53.5839 114.09 53.34V35.29C114.089 35.1531 114.115 35.0173 114.166 34.8905C114.218 34.7637 114.295 34.6485 114.392 34.5517C114.488 34.4548 114.604 34.3783 114.73 34.3265C114.857 34.2747 114.993 34.2487 115.13 34.25L115.33 34.26C115.83 34.36 116.17 34.77 116.17 35.29V40.39H118.14C118.671 40.3887 119.197 40.4923 119.688 40.6949C120.178 40.8974 120.624 41.195 121 41.5704C121.375 41.9458 121.673 42.3917 121.875 42.8824C122.078 43.3732 122.181 43.8991 122.18 44.43V53.33C122.181 53.481 122.149 53.6304 122.085 53.7675C122.022 53.9046 121.929 54.0261 121.814 54.1234C121.698 54.2207 121.563 54.2915 121.417 54.3306C121.271 54.3698 121.119 54.3764 120.97 54.35C120.47 54.26 120.11 53.83 120.11 53.32V44.42C120.11 44.1618 120.059 43.9061 119.96 43.6677C119.861 43.4292 119.715 43.2127 119.532 43.0306C119.349 42.8484 119.132 42.7043 118.893 42.6064C118.654 42.5084 118.398 42.4587 118.14 42.46H116.17V53.33C116.171 53.482 116.139 53.6324 116.075 53.7704C116.011 53.9083 115.917 54.0304 115.801 54.1279C115.684 54.2254 115.547 54.2959 115.4 54.3343C115.253 54.3727 115.099 54.3781 114.95 54.35V54.36ZM129.23 42.37C128.947 42.3186 128.655 42.3302 128.377 42.4042C128.099 42.4781 127.84 42.6124 127.619 42.7976C127.399 42.9828 127.222 43.2144 127.101 43.4758C126.98 43.7372 126.918 44.022 126.92 44.31V50.32C126.919 50.5783 126.968 50.8342 127.066 51.0732C127.164 51.3121 127.308 51.5294 127.491 51.7124C127.673 51.8955 127.889 52.0408 128.128 52.1399C128.366 52.239 128.622 52.29 128.88 52.29C129.4 52.29 129.9 52.09 130.27 51.72C130.455 51.5372 130.602 51.3191 130.702 51.0787C130.801 50.8382 130.852 50.5803 130.85 50.32V44.3C130.85 43.34 130.17 42.52 129.22 42.36L129.23 42.37ZM128.17 54.29C127.235 54.1251 126.388 53.6355 125.779 52.9073C125.17 52.1792 124.837 51.2594 124.84 50.31V44.3C124.84 43.7098 124.969 43.1268 125.218 42.5917C125.467 42.0567 125.83 41.5825 126.282 41.2024C126.733 40.8224 127.263 40.5456 127.832 40.3914C128.402 40.2373 128.998 40.2095 129.58 40.31C130.519 40.4729 131.371 40.9627 131.984 41.6929C132.597 42.4231 132.932 43.3466 132.93 44.3V50.31C132.93 50.8426 132.825 51.37 132.619 51.8611C132.412 52.3522 132.11 52.7972 131.73 53.17C131.271 53.6306 130.708 53.9731 130.088 54.1682C129.468 54.3633 128.81 54.4051 128.17 54.29Z" fill="#333545"/>
<path fill-rule="evenodd" clip-rule="evenodd" d="M148.9 41.54C148.934 41.413 148.943 41.2805 148.925 41.1501C148.908 41.0197 148.865 40.8939 148.8 40.78C148.724 40.6587 148.625 40.5536 148.508 40.4712C148.391 40.3888 148.259 40.3306 148.12 40.3C147.862 40.2513 147.595 40.3028 147.374 40.444C147.153 40.5853 146.994 40.8056 146.93 41.06C146.93 41.11 145.81 45.62 144.93 49.05L144.91 49.12L144.89 49.05L142.89 41.07C142.851 40.8752 142.754 40.6969 142.611 40.5592C142.468 40.4215 142.286 40.3311 142.09 40.3C142.03 40.2883 141.97 40.2816 141.91 40.28C141.45 40.28 141.05 40.6 140.92 41.06C140.91 41.11 139.79 45.62 138.92 49.05L138.9 49.12L138.88 49.05C138.03 45.62 136.88 41.11 136.88 41.06C136.833 40.8686 136.731 40.695 136.587 40.5601C136.443 40.4252 136.264 40.3349 136.07 40.3C135.903 40.2706 135.732 40.283 135.571 40.3361C135.411 40.3893 135.266 40.4815 135.15 40.6044C135.034 40.7274 134.951 40.8773 134.907 41.0406C134.863 41.2039 134.861 41.3755 134.9 41.54L137.91 53.57C137.967 53.7905 138.094 53.9862 138.273 54.1271C138.452 54.268 138.672 54.3463 138.9 54.35C139.39 54.35 139.78 54.03 139.88 53.57L141.88 45.58L141.91 45.51L141.93 45.58C142.81 49.05 143.93 53.58 143.93 53.58C143.989 53.7962 144.117 53.9876 144.293 54.1262C144.469 54.2647 144.685 54.3432 144.91 54.35C145.14 54.3572 145.366 54.2829 145.547 54.1403C145.728 53.9976 145.853 53.7957 145.9 53.57L148.9 41.54Z" fill="#333545"/>
</svg>
