<svg width="176" height="96" viewBox="0 0 176 96" fill="none" xmlns="http://www.w3.org/2000/svg">
<rect width="176" height="96" rx="20" fill="white"/>
<g clip-path="url(#clip0_1163_1619)">
<path fill-rule="evenodd" clip-rule="evenodd" d="M100.899 57.025C94.9136 61.5733 86.238 64 78.7684 64C68.2949 64 58.8661 60.0064 51.7328 53.3642C51.1724 52.8419 51.6745 52.13 52.347 52.5368C60.0453 57.1544 69.5638 59.9324 79.3961 59.9324C86.0273 59.9324 93.322 58.518 100.029 55.5829C101.043 55.1391 101.89 56.267 100.899 57.025Z" fill="#FF9900"/>
<path fill-rule="evenodd" clip-rule="evenodd" d="M103.388 54.0899C102.626 53.0822 98.3305 53.6138 96.4026 53.8495C95.8153 53.9235 95.7256 53.3966 96.2547 53.0175C99.6756 50.5354 105.289 51.2518 105.944 52.0838C106.598 52.9205 105.773 58.7214 102.558 61.4902C102.065 61.9154 101.595 61.6889 101.814 61.125C102.536 59.2668 104.155 55.1022 103.388 54.0899Z" fill="#FF9900"/>
<path fill-rule="evenodd" clip-rule="evenodd" d="M96.5367 35.4944V33.0816C96.5367 32.7164 96.8057 32.4714 97.1286 32.4714H107.607C107.943 32.4714 108.212 32.721 108.212 33.0816V35.1477C108.207 35.4944 107.925 35.9474 107.423 36.6638L101.993 44.6557C104.011 44.6049 106.14 44.9146 107.97 45.9777C108.382 46.2181 108.494 46.5694 108.526 46.916V49.4906C108.526 49.8419 108.149 50.2533 107.755 50.0407C104.531 48.2981 100.249 48.1086 96.6847 50.0592C96.3215 50.2626 95.9404 49.8558 95.9404 49.5045V47.0593C95.9404 46.6664 95.9449 45.9962 96.326 45.3999L102.616 36.0999H97.142C96.8057 36.0999 96.5367 35.8549 96.5367 35.4944Z" fill="black"/>
<path fill-rule="evenodd" clip-rule="evenodd" d="M58.3148 50.5491H55.127C54.8221 50.526 54.58 50.2903 54.5576 49.9898V33.1232C54.5576 32.7858 54.8311 32.5177 55.1719 32.5177H58.1444C58.4538 32.5315 58.7004 32.7765 58.7228 33.0816V35.2864H58.7811C59.5567 33.1555 61.0139 32.1617 62.9777 32.1617C64.9728 32.1617 66.2193 33.1555 67.116 35.2864C67.8871 33.1555 69.6402 32.1617 71.5188 32.1617C72.8549 32.1617 74.3165 32.7303 75.2087 34.006C76.2175 35.4251 76.0113 37.4866 76.0113 39.2939L76.0068 49.939C76.0068 50.2764 75.7333 50.5491 75.3926 50.5491H72.2093C71.8909 50.526 71.6354 50.2625 71.6354 49.939V40.9995C71.6354 40.2877 71.6981 38.5127 71.5457 37.8379C71.3081 36.7054 70.5952 36.3865 69.6716 36.3865C68.9004 36.3865 68.0934 36.9181 67.7661 37.7686C67.4388 38.6191 67.4702 40.0427 67.4702 40.9995V49.939C67.4702 50.2764 67.1967 50.5491 66.8559 50.5491H63.6726C63.3498 50.526 63.0987 50.2625 63.0987 49.939L63.0943 40.9995C63.0943 39.1183 63.3946 36.3495 61.1305 36.3495C58.8394 36.3495 58.9291 39.0489 58.9291 40.9995V49.939C58.9291 50.2764 58.6556 50.5491 58.3148 50.5491" fill="black"/>
<path fill-rule="evenodd" clip-rule="evenodd" d="M117.232 32.1617C121.962 32.1617 124.522 36.3495 124.522 41.6744C124.522 46.819 121.693 50.9004 117.232 50.9004C112.587 50.9004 110.059 46.7126 110.059 41.4941C110.059 36.2432 112.619 32.1617 117.232 32.1617ZM117.259 35.6053C114.91 35.6053 114.762 38.9056 114.762 40.9625C114.762 43.0241 114.73 47.4245 117.232 47.4245C119.703 47.4245 119.819 43.8746 119.819 41.7114C119.819 40.2877 119.761 38.5867 119.344 37.237C118.985 36.0629 118.272 35.6053 117.259 35.6053Z" fill="black"/>
<path fill-rule="evenodd" clip-rule="evenodd" d="M130.656 50.5491H127.482C127.163 50.526 126.908 50.2625 126.908 49.939L126.903 33.0677C126.93 32.758 127.195 32.5177 127.518 32.5177H130.472C130.75 32.5315 130.979 32.7257 131.042 32.9891V35.5684H131.1C131.992 33.2618 133.243 32.1617 135.444 32.1617C136.875 32.1617 138.269 32.6933 139.166 34.1493C140 35.499 140 37.7686 140 39.4002V50.0176C139.964 50.3134 139.699 50.5491 139.385 50.5491H136.189C135.897 50.526 135.655 50.3041 135.624 50.0176V40.8562C135.624 39.0119 135.83 36.3125 133.629 36.3125C132.853 36.3125 132.14 36.8487 131.786 37.6622C131.338 38.693 131.279 39.7192 131.279 40.8562V49.939C131.275 50.2764 130.997 50.5491 130.656 50.5491" fill="black"/>
<path fill-rule="evenodd" clip-rule="evenodd" d="M88.184 42.4926C88.184 43.7729 88.2154 44.8407 87.5877 45.9777C87.0811 46.9022 86.274 47.4707 85.3818 47.4707C84.1578 47.4707 83.4404 46.5093 83.4404 45.0903C83.4404 42.2892 85.875 41.7807 88.184 41.7807V42.4926ZM91.3987 50.5029C91.188 50.6971 90.8831 50.7109 90.6455 50.5815C89.5873 49.6756 89.3946 49.2549 88.8162 48.3906C87.0676 50.2302 85.8257 50.7803 83.5615 50.7803C80.8759 50.7803 78.791 49.0747 78.791 45.6588C78.791 42.9918 80.1899 41.1752 82.1895 40.2877C83.9202 39.5019 86.3368 39.3633 88.184 39.146V38.7208C88.184 37.9396 88.2423 37.0152 87.7939 36.3403C87.4084 35.7348 86.6641 35.4852 86.005 35.4852C84.79 35.4852 83.7094 36.1277 83.4449 37.4589C83.3911 37.7547 83.1804 38.0459 82.889 38.0598L79.7998 37.7177C79.5398 37.6577 79.2483 37.4404 79.3246 37.029C80.033 33.1648 83.4225 32 86.4534 32C88.0047 32 90.0312 32.4252 91.2552 33.6363C92.8065 35.1293 92.6586 37.1215 92.6586 39.2893V44.4108C92.6586 45.95 93.2773 46.6249 93.8601 47.4569C94.0619 47.7527 94.1067 48.1086 93.8467 48.3305C93.1966 48.8898 92.0398 49.9298 91.4032 50.5122L91.3987 50.5029" fill="black"/>
<path fill-rule="evenodd" clip-rule="evenodd" d="M46.393 42.4928C46.393 43.7732 46.4244 44.8409 45.7967 45.978C45.29 46.9024 44.4875 47.471 43.5908 47.471C42.3668 47.471 41.6539 46.5095 41.6539 45.0905C41.6539 42.2894 44.0884 41.781 46.393 41.781V42.4928ZM49.6077 50.5032C49.3969 50.6973 49.0921 50.7112 48.8544 50.5818C47.7963 49.6758 47.608 49.2552 47.0252 48.3908C45.2766 50.2305 44.0391 50.7805 41.7705 50.7805C39.0893 50.7805 37 49.0749 37 45.6591C37 42.992 38.4033 41.1755 40.3985 40.288C42.1291 39.5022 44.5458 39.3635 46.393 39.1463V38.721C46.393 37.9399 46.4513 37.0154 46.0074 36.3406C45.6173 35.735 44.8731 35.4854 44.2185 35.4854C43.0034 35.4854 41.9184 36.1279 41.6539 37.4591C41.6001 37.755 41.3894 38.0462 41.1024 38.06L38.0088 37.718C37.7487 37.6579 37.4618 37.4407 37.5335 37.0293C38.2464 33.1651 41.6315 32.0002 44.6623 32.0002C46.2136 32.0002 48.2402 32.4255 49.4642 33.6365C51.0155 35.1295 50.8675 37.1217 50.8675 39.2896V44.411C50.8675 45.9503 51.4863 46.6251 52.0691 47.4571C52.2754 47.7529 52.3202 48.1089 52.0602 48.3307C51.41 48.89 50.2533 49.93 49.6166 50.5124L49.6077 50.5032" fill="black"/>
</g>
<defs>
<clipPath id="clip0_1163_1619">
<rect width="103" height="32" fill="white" transform="translate(37 32)"/>
</clipPath>
</defs>
</svg>
