<svg width="176" height="96" viewBox="0 0 176 96" fill="none" xmlns="http://www.w3.org/2000/svg">
<rect width="176" height="96" rx="20" fill="white"/>
<g clip-path="url(#clip0_1163_1476)">
<path d="M98.8179 45.8557H101.877V56.57H98.8179V55.1772C97.7253 56.7843 96.3049 56.8914 95.4308 56.8914C92.0436 56.8914 89.8584 54.32 89.8584 51.2129C89.8584 47.9986 92.0436 45.5343 95.2122 45.5343C96.0863 45.5343 97.7253 45.6414 98.7086 47.2486V45.8557H98.8179ZM93.1363 51.2129C93.1363 52.9272 94.3381 54.2129 96.1956 54.2129C97.9438 54.2129 99.2549 52.9272 99.2549 51.2129C99.2549 49.4986 98.0531 48.2129 96.1956 48.2129C94.4474 48.2129 93.1363 49.4986 93.1363 51.2129Z" fill="black"/>
<path d="M107.886 48.4282V56.571H104.827V48.4282H103.625V45.8567H104.827V42.2139H107.886V45.8567H109.962V48.4282H107.886Z" fill="black"/>
<path d="M117.174 48.4272C116.409 47.7843 115.753 47.6772 115.426 47.6772C114.661 47.6772 114.224 47.9986 114.224 48.5343C114.224 48.8557 114.333 49.1772 115.207 49.4986L115.972 49.7129C116.846 50.0343 118.157 50.3557 118.703 51.2129C119.031 51.6414 119.25 52.2843 119.25 53.0343C119.25 53.9986 118.922 54.9629 118.048 55.7129C117.174 56.4629 116.081 56.8914 114.77 56.8914C112.476 56.8914 111.274 55.82 110.509 55.07L112.148 53.2486C112.803 53.8914 113.677 54.5343 114.551 54.5343C115.426 54.5343 116.081 54.1057 116.081 53.3557C116.081 52.7129 115.535 52.3914 115.098 52.2843L114.442 52.07C113.677 51.7486 112.803 51.4272 112.148 50.7843C111.601 50.2486 111.274 49.6057 111.274 48.7486C111.274 47.6772 111.82 46.82 112.366 46.2843C113.24 45.6414 114.333 45.5343 115.207 45.5343C115.972 45.5343 117.283 45.6414 118.703 46.7129L117.174 48.4272Z" fill="black"/>
<path d="M123.839 47.2499C124.931 45.7499 126.461 45.5356 127.335 45.5356C130.504 45.5356 132.689 47.9999 132.689 51.2141C132.689 54.4284 130.504 56.8927 127.226 56.8927C126.57 56.8927 124.931 56.7856 123.729 55.1784V56.5713H120.779V38.5713H123.839V47.2499ZM123.511 51.2141C123.511 52.9284 124.713 54.2141 126.57 54.2141C128.318 54.2141 129.63 52.9284 129.63 51.2141C129.63 49.4999 128.428 48.2141 126.57 48.2141C124.713 48.2141 123.511 49.4999 123.511 51.2141Z" fill="black"/>
<path d="M137.714 54.9636L132.47 45.8564H136.075L139.463 51.9636L142.522 45.8564H146.018L137.277 62.2493H133.781L137.714 54.9636Z" fill="black"/>
<path d="M89.0933 47.6767H86.0339H81.4449V50.6767H85.4876C84.8321 52.7125 83.3024 54.1053 80.4616 54.1053C77.293 54.1053 74.9985 51.5339 74.9985 48.4267C74.9985 45.3196 77.1837 42.641 80.3523 42.641C82.1005 42.641 83.8487 43.4982 84.9413 44.891L87.4543 43.2839C85.8154 41.0339 83.1931 39.7482 80.3523 39.7482C75.5448 39.7482 71.6113 43.6053 71.6113 48.4267C71.6113 53.2482 75.3262 57.1053 80.3523 57.1053C85.3784 57.1053 89.0933 53.2482 89.0933 48.4267C89.2025 48.1053 89.0933 47.891 89.0933 47.6767Z" fill="black"/>
<path d="M57.4062 47.9987H49.7578V50.1416H55.0024C54.2376 53.3559 51.8338 56.0344 48.6652 57.1059L36.1001 44.7844C37.4112 41.0344 41.1261 38.3559 45.3873 38.3559C48.6652 38.3559 51.6153 39.963 53.4727 42.4273L55.1117 41.0344C52.9264 38.1416 49.43 36.213 45.3873 36.213C39.7057 36.213 34.8982 40.1773 33.6963 45.4273L48.1189 59.5702C53.3635 58.2844 57.4062 53.5702 57.4062 47.9987Z" fill="white"/>
<path d="M33.3682 48.1074C33.3682 51.1074 34.57 54.0003 36.8646 56.2503C39.1591 58.5003 42.2184 59.6789 45.1685 59.6789L33.3682 48.1074Z" fill="white"/>
<path d="M45.3875 33C36.9743 33 30.0908 39.75 30.0908 48C30.0908 56.25 36.9743 63 45.3875 63C53.8007 63 60.6842 56.25 60.6842 48C60.6842 39.75 53.8007 33 45.3875 33ZM36.8651 56.3571C34.5706 54.1071 33.3687 51.1071 33.3687 48.2143L45.2783 59.7857C42.2189 59.6786 39.1596 58.6071 36.8651 56.3571ZM48.0098 59.4643L33.6965 45.4286C34.8984 40.1786 39.7059 36.2143 45.3875 36.2143C49.4302 36.2143 52.9266 38.1429 55.1119 41.0357L53.4729 42.4286C51.6155 39.9643 48.6654 38.3571 45.3875 38.3571C41.1263 38.3571 37.5206 41.0357 36.1002 44.7857L48.6654 57.1071C51.834 56.0357 54.2378 53.3571 55.0026 50.1429H49.758V48H57.4064C57.4064 53.5714 53.3637 58.2857 48.0098 59.4643Z" fill="#663399"/>
</g>
<defs>
<clipPath id="clip0_1163_1476">
<rect width="116" height="30" fill="white" transform="translate(30 33)"/>
</clipPath>
</defs>
</svg>
