<svg width="176" height="96" viewBox="0 0 176 96" fill="none" xmlns="http://www.w3.org/2000/svg">
<rect width="176" height="96" rx="20" fill="white"/>
<g clip-path="url(#clip0_1163_1593)">
<path d="M66.5261 54.6792C66.3645 54.2892 66.2131 53.8792 66.0515 53.5292L65.3042 51.8592L65.2739 51.8292C63.0524 47.0292 60.6793 42.1492 58.1649 37.3492L58.0639 37.1492C57.8115 36.6792 57.559 36.1592 57.2965 35.6792C56.9734 35.1092 56.6603 34.4992 56.1453 33.9192C55.6433 33.3123 55.0115 32.8234 54.2956 32.4877C53.5796 32.1519 52.7973 31.9778 52.0051 31.9778C51.2129 31.9778 50.4306 32.1519 49.7147 32.4877C48.9987 32.8234 48.3669 33.3123 47.8649 33.9192C47.3903 34.4992 47.0369 35.1092 46.7137 35.6792C46.4613 36.1992 46.2088 36.7092 45.9463 37.1792L45.8453 37.3792C43.3713 42.1792 40.9579 47.0592 38.7363 51.8592L38.6757 51.9192C38.4535 52.4392 38.191 52.9792 37.9385 53.5592C37.777 53.9092 37.6154 54.2892 37.4538 54.7092C37.0176 55.809 36.8783 57.0024 37.0497 58.1717C37.221 59.341 37.6971 60.446 38.431 61.3776C39.1648 62.3093 40.1312 63.0355 41.2348 63.4847C42.3384 63.9338 43.5411 64.0905 44.7244 63.9392C45.8589 63.7913 46.9513 63.4171 47.9356 62.8392C49.2484 62.1092 50.5106 61.0492 51.9243 59.5192C53.3381 61.0492 54.6306 62.1092 55.9131 62.8492C57.1463 63.5661 58.5429 63.9617 59.9725 63.9992C61.6279 64.006 63.2299 63.4195 64.4827 62.3479C65.7356 61.2764 66.5546 59.7921 66.7886 58.1692C67.0591 57.003 66.9676 55.7831 66.5261 54.6692V54.6792ZM52.0253 56.3392C50.2884 54.1392 49.1575 52.1192 48.7737 50.3892C48.6148 49.7481 48.5805 49.083 48.6728 48.4292C48.7434 47.9192 48.9353 47.4692 49.1979 47.0892C49.8037 46.2192 50.864 45.6792 52.0253 45.6792C52.5768 45.6625 53.1238 45.7817 53.6173 46.0261C54.1108 46.2704 54.5353 46.6323 54.8528 47.0792C55.1153 47.4792 55.3072 47.9192 55.3678 48.4292C55.4687 49.0092 55.4284 49.6792 55.2668 50.3892C54.8831 52.0892 53.7521 54.1292 52.0253 56.3392ZM64.8902 57.8192C64.7755 58.6432 64.4447 59.423 63.9309 60.0809C63.4171 60.7389 62.7382 61.252 61.9618 61.5692C61.1943 61.8892 60.3461 61.9792 59.5181 61.8892C58.7102 61.7892 57.9024 61.5292 57.0743 61.0492C55.6995 60.2077 54.4632 59.1622 53.4087 57.9492C55.5293 55.3492 56.8118 52.9792 57.2965 50.8692C57.5287 49.8692 57.559 48.9692 57.4581 48.1392C57.332 47.3525 57.0357 46.602 56.5896 45.9392C56.0803 45.2205 55.4004 44.6367 54.6098 44.2391C53.8192 43.8415 52.9421 43.6424 52.0556 43.6592C50.1875 43.6592 48.5213 44.5192 47.5115 45.9292C47.0569 46.5904 46.7631 47.3468 46.6532 48.1392C46.5219 48.9792 46.5522 49.9092 46.8147 50.8692C47.2994 52.9792 48.6122 55.3792 50.7025 57.9692C49.6659 59.2054 48.4267 60.2601 47.0369 61.0892C46.1987 61.5692 45.401 61.8192 44.5932 61.9192C43.3368 62.0786 42.0678 61.7404 41.0618 60.9783C40.0559 60.2162 39.3943 59.0917 39.221 57.8492C39.12 57.0492 39.1907 56.2492 39.5138 55.3492C39.6148 55.0292 39.7663 54.7092 39.9279 54.3292C40.15 53.8092 40.4126 53.2692 40.665 52.7292L40.7054 52.6592C42.8866 47.8892 45.2697 43.0192 47.7437 38.2492L47.8447 38.0492C48.0972 37.5692 48.3496 37.0592 48.6122 36.5792C48.8747 36.0692 49.1575 35.5792 49.521 35.1792C49.8357 34.8072 50.2289 34.5081 50.6729 34.3028C51.1169 34.0976 51.6009 33.9912 52.0909 33.9912C52.581 33.9912 53.065 34.0976 53.509 34.3028C53.953 34.5081 54.3462 34.8072 54.6609 35.1792C55.0143 35.5792 55.3072 36.0692 55.5697 36.5792C55.8222 37.0592 56.0746 37.5792 56.3372 38.0492L56.4382 38.2492C58.9021 43.0192 61.2852 47.8892 63.5068 52.6592L63.5371 52.6892C63.7996 53.2092 64.0218 53.7892 64.2742 54.2892C64.4358 54.6792 64.5974 54.9892 64.6984 55.3192C64.8902 56.2192 64.9912 57.0192 64.8902 57.8192ZM78.9467 56.1192C78.1858 56.1302 77.4321 55.9715 76.7416 55.6547C76.0511 55.3379 75.4415 54.8712 74.958 54.2892C73.8715 53.0492 73.2948 51.4503 73.3423 49.8092C73.3256 48.1324 73.9209 46.5061 75.0185 45.2292C75.5263 44.6398 76.1583 44.1678 76.8701 43.8465C77.582 43.5251 78.3563 43.3622 79.1385 43.3692C79.8746 43.3493 80.6037 43.515 81.2573 43.8509C81.9109 44.1868 82.4675 44.6817 82.8748 45.2892L82.9758 43.7192H85.9244V55.7992H82.9657L82.8647 54.0392C82.4448 54.6879 81.8644 55.2195 81.1787 55.5835C80.493 55.9476 79.7246 56.132 78.9467 56.1192ZM79.7141 53.2392C80.2998 53.2392 80.8148 53.0792 81.2995 52.7892C81.7438 52.4692 82.1074 52.0492 82.3901 51.5392C82.6426 51.0292 82.7738 50.4192 82.7738 49.7392C82.8132 49.1486 82.6971 48.558 82.4369 48.0251C82.1767 47.4923 81.7813 47.0354 81.2894 46.6992C80.8168 46.4076 80.271 46.253 79.7141 46.253C79.1572 46.253 78.6115 46.4076 78.1388 46.6992C77.6945 47.0192 77.331 47.4392 77.0483 47.9492C76.7812 48.5117 76.6498 49.1279 76.6645 49.7492C76.6252 50.3398 76.7412 50.9304 77.0014 51.4633C77.2616 51.9962 77.657 52.453 78.1489 52.7892C78.6235 53.0792 79.1385 53.2392 79.7141 53.2392ZM90.9734 40.4592C90.9734 40.8092 90.9129 41.1292 90.7513 41.3892C90.5897 41.6392 90.3676 41.8692 90.0747 42.0292C89.7819 42.1892 89.4688 42.2492 89.1457 42.2492C88.8226 42.2492 88.4994 42.1892 88.2066 42.0292C87.9296 41.8765 87.6967 41.6562 87.53 41.3892C87.3736 41.1043 87.2969 40.7833 87.3079 40.4592C87.3079 40.0992 87.3785 39.7792 87.53 39.5292C87.6916 39.2292 87.9238 39.0492 88.2066 38.8892C88.4994 38.7292 88.8125 38.6592 89.1457 38.6592C89.4671 38.6519 89.785 38.7273 90.0682 38.878C90.3514 39.0287 90.5902 39.2497 90.7614 39.5192C90.9083 39.8108 90.9811 40.1335 90.9734 40.4592ZM87.5401 55.7592V43.6992H90.7513V55.7792H87.53L87.5401 55.7592ZM99.3346 46.8592V46.8992C99.1832 46.8292 98.9812 46.7992 98.8297 46.7692C98.6278 46.7292 98.4662 46.7292 98.2743 46.7292C97.3756 46.7292 96.699 46.9892 96.2547 47.5292C95.77 48.0792 95.5479 48.8492 95.5479 49.8392V55.7692H92.3266V43.6892H95.2853L95.3863 45.5192C95.7094 44.8792 96.0932 44.3992 96.6384 44.0392C97.1808 43.6894 97.8194 43.5147 98.4662 43.5392C98.6984 43.5392 98.9206 43.5592 99.1125 43.5992C99.2134 43.6292 99.274 43.6292 99.3346 43.6592V46.8592ZM100.627 55.7592V38.7392H103.838V45.2392C104.293 44.6592 104.808 44.2092 105.454 43.8592C106.477 43.3624 107.639 43.2215 108.753 43.4592C109.867 43.6969 110.868 44.2993 111.594 45.1692C112.683 46.4118 113.259 48.0147 113.209 49.6592C113.226 51.336 112.631 52.9624 111.533 54.2392C111.025 54.8286 110.393 55.3006 109.681 55.6219C108.97 55.9433 108.195 56.1062 107.413 56.0992C106.677 56.1192 105.948 55.9534 105.294 55.6175C104.641 55.2817 104.084 54.7867 103.677 54.1792L103.576 55.7492L100.627 55.7792V55.7592ZM106.837 53.2392C107.413 53.2392 107.928 53.0792 108.413 52.7892C108.857 52.4692 109.221 52.0492 109.503 51.5392C109.766 51.0292 109.887 50.4192 109.887 49.7392C109.887 49.0692 109.766 48.4592 109.503 47.9492C109.238 47.4574 108.866 47.0304 108.413 46.6992C107.94 46.4076 107.394 46.253 106.837 46.253C106.281 46.253 105.735 46.4076 105.262 46.6992C104.808 47.0192 104.454 47.4392 104.161 47.9492C103.894 48.5117 103.763 49.1279 103.778 49.7492C103.738 50.3398 103.854 50.9304 104.115 51.4633C104.375 51.9962 104.77 52.453 105.262 52.7892C105.737 53.0792 106.252 53.2392 106.837 53.2392ZM114.421 55.7692V43.6892H117.38L117.481 45.2592C117.853 44.6574 118.38 44.1649 119.008 43.8326C119.637 43.5003 120.344 43.3403 121.056 43.3692C121.87 43.3553 122.67 43.5793 123.356 44.0133C124.042 44.4473 124.583 45.072 124.913 45.8092C125.266 46.5692 125.458 47.5092 125.458 48.5592V55.7992H122.237V48.9792C122.237 48.1392 122.045 47.4792 121.661 46.9892C121.278 46.5092 120.753 46.2492 120.086 46.2492C119.601 46.2492 119.177 46.3492 118.804 46.5692C118.45 46.7992 118.157 47.0892 117.935 47.4992C117.711 47.9137 117.599 48.379 117.612 48.8492V55.7692H114.421ZM127.064 55.7692V38.7292H130.285V45.2292C130.721 44.646 131.289 44.1715 131.943 43.8434C132.597 43.5153 133.319 43.3427 134.052 43.3392C134.813 43.3282 135.566 43.487 136.257 43.8038C136.947 44.1206 137.557 44.5872 138.04 45.1692C139.122 46.4117 139.694 48.0098 139.646 49.6492C139.664 51.3262 139.068 52.9528 137.97 54.2292C137.462 54.8186 136.83 55.2906 136.118 55.6119C135.406 55.9333 134.632 56.0962 133.85 56.0892C133.114 56.1092 132.385 55.9434 131.731 55.6075C131.077 55.2717 130.521 54.7767 130.113 54.1692L130.023 55.7392L127.064 55.7692ZM133.304 53.2392C133.89 53.2392 134.405 53.0792 134.88 52.7892C135.334 52.4692 135.688 52.0492 135.98 51.5392C136.233 51.0292 136.364 50.4192 136.364 49.7392C136.404 49.1486 136.287 48.558 136.027 48.0251C135.767 47.4923 135.372 47.0354 134.88 46.6992C134.407 46.4076 133.861 46.253 133.304 46.253C132.748 46.253 132.202 46.4076 131.729 46.6992C131.285 47.0192 130.921 47.4392 130.639 47.9492C130.357 48.5066 130.225 49.1265 130.255 49.7492C130.215 50.3398 130.332 50.9304 130.592 51.4633C130.852 51.9962 131.247 52.453 131.739 52.7892C132.214 53.0792 132.699 53.2392 133.304 53.2392Z" fill="#FF385C"/>
</g>
<defs>
<clipPath id="clip0_1163_1593">
<rect width="103" height="32" fill="white" transform="translate(37 32)"/>
</clipPath>
</defs>
</svg>
