<svg width="176" height="96" viewBox="0 0 176 96" fill="none" xmlns="http://www.w3.org/2000/svg">
<rect width="176" height="96" rx="20" fill="white"/>
<path d="M115.064 62.6399C123.042 62.6399 129.534 56.0431 129.534 47.9359C129.534 39.8239 123.042 33.2319 115.064 33.2319C107.084 33.2319 100.594 39.8239 100.594 47.9359C100.594 56.0431 107.084 62.6399 115.064 62.6399ZM115.064 42.6927C117.907 42.6927 120.223 45.0447 120.223 47.9343C120.223 50.8239 117.906 53.1727 115.062 53.1727C112.217 53.1727 109.905 50.8239 109.905 47.9327C109.905 45.0399 112.219 42.6895 115.062 42.6895L115.064 42.6927ZM60.4702 62.6399C68.4486 62.6399 74.9404 56.0431 74.9404 47.9359C74.9404 39.8239 68.4486 33.2319 60.4702 33.2319C52.4934 33.2319 46 39.8239 46 47.9359C46 56.0431 52.4934 62.6399 60.4702 62.6399ZM60.4702 42.6927C63.3151 42.6927 65.6291 45.0447 65.6291 47.9343C65.6291 50.8239 63.3151 53.1727 60.4702 53.1727C57.6269 53.1727 55.3145 50.8239 55.3145 47.9327C55.3145 45.0399 57.6285 42.6895 60.4702 42.6895V42.6927ZM87.7591 42.3615L83.3166 33.4239H72.9149L82.6303 52.9759V62.1807H92.8894V52.9759L102.605 33.4239H92.1984L87.7607 42.3615H87.7591Z" fill="#EE2E24"/>
</svg>
