<svg width="176" height="96" viewBox="0 0 176 96" fill="none" xmlns="http://www.w3.org/2000/svg">
<rect width="176" height="96" rx="20" fill="white"/>
<g clip-path="url(#clip0_1163_1498)">
<path d="M18.4553 47.21C18.4006 47.1408 18.3284 47.0865 18.2457 47.0522C18.163 47.0179 18.0725 47.0048 17.9831 47.0142C17.8936 47.0236 17.8081 47.0552 17.7349 47.1058C17.6618 47.1565 17.6034 47.2246 17.5653 47.3035L13.0559 56.0231C13.0148 56.1026 12.9954 56.1909 12.9996 56.2796C13.0037 56.3684 13.0312 56.4546 13.0795 56.5302C13.1278 56.6058 13.1953 56.6682 13.2755 56.7115C13.3557 56.7547 13.4461 56.7774 13.5379 56.7775H19.8171C19.9177 56.7797 20.0167 56.7537 20.1023 56.7025C20.1879 56.6514 20.2563 56.5773 20.2991 56.4893C21.6536 53.7824 20.8327 49.6666 18.4553 47.21Z" fill="url(#paint0_linear_1163_1498)"/>
<path d="M21.7627 39.2791C20.6391 40.9512 19.9843 42.877 19.8625 44.8677C19.7408 46.8584 20.1564 48.8454 21.0684 50.6339L24.0956 56.4893C24.1404 56.5759 24.2092 56.6487 24.2943 56.6996C24.3795 56.7505 24.4776 56.7775 24.5777 56.7775H30.8557C30.9475 56.7775 31.0379 56.7548 31.1181 56.7115C31.1983 56.6682 31.2658 56.6058 31.3141 56.5303C31.3624 56.4547 31.3899 56.3684 31.394 56.2797C31.3982 56.1909 31.3788 56.1026 31.3377 56.0231C31.3377 56.0231 22.8917 39.6845 22.6794 39.2758C22.6374 39.1927 22.5721 39.1226 22.4908 39.0737C22.4095 39.0248 22.3157 38.9991 22.22 38.9994C22.1243 38.9997 22.0306 39.0262 21.9497 39.0756C21.8688 39.1251 21.804 39.1956 21.7627 39.2791Z" fill="#2684FF"/>
<path d="M95.4001 46.2706C95.4001 48.4297 96.4358 50.144 100.487 50.9008C102.904 51.3915 103.41 51.7688 103.41 52.548C103.41 53.3048 102.903 53.7947 101.2 53.7947C99.1428 53.7589 97.1265 53.2313 95.3311 52.2587V55.7756C96.5511 56.3544 98.1621 56.9999 101.154 56.9999C105.39 56.9999 107.07 55.1734 107.07 52.4588L95.4001 46.2706ZM107.07 52.4588C107.07 49.8989 105.666 48.6966 101.707 47.8733C99.5202 47.4058 98.9909 46.9385 98.9909 46.2706C98.9909 45.4254 99.7734 45.0686 101.223 45.0686C102.973 45.0686 104.699 45.5805 106.333 46.2929V42.9315C104.766 42.2417 103.06 41.8995 101.338 41.9298C97.4255 41.9298 95.4001 43.577 95.4001 46.2706" fill="#0052CC"/>
<path d="M149.811 42.1523V56.7775H153.033V45.625L154.391 48.5855L158.948 56.7775H162.999V42.1523H159.777V51.5909L158.557 48.8526L154.897 42.1523H149.811Z" fill="#0052CC"/>
<path d="M129.316 42.1523H125.794V56.7775H129.316V42.1523Z" fill="#0052CC"/>
<path d="M121.73 52.4588C121.73 49.8989 120.326 48.6966 116.367 47.8733C114.18 47.4058 113.651 46.9385 113.651 46.2706C113.651 45.4254 114.434 45.0686 115.884 45.0686C117.633 45.0686 119.359 45.5805 120.993 46.2929V42.9315C119.427 42.2417 117.72 41.8995 115.999 41.9298C112.086 41.9298 110.06 43.577 110.06 46.2706C110.06 48.4297 111.096 50.144 115.147 50.9008C117.564 51.3915 118.07 51.7688 118.07 52.548C118.07 53.3048 117.563 53.7947 115.86 53.7947C113.803 53.7589 111.787 53.2313 109.991 52.2587V55.7756C111.211 56.3544 112.822 56.9999 115.815 56.9999C120.05 56.9999 121.73 55.1734 121.73 52.4588Z" fill="#0052CC"/>
<path d="M68.043 42.1523V56.7775H75.2814L76.4211 53.6165H71.5875V42.1523H68.043Z" fill="#0052CC"/>
<path d="M53.7422 42.1523V45.3131H57.6551V56.7775H61.1996V45.3131H65.3888V42.1523H53.7422Z" fill="#0052CC"/>
<path d="M48.6022 42.1523H43.9569L38.6836 56.7775H42.7107L43.4583 54.3144C45.2994 54.8372 47.2572 54.8372 49.0984 54.3144L49.846 56.7775H53.8739L48.6022 42.1523ZM46.2795 51.677C45.6235 51.677 44.9708 51.5862 44.3414 51.4074L46.2795 45.025L48.2175 51.4096C47.5879 51.5876 46.9353 51.6777 46.2795 51.677Z" fill="#0052CC"/>
<path d="M87.7602 42.1523H83.1151L77.8418 56.7775H81.8698L82.6173 54.3144C84.4585 54.8372 86.4163 54.8372 88.2574 54.3144L89.005 56.7775H93.0329L87.7602 42.1523ZM85.4377 51.677C84.7817 51.677 84.1291 51.5862 83.4996 51.4074L85.4377 45.025L87.3757 51.4096C86.7461 51.5876 86.0935 51.6777 85.4377 51.677Z" fill="#0052CC"/>
<path d="M142.005 42.1523H137.36L132.087 56.7775H136.115L136.862 54.3144C138.704 54.8372 140.661 54.8372 142.503 54.3144L143.25 56.7775H147.278L142.005 42.1523ZM139.681 51.677C139.025 51.677 138.373 51.5862 137.743 51.4074L139.681 45.025L141.619 51.4096C140.99 51.5876 140.337 51.6777 139.681 51.677Z" fill="#0052CC"/>
</g>
<defs>
<linearGradient id="paint0_linear_1163_1498" x1="20.9266" y1="48.5557" x2="16.4023" y2="56.6585" gradientUnits="userSpaceOnUse">
<stop stop-color="#0052CC"/>
<stop offset="0.923" stop-color="#2684FF"/>
</linearGradient>
<clipPath id="clip0_1163_1498">
<rect width="150" height="18" fill="white" transform="translate(13 39)"/>
</clipPath>
</defs>
</svg>
