<svg width="176" height="96" viewBox="0 0 176 96" fill="none" xmlns="http://www.w3.org/2000/svg">
<rect width="176" height="96" rx="20" fill="white"/>
<g clip-path="url(#clip0_1162_1138)">
<path fill-rule="evenodd" clip-rule="evenodd" d="M125.376 46.8409L119.139 57.6752L113.818 57.6965L125.376 37.3039L136.892 57.6965H131.486L125.376 46.8398V46.8409ZM108.582 52.98H114.542L111.774 57.6965H104.006L104.027 51.9537V37.4293H108.604L108.583 52.98H108.582ZM92.2355 37.4303C97.9185 37.4516 102.516 41.9778 102.495 47.573C102.474 53.1479 97.8763 57.6752 92.1923 57.6752C86.5304 57.654 81.9329 53.1277 81.9329 47.5315C81.954 41.9566 86.5515 37.4303 92.2355 37.4303ZM92.2145 52.9598C95.2577 52.9598 97.7046 50.549 97.7046 47.573C97.7267 44.598 95.2577 42.1659 92.2355 42.1659C89.2123 42.1447 86.7433 44.5767 86.7433 47.5528C86.7222 50.5278 89.1912 52.9598 92.2134 52.9598H92.2145ZM73.4617 45.9633C73.3984 45.1239 73.1845 44.0136 72.8652 42.9458C72.2082 40.7402 71.066 38.7125 69.5238 37.0138C68.7145 36.1341 67.7998 35.316 66.4362 34.3523C65.3968 33.8351 64.3748 33.283 63.3719 32.6969C62.7122 32.3197 61.924 31.8575 60.8818 31.5228C59.6461 31.2287 58.383 31.0674 57.1136 31.0415C55.8807 30.999 54.6446 31.1053 53.4528 31.3348C52.1967 31.5441 51.1535 31.8788 49.7699 32.2145C46.6402 33.5767 44.2145 35.6305 42.128 38.3558C34.8486 48.6036 41.4262 62.9601 53.5803 64.6569C55.5814 64.93 57.5825 64.8248 59.4761 64.3849L60.8176 64.029C60.8597 64.0077 60.924 63.9865 60.9662 63.9865L62.4994 63.4C62.5837 63.3575 62.648 63.3362 62.7333 63.2948L63.3719 63.0015C64.5971 62.3918 65.7473 61.6394 66.7987 60.7597C65.8416 61.6365 64.8007 62.4156 63.6912 63.0855L63.7544 63.128C63.9683 63.0642 64.1591 63.0015 64.3719 62.9601C64.3719 62.9601 64.3719 63.2948 64.3298 63.2321C63.9894 63.4839 64.5215 63.2533 65.2023 62.8963C65.8841 62.5404 66.5437 62.0995 67.1391 61.5969C68.0127 60.8638 68.7788 60.0669 69.8641 58.7685C70.9706 56.8188 72.3552 55.121 72.9938 52.8366C73.2067 52.2288 73.3974 51.517 73.526 50.7828C73.6524 50.0497 73.7388 49.2953 73.7388 48.5197C73.7177 47.744 73.6324 46.9472 73.4617 45.9633ZM57.71 63.1907C61.4351 62.6031 64.5637 60.5291 67.118 57.6997C67.8209 56.6722 68.3741 55.7287 69.0548 54.7023C69.9063 52.606 69.8431 50.7413 70.1191 49.4217C70.4606 47.0311 69.6513 45.1037 68.9705 43.0499C67.9273 40.6603 66.5437 38.8796 64.1169 37.4962C57.9861 33.6818 49.6424 34.7497 45.6623 40.451C45.6413 40.451 45.5338 40.5977 45.3209 40.8909C45.5981 39.7179 46.3009 39.0262 47.0027 38.3547C49.0892 36.6367 51.516 35.2735 54.2832 34.6041C57.4129 34.2683 60.5194 34.6041 63.3076 35.9662C67.4805 38.3547 70.2477 42.1075 70.9495 46.5487V50.6574C70.077 57.3852 64.3298 62.499 57.71 63.1907ZM73.0149 47.8907C72.8652 38.0413 63.138 31.3975 53.6657 32.7394C50.8985 33.43 47.8752 34.8134 45.7256 36.7418C44.6823 37.4325 44.1934 38.7117 43.1502 39.7381C38.9773 45.8793 39.7023 53.7387 44.8952 58.5178C45.5613 59.1818 46.2726 59.7981 47.0238 60.3623C42.6823 57.7411 40.7234 53.779 40.0426 48.9606C40.0426 47.2415 40.383 45.5436 40.7444 43.8255C43.1723 36.3009 50.8131 30.8312 59.1368 32.2145C60.5204 32.5503 61.904 32.9062 63.3097 33.242C65.0548 33.9326 66.7787 34.96 68.1623 36.3232C69.5459 37.6843 70.5891 39.4034 71.6323 41.1002C72.3341 42.4634 72.6756 44.1815 73.0159 45.5436C73.0792 46.3192 73.0792 47.1161 73.0159 47.8917L73.0149 47.8907Z" fill="black"/>
<path fill-rule="evenodd" clip-rule="evenodd" d="M64.3729 48.0382C64.3729 52.2723 60.8396 55.7095 56.476 55.7095C52.1134 55.7095 48.5791 52.2723 48.5791 48.0382C48.5791 43.8052 52.1124 40.368 56.476 40.368C60.8396 40.368 64.3729 43.8052 64.3729 48.0393V48.0382Z" fill="white"/>
<path fill-rule="evenodd" clip-rule="evenodd" d="M64.416 46.7389C64.3095 46.1524 64.1388 45.6912 63.9692 45.0421C63.2874 43.6162 62.2874 42.5059 60.967 41.5624C56.0291 38.2729 49.2386 41.437 48.5157 47.0544C48.2396 49.2761 49.0268 51.4139 50.4315 53.0491C50.0057 52.6081 49.5379 52.1481 49.2186 51.6232L49.1764 51.6657C49.2186 51.7911 49.3893 51.875 49.4314 52.0004C49.4314 52.0004 49.2607 52.0004 49.3039 51.9791C49.1764 51.8336 49.2829 52.0641 49.4736 52.3776C49.6443 52.6921 49.8572 52.9864 50.1122 53.2584C50.4747 53.6568 50.8572 54.0127 51.4958 54.4951C52.4336 54.9764 53.2629 55.6054 54.3483 55.8987C54.6465 55.9837 54.9869 56.0666 55.3283 56.1292C55.6897 56.193 56.0301 56.2142 56.4137 56.2142C56.7751 56.2142 57.1587 56.1717 57.6266 56.0867C58.109 56.0294 58.5859 55.9317 59.0523 55.7946C60.094 55.4784 61.0537 54.9342 61.8627 54.2008C62.2673 53.8247 62.8427 53.3423 63.2884 52.7133C63.6509 52.0014 63.6931 51.6444 63.8638 51.3299C64.0334 51.0154 64.2463 50.6595 64.3959 50.1771C64.5179 49.6049 64.5891 49.0228 64.6088 48.4378C64.5877 47.8513 64.5456 47.285 64.417 46.7399L64.416 46.7389ZM59.3495 42.8416C60.0734 43.2602 60.1798 43.3229 59.7963 43.0509C60.3505 43.1763 60.6909 43.4908 61.0313 43.8053C61.8616 44.7488 62.5424 45.8591 62.8827 47.1373C63.0745 48.5834 62.9249 50.0294 62.3084 51.3087C61.202 53.2573 59.4348 54.5567 57.3273 54.9127C57.0934 54.9127 56.8383 54.9127 56.6034 54.9339C57.1998 54.8287 57.5834 54.4516 58.6687 54.0531C59.8384 53.6345 61.1588 51.6859 61.7984 50.5532C63.6709 47.472 61.457 44.6224 59.3495 42.8416ZM55.3483 54.9541C52.1133 54.6194 49.6222 51.9579 49.2818 48.8766C49.579 50.5957 50.6011 51.9154 51.9847 53.0894C52.4747 53.4039 53.1976 53.8438 53.6876 54.1583C54.518 54.4728 55.0069 54.8086 55.8162 54.9552H55.3483V54.9541ZM64.0535 49.359C63.9059 50.0092 63.7563 50.6372 63.6067 51.2874C63.2874 52.0843 62.8195 52.9014 62.1809 53.5506C61.5423 54.2008 60.7331 54.7034 59.9248 55.1857C59.2862 55.5204 58.4769 55.6883 57.8173 55.8551C57.4337 55.8976 56.9869 55.7297 56.6034 55.7096C61.3295 55.5831 64.5645 51.1621 63.8627 46.7814C63.5213 45.5032 62.8406 44.3918 62.0102 43.2815C61.6699 42.7991 61.0091 42.5059 60.5202 42.0235C57.5612 40.1588 53.6454 40.536 51.4104 42.9882C51.097 43.3105 50.8052 43.6534 50.5368 44.0146C51.7297 42.2541 53.6454 41.0184 55.9437 40.6614C56.753 40.6401 57.5834 40.7878 58.3916 40.9344C61.9681 42.0235 64.6288 45.5032 64.0535 49.3601V49.359Z" fill="#D7DF23"/>
</g>
<defs>
<clipPath id="clip0_1162_1138">
<rect width="98" height="34" fill="white" transform="translate(39 31)"/>
</clipPath>
</defs>
</svg>
