<svg width="161" height="352" viewBox="0 0 161 352" fill="none" xmlns="http://www.w3.org/2000/svg">
<path d="M126.185 4.25746C127.823 6.46464 127.361 9.5814 125.154 11.219L6.21515 99.4621L0.28506 91.4692L119.224 3.22606C121.431 1.58851 124.548 2.05028 126.185 4.25746V4.25746Z" fill="url(#paint0_linear_1415_1889)"/>
<path d="M84.8201 193.084C86.4577 195.291 85.9959 198.408 83.7887 200.045L14.701 251.303L8.77091 243.31L77.8586 192.052C80.0658 190.415 83.1826 190.876 84.8201 193.084V193.084Z" fill="url(#paint1_linear_1415_1889)"/>
<path d="M164.82 293.084C166.458 295.291 165.996 298.408 163.789 300.045L94.701 351.303L88.7709 343.31L157.859 292.052C160.066 290.415 163.183 290.876 164.82 293.084V293.084Z" fill="url(#paint2_linear_1415_1889)"/>
<path d="M158.174 100.334C159.811 102.541 159.349 105.658 157.142 107.295L88.0545 158.553L82.1244 150.56L151.212 99.3022C153.419 97.6647 156.536 98.1265 158.174 100.334V100.334Z" fill="url(#paint3_linear_1415_1889)"/>
<defs>
<linearGradient id="paint0_linear_1415_1889" x1="129.358" y1="8.54795" x2="-1.00452" y2="101.563" gradientUnits="userSpaceOnUse">
<stop stop-color="#E2E9F2" stop-opacity="0.69"/>
<stop offset="0.875" stop-color="#B4C9E8" stop-opacity="0.08625"/>
<stop offset="1" stop-color="#D9D9D9" stop-opacity="0"/>
</linearGradient>
<linearGradient id="paint1_linear_1415_1889" x1="87.9954" y1="197.372" x2="10.9059" y2="253.257" gradientUnits="userSpaceOnUse">
<stop stop-color="#E2E9F2" stop-opacity="0.69"/>
<stop offset="0.875" stop-color="#B4C9E8" stop-opacity="0.08625"/>
<stop offset="1" stop-color="#D9D9D9" stop-opacity="0"/>
</linearGradient>
<linearGradient id="paint2_linear_1415_1889" x1="167.995" y1="297.372" x2="90.9059" y2="353.257" gradientUnits="userSpaceOnUse">
<stop stop-color="#E2E9F2" stop-opacity="0.69"/>
<stop offset="0.875" stop-color="#B4C9E8" stop-opacity="0.08625"/>
<stop offset="1" stop-color="#D9D9D9" stop-opacity="0"/>
</linearGradient>
<linearGradient id="paint3_linear_1415_1889" x1="161.349" y1="104.622" x2="84.2595" y2="160.507" gradientUnits="userSpaceOnUse">
<stop stop-color="#E2E9F2" stop-opacity="0.69"/>
<stop offset="0.875" stop-color="#B4C9E8" stop-opacity="0.08625"/>
<stop offset="1" stop-color="#D9D9D9" stop-opacity="0"/>
</linearGradient>
</defs>
</svg>
