<svg width="202" height="81" viewBox="0 0 202 81" fill="none" xmlns="http://www.w3.org/2000/svg">
<mask id="mask0_1181_7923" style="mask-type:alpha" maskUnits="userSpaceOnUse" x="0" y="20" width="64" height="61">
<path d="M0 20.4111L63.086 59.376L63.7045 80.4047L0 79.1677V20.4111Z" fill="#D9D9D9"/>
</mask>
<g mask="url(#mask0_1181_7923)">
<path d="M31.7029 79.1679L0.0211213 59.8154L-0.138893 20.8508L31.3829 1.23881L63.0647 20.5913L63.2247 59.5558L31.7029 79.1679Z" fill="url(#paint0_linear_1181_7923)"/>
</g>
<mask id="mask1_1181_7923" style="mask-type:alpha" maskUnits="userSpaceOnUse" x="0" y="0" width="66" height="62">
<path d="M0 0H63.086L65.5599 61.2305L0 20.4102V0Z" fill="#D9D9D9"/>
</mask>
<g mask="url(#mask1_1181_7923)">
<path d="M31.5435 1.2373L63.1455 20.7197V59.6846L31.5435 79.167L-0.0585938 59.6846L-0.0585201 20.7197L31.5435 1.2373Z" fill="#0274B0"/>
</g>
<g filter="url(#filter0_d_1181_7923)">
<mask id="mask2_1181_7923" style="mask-type:alpha" maskUnits="userSpaceOnUse" x="6" y="19" width="53" height="37">
<path d="M6.75781 24.7578L9.74703 19.9483L58.911 50.5048L55.9218 55.3143L6.75781 24.7578Z" fill="#0095CD"/>
</mask>
<g mask="url(#mask2_1181_7923)">
<path d="M6.75781 24.7578L32.9965 -17.4591L82.1605 13.0973L55.9218 55.3143L6.75781 24.7578Z" fill="white"/>
<path d="M34.2715 38.8955L36.5964 35.1548L59.5753 49.4366L57.2503 53.1773L34.2715 38.8955Z" fill="white"/>
</g>
<mask id="mask3_1181_7923" style="mask-type:alpha" maskUnits="userSpaceOnUse" x="9" y="12" width="30" height="25">
<path d="M35.7666 36.4893C37.9248 33.0169 38.6151 28.8295 37.6858 24.8481C36.7565 20.8667 34.2837 17.4175 30.8113 15.2594C27.339 13.1012 23.1515 12.4109 19.1701 13.3402C15.1887 14.2695 11.7396 16.7423 9.58143 20.2147L22.674 28.352L35.7666 36.4893Z" fill="#FFA500"/>
<path d="M38.5474 30.6296C39.06 27.9803 38.6424 25.1166 37.3511 22.4268C36.0599 19.7371 33.9576 17.3514 31.3294 15.5935C28.7012 13.8356 25.6743 12.7905 22.6592 12.5999C19.6441 12.4094 16.7868 13.0826 14.4748 14.5283L24.0032 26.2148L38.5474 30.6296Z" fill="#FFA500"/>
</mask>
<g mask="url(#mask3_1181_7923)">
<path fill-rule="evenodd" clip-rule="evenodd" d="M32.9965 -17.4591L6.75781 24.7578L55.9218 55.3143L58.911 50.5048L58.9114 50.505L89.4678 1.34099L47.2509 -24.8977L39.944 -13.1411L32.9965 -17.4591Z" fill="white"/>
</g>
</g>
<path d="M189.832 54.7619C189.406 54.7619 189.032 54.7299 188.712 54.6659C188.392 54.6019 188.083 54.5273 187.784 54.4419L188.456 51.5619C188.606 51.6046 188.776 51.6473 188.968 51.6899C189.182 51.7539 189.384 51.7859 189.576 51.7859C190.408 51.7859 191.07 51.5299 191.56 51.0179C192.072 50.5273 192.456 49.8873 192.712 49.0979L193 48.1059L186.824 32.5859H190.568L193.288 40.2979C193.523 40.9806 193.747 41.7059 193.96 42.4739C194.195 43.2206 194.43 43.9673 194.664 44.7139H194.792C194.984 43.9886 195.176 43.2526 195.368 42.5059C195.582 41.7379 195.784 41.0019 195.976 40.2979L198.344 32.5859H201.896L196.2 49.0019C195.539 50.7726 194.739 52.1699 193.8 53.1939C192.862 54.2393 191.539 54.7619 189.832 54.7619Z" fill="#333333"/>
<path d="M176.083 48.6812C174.718 48.6812 173.598 48.2545 172.723 47.4012C171.87 46.5478 171.443 45.4385 171.443 44.0732C171.443 42.3878 172.179 41.0865 173.651 40.1692C175.123 39.2305 177.47 38.5905 180.691 38.2492C180.67 37.4172 180.446 36.7025 180.019 36.1052C179.614 35.4865 178.878 35.1772 177.811 35.1772C177.043 35.1772 176.286 35.3265 175.539 35.6252C174.814 35.9238 174.099 36.2865 173.395 36.7132L172.051 34.2492C172.926 33.6945 173.907 33.2145 174.995 32.8092C176.105 32.4038 177.278 32.2012 178.515 32.2012C180.478 32.2012 181.939 32.7878 182.899 33.9612C183.881 35.1132 184.371 36.7878 184.371 38.9852V48.2972H181.331L181.075 46.5692H180.947C180.243 47.1665 179.486 47.6678 178.675 48.0732C177.886 48.4785 177.022 48.6812 176.083 48.6812ZM177.267 45.8012C177.907 45.8012 178.483 45.6518 178.995 45.3532C179.529 45.0332 180.094 44.6065 180.691 44.0732V40.5532C178.558 40.8305 177.075 41.2465 176.243 41.8012C175.411 42.3345 174.995 42.9958 174.995 43.7852C174.995 44.4892 175.209 45.0012 175.635 45.3212C176.062 45.6412 176.606 45.8012 177.267 45.8012Z" fill="#333333"/>
<path d="M155.189 48.2971V27.3691H161.781C163.339 27.3691 164.725 27.5718 165.941 27.9771C167.157 28.3825 168.117 29.0545 168.821 29.9931C169.525 30.9318 169.877 32.2118 169.877 33.8331C169.877 35.3691 169.525 36.6385 168.821 37.6411C168.117 38.6438 167.168 39.3905 165.973 39.8811C164.779 40.3718 163.424 40.6171 161.909 40.6171H158.901V48.2971H155.189ZM158.901 37.6411H161.621C164.693 37.6411 166.229 36.3718 166.229 33.8331C166.229 32.5105 165.824 31.6038 165.013 31.1131C164.224 30.6011 163.051 30.3451 161.493 30.3451H158.901V37.6411Z" fill="#333333"/>
<path d="M138.15 48.2981V25.7061H141.766V39.8181H141.862L147.686 32.5861H151.718L146.342 38.9861L152.262 48.2981H148.262L144.23 41.4821L141.766 44.2981V48.2981H138.15Z" fill="#333333"/>
<path d="M129.93 48.6812C128.5 48.6812 127.21 48.3612 126.058 47.7212C124.927 47.0598 124.02 46.1212 123.338 44.9052C122.676 43.6678 122.346 42.1852 122.346 40.4572C122.346 38.7078 122.708 37.2252 123.434 36.0092C124.159 34.7718 125.119 33.8332 126.314 33.1932C127.53 32.5318 128.831 32.2012 130.218 32.2012C131.22 32.2012 132.095 32.3718 132.842 32.7132C133.588 33.0545 134.25 33.4705 134.826 33.9612L133.034 36.3612C132.628 35.9985 132.212 35.7212 131.786 35.5292C131.359 35.3158 130.9 35.2092 130.41 35.2092C129.151 35.2092 128.116 35.6892 127.306 36.6492C126.516 37.6092 126.122 38.8785 126.122 40.4572C126.122 42.0145 126.506 43.2732 127.274 44.2332C128.063 45.1932 129.076 45.6732 130.314 45.6732C130.932 45.6732 131.508 45.5452 132.042 45.2892C132.596 45.0118 133.098 44.6918 133.546 44.3292L135.05 46.7612C134.324 47.4012 133.514 47.8812 132.618 48.2012C131.722 48.5212 130.826 48.6812 129.93 48.6812Z" fill="#333333"/>
<path d="M114.995 48.2976V32.5856H118.675V48.2976H114.995ZM116.851 29.8336C116.189 29.8336 115.656 29.6416 115.251 29.2576C114.845 28.8736 114.643 28.3616 114.643 27.7216C114.643 27.1029 114.845 26.6016 115.251 26.2176C115.656 25.8336 116.189 25.6416 116.851 25.6416C117.512 25.6416 118.045 25.8336 118.451 26.2176C118.856 26.6016 119.059 27.1029 119.059 27.7216C119.059 28.3616 118.856 28.8736 118.451 29.2576C118.045 29.6416 117.512 29.8336 116.851 29.8336Z" fill="#333333"/>
<path d="M101.885 48.6819C100.199 48.6819 98.9727 48.1379 98.2047 47.0499C97.4367 45.9619 97.0527 44.4259 97.0527 42.4419V32.5859H100.733V41.9619C100.733 43.2633 100.925 44.1806 101.309 44.7139C101.693 45.2473 102.311 45.5139 103.165 45.5139C103.847 45.5139 104.445 45.3433 104.957 45.0019C105.49 44.6606 106.055 44.1059 106.653 43.3379V32.5859H110.333V48.2979H107.325L107.037 45.9939H106.941C106.258 46.8046 105.511 47.4553 104.701 47.9459C103.89 48.4366 102.951 48.6819 101.885 48.6819Z" fill="#333333"/>
<path d="M84.0988 45.6414C85.7415 45.6414 87.0535 44.9374 88.0348 43.5294C89.0161 42.1214 89.5068 40.1907 89.5068 37.7374C89.5068 35.3907 89.0161 33.556 88.0348 32.2334C87.0535 30.8894 85.7415 30.2174 84.0988 30.2174C82.4561 30.2174 81.1441 30.8894 80.1628 32.2334C79.1815 33.556 78.6908 35.3907 78.6908 37.7374C78.6908 40.1907 79.1815 42.1214 80.1628 43.5294C81.1441 44.9374 82.4561 45.6414 84.0988 45.6414ZM90.7548 53.8654C88.6855 53.8654 86.9361 53.364 85.5068 52.3614C84.0988 51.3587 83.0535 50.0787 82.3708 48.5214C80.8775 48.244 79.5655 47.6467 78.4348 46.7294C77.3041 45.7907 76.4295 44.564 75.8108 43.0494C75.1921 41.5134 74.8828 39.7427 74.8828 37.7374C74.8828 35.476 75.2668 33.5454 76.0348 31.9454C76.8241 30.3454 77.9121 29.1187 79.2988 28.2654C80.6855 27.412 82.2855 26.9854 84.0988 26.9854C85.9335 26.9854 87.5441 27.412 88.9308 28.2654C90.3175 29.1187 91.3948 30.3454 92.1628 31.9454C92.9521 33.5454 93.3468 35.476 93.3468 37.7374C93.3468 40.6387 92.7068 43.028 91.4268 44.9054C90.1468 46.7614 88.4401 47.9347 86.3068 48.4254C86.7975 49.2574 87.4801 49.8654 88.3548 50.2494C89.2295 50.6334 90.1681 50.8254 91.1708 50.8254C91.6401 50.8254 92.0561 50.7934 92.4188 50.7294C92.8028 50.6654 93.1441 50.5907 93.4428 50.5054L94.1148 53.2574C93.7735 53.4067 93.3041 53.5454 92.7068 53.6734C92.1308 53.8014 91.4801 53.8654 90.7548 53.8654Z" fill="#333333"/>
<defs>
<filter id="filter0_d_1181_7923" x="1.24485" y="12.5684" width="63.1783" height="53.772" filterUnits="userSpaceOnUse" color-interpolation-filters="sRGB">
<feFlood flood-opacity="0" result="BackgroundImageFix"/>
<feColorMatrix in="SourceAlpha" type="matrix" values="0 0 0 0 0 0 0 0 0 0 0 0 0 0 0 0 0 0 127 0" result="hardAlpha"/>
<feOffset dy="5.51296"/>
<feGaussianBlur stdDeviation="2.75648"/>
<feComposite in2="hardAlpha" operator="out"/>
<feColorMatrix type="matrix" values="0 0 0 0 0 0 0 0 0 0.513726 0 0 0 0 0.780392 0 0 0 0.25 0"/>
<feBlend mode="normal" in2="BackgroundImageFix" result="effect1_dropShadow_1181_7923"/>
<feBlend mode="normal" in="SourceGraphic" in2="effect1_dropShadow_1181_7923" result="shape"/>
</filter>
<linearGradient id="paint0_linear_1181_7923" x1="31.7029" y1="79.1679" x2="31.3829" y2="1.23881" gradientUnits="userSpaceOnUse">
<stop stop-color="#0C9CE7"/>
<stop offset="1" stop-color="#0083C7" stop-opacity="0.2"/>
</linearGradient>
</defs>
</svg>
