<svg width="108" height="139" viewBox="0 0 108 139" fill="none" xmlns="http://www.w3.org/2000/svg">
<circle cx="54" cy="54" r="54" fill="white"/>
<g clip-path="url(#clip0_1132_4573)">
<g clip-path="url(#clip1_1132_4573)">
<path d="M77.6401 41.5799L75.8101 37.6499C75.5829 37.1669 75.2523 36.7397 74.8417 36.3985C74.4311 36.0574 73.9506 35.8107 73.4341 35.6759C67.6201 34.0919 60.9511 33.1229 54.0751 33.0029C47.2983 33.1081 40.5603 34.0492 34.0141 35.8049C33.5191 35.9489 32.6551 36.6749 32.1991 37.6319L30.3601 41.5829C30.124 42.0691 30.0009 42.6024 30.0001 43.1429V45.7529L29.9971 45.8759C29.9971 47.0519 30.9511 48.0059 32.1271 48.0059L32.2261 48.0029H39.7801C40.3754 47.9888 40.9415 47.7424 41.3575 47.3163C41.7734 46.8903 42.0062 46.3184 42.0061 45.7229L42.0001 45.5639V43.0139C42.0003 42.6879 42.0822 42.3672 42.2384 42.081C42.3946 41.7949 42.62 41.5525 42.8941 41.3759C46.3226 39.5549 50.1934 38.7327 54.0661 39.0029C57.9303 38.7422 61.791 39.5607 65.2171 41.3669C65.6461 41.6639 66.0031 42.2669 66.0031 42.9539V45.5699C65.9828 45.8765 66.0246 46.184 66.1261 46.474C66.2276 46.7639 66.3867 47.0304 66.5938 47.2574C66.8008 47.4843 67.0516 47.6671 67.3311 47.7947C67.6106 47.9223 67.9129 47.9921 68.2201 47.9999H75.7831L75.8761 48.0029C76.441 48.0029 76.9828 47.7785 77.3822 47.3791C77.7817 46.9796 78.0061 46.4378 78.0061 45.8729L78.0031 45.7439V43.1399C78.0012 42.5918 77.8751 42.0512 77.6341 41.5589L77.6401 41.5799Z" fill="#D40000"/>
<path d="M66 54.9C64.0476 52.398 62.9902 49.3137 62.997 46.14L63 45.888V45H60V48H48V45H45V45.99L45.003 46.23C45.0073 49.4164 43.9413 52.5119 41.976 55.02L33 66V75H75V66L66 54.9ZM54 69C51.6131 69 49.3239 68.0518 47.636 66.364C45.9482 64.6761 45 62.3869 45 60C45 57.6131 45.9482 55.3239 47.636 53.636C49.3239 51.9482 51.6131 51 54 51C56.3869 51 58.6761 51.9482 60.364 53.636C62.0518 55.3239 63 57.6131 63 60C63 62.3869 62.0518 64.6761 60.364 66.364C58.6761 68.0518 56.3869 69 54 69Z" fill="#D40000"/>
<path d="M59.9999 60.0001C60.018 60.7991 59.8763 61.5937 59.583 62.3372C59.2898 63.0807 58.851 63.7581 58.2923 64.3296C57.7337 64.9012 57.0665 65.3554 56.3299 65.6655C55.5933 65.9757 54.8022 66.1355 54.003 66.1357C53.2037 66.1359 52.4125 65.9765 51.6758 65.6667C50.9391 65.3569 50.2716 64.903 49.7127 64.3318C49.1538 63.7605 48.7146 63.0833 48.421 62.34C48.1274 61.5966 47.9853 60.8021 48.0029 60.0031C48.0376 58.4354 48.6846 56.9436 49.8054 55.847C50.9263 54.7504 52.4319 54.1361 54 54.1357C55.568 54.1354 57.0739 54.7488 58.1953 55.8449C59.3167 56.9409 59.9645 58.4324 59.9999 60.0001Z" fill="#D40000"/>
</g>
</g>
<path d="M20.386 134V122.264H23.032V131.768H27.676V134H20.386ZM31.7364 134.216C30.9204 134.216 30.2724 133.958 29.7924 133.442C29.3124 132.914 29.0724 132.272 29.0724 131.516C29.0724 130.58 29.4684 129.848 30.2604 129.32C31.0524 128.792 32.3304 128.438 34.0944 128.258C34.0704 127.862 33.9504 127.55 33.7344 127.322C33.5304 127.082 33.1824 126.962 32.6904 126.962C32.3184 126.962 31.9404 127.034 31.5564 127.178C31.1724 127.322 30.7644 127.52 30.3324 127.772L29.3784 126.026C29.9424 125.678 30.5424 125.396 31.1784 125.18C31.8264 124.964 32.4984 124.856 33.1944 124.856C34.3344 124.856 35.2104 125.186 35.8224 125.846C36.4344 126.506 36.7404 127.52 36.7404 128.888V134H34.5804L34.4004 133.082H34.3284C33.9564 133.418 33.5544 133.694 33.1224 133.91C32.7024 134.114 32.2404 134.216 31.7364 134.216ZM32.6364 132.164C32.9364 132.164 33.1944 132.098 33.4104 131.966C33.6384 131.822 33.8664 131.636 34.0944 131.408V129.842C33.1584 129.962 32.5104 130.154 32.1504 130.418C31.7904 130.67 31.6104 130.97 31.6104 131.318C31.6104 131.606 31.7004 131.822 31.8804 131.966C32.0724 132.098 32.3244 132.164 32.6364 132.164ZM38.9786 134V125.072H41.1386L41.3186 126.206H41.3906C41.7746 125.846 42.1946 125.534 42.6506 125.27C43.1186 124.994 43.6526 124.856 44.2526 124.856C45.2246 124.856 45.9266 125.18 46.3586 125.828C46.8026 126.464 47.0246 127.34 47.0246 128.456V134H44.3786V128.798C44.3786 128.15 44.2886 127.706 44.1086 127.466C43.9406 127.226 43.6646 127.106 43.2806 127.106C42.9446 127.106 42.6566 127.184 42.4166 127.34C42.1766 127.484 41.9126 127.694 41.6246 127.97V134H38.9786ZM52.4654 134.216C51.3614 134.216 50.4734 133.802 49.8014 132.974C49.1414 132.134 48.8114 130.988 48.8114 129.536C48.8114 128.564 48.9854 127.73 49.3334 127.034C49.6934 126.326 50.1554 125.786 50.7194 125.414C51.2954 125.042 51.8954 124.856 52.5194 124.856C53.0114 124.856 53.4254 124.94 53.7614 125.108C54.0974 125.276 54.4154 125.504 54.7154 125.792L54.6074 124.424V121.382H57.2534V134H55.0934L54.9134 133.118H54.8414C54.5294 133.43 54.1634 133.694 53.7434 133.91C53.3234 134.114 52.8974 134.216 52.4654 134.216ZM53.1494 132.056C53.4374 132.056 53.6954 131.996 53.9234 131.876C54.1634 131.756 54.3914 131.546 54.6074 131.246V127.592C54.3794 127.376 54.1334 127.226 53.8694 127.142C53.6174 127.058 53.3714 127.016 53.1314 127.016C52.7114 127.016 52.3394 127.22 52.0154 127.628C51.6914 128.024 51.5294 128.648 51.5294 129.5C51.5294 130.376 51.6674 131.024 51.9434 131.444C52.2314 131.852 52.6334 132.056 53.1494 132.056ZM62.0277 134.216C61.1157 134.216 60.4797 133.946 60.1197 133.406C59.7717 132.854 59.5977 132.128 59.5977 131.228V121.382H62.2437V131.336C62.2437 131.612 62.2917 131.804 62.3877 131.912C62.4957 132.02 62.6037 132.074 62.7117 132.074C62.7717 132.074 62.8197 132.074 62.8557 132.074C62.9037 132.062 62.9637 132.05 63.0357 132.038L63.3597 134C63.2157 134.06 63.0297 134.108 62.8017 134.144C62.5857 134.192 62.3277 134.216 62.0277 134.216ZM64.7481 134V125.072H67.3941V134H64.7481ZM66.0621 123.758C65.6181 123.758 65.2581 123.632 64.9821 123.38C64.7061 123.128 64.5681 122.792 64.5681 122.372C64.5681 121.952 64.7061 121.616 64.9821 121.364C65.2581 121.112 65.6181 120.986 66.0621 120.986C66.5061 120.986 66.8661 121.112 67.1421 121.364C67.4181 121.616 67.5561 121.952 67.5561 122.372C67.5561 122.792 67.4181 123.128 67.1421 123.38C66.8661 123.632 66.5061 123.758 66.0621 123.758ZM69.7227 134V125.072H71.8827L72.0627 126.206H72.1347C72.5187 125.846 72.9387 125.534 73.3947 125.27C73.8627 124.994 74.3967 124.856 74.9967 124.856C75.9687 124.856 76.6707 125.18 77.1027 125.828C77.5467 126.464 77.7687 127.34 77.7687 128.456V134H75.1227V128.798C75.1227 128.15 75.0327 127.706 74.8527 127.466C74.6847 127.226 74.4087 127.106 74.0247 127.106C73.6887 127.106 73.4007 127.184 73.1607 127.34C72.9207 127.484 72.6567 127.694 72.3687 127.97V134H69.7227ZM84.0195 134.216C83.1675 134.216 82.3995 134.03 81.7155 133.658C81.0315 133.286 80.4915 132.752 80.0955 132.056C79.6995 131.36 79.5015 130.52 79.5015 129.536C79.5015 128.564 79.6995 127.73 80.0955 127.034C80.5035 126.338 81.0315 125.804 81.6795 125.432C82.3275 125.048 83.0055 124.856 83.7135 124.856C84.5655 124.856 85.2675 125.048 85.8195 125.432C86.3835 125.804 86.8035 126.314 87.0795 126.962C87.3675 127.598 87.5115 128.324 87.5115 129.14C87.5115 129.368 87.4995 129.596 87.4755 129.824C87.4515 130.04 87.4275 130.202 87.4035 130.31H82.0575C82.1775 130.958 82.4475 131.438 82.8675 131.75C83.2875 132.05 83.7915 132.2 84.3795 132.2C85.0155 132.2 85.6575 132.002 86.3055 131.606L87.1875 133.208C86.7315 133.52 86.2215 133.766 85.6575 133.946C85.0935 134.126 84.5475 134.216 84.0195 134.216ZM82.0395 128.564H85.2615C85.2615 128.072 85.1415 127.67 84.9015 127.358C84.6735 127.034 84.2955 126.872 83.7675 126.872C83.3595 126.872 82.9935 127.016 82.6695 127.304C82.3455 127.58 82.1355 128 82.0395 128.564Z" fill="#333333"/>
<defs>
<clipPath id="clip0_1132_4573">
<rect width="48" height="48" fill="white" transform="translate(30 30)"/>
</clipPath>
<clipPath id="clip1_1132_4573">
<rect width="48" height="48" fill="white" transform="translate(30 30)"/>
</clipPath>
</defs>
</svg>
