<svg width="108" height="139" viewBox="0 0 108 139" fill="none" xmlns="http://www.w3.org/2000/svg">
<circle cx="54" cy="54" r="54" fill="white"/>
<g clip-path="url(#clip0_1132_4542)">
<mask id="mask0_1132_4542" style="mask-type:luminance" maskUnits="userSpaceOnUse" x="34" y="31" width="40" height="43">
<path d="M43.2802 72C42.8981 72 42.524 71.8906 42.2022 71.6846C41.8803 71.4787 41.6242 71.1849 41.4642 70.838L36.3872 59.838C36.2659 59.5753 36.2031 59.2894 36.2031 59C36.2031 58.7106 36.2659 58.4247 36.3872 58.162L41.4642 47.162C41.6242 46.8151 41.8803 46.5213 42.2022 46.3154C42.524 46.1094 42.8981 46 43.2802 46H64.7202C65.1022 46 65.4763 46.1094 65.7981 46.3154C66.12 46.5213 66.3761 46.8151 66.5362 47.162L71.6132 58.162C71.7344 58.4247 71.7972 58.7106 71.7972 59C71.7972 59.2894 71.7344 59.5753 71.6132 59.838L66.5362 70.838C66.3761 71.1849 66.12 71.4787 65.7981 71.6846C65.4763 71.8906 65.1022 72 64.7202 72H43.2802Z" fill="white" stroke="white" stroke-width="4" stroke-linejoin="bevel"/>
<path d="M39 53H48V63H38M69 53H55V62H70" stroke="black" stroke-width="4" stroke-linecap="round" stroke-linejoin="round"/>
<path d="M68.0002 34C68.0002 34 58.5002 37.5 50.5642 38.394C42.6282 39.288 38.0002 39 38.0002 39M56.0002 38V46L47.0002 39M40.6152 49L36.3872 58.162C36.2659 58.4247 36.2031 58.7106 36.2031 59C36.2031 59.2894 36.2659 59.5753 36.3872 59.838L39.0002 65.5" stroke="white" stroke-width="4" stroke-linecap="round" stroke-linejoin="round"/>
<path d="M67.3853 49L71.6133 58.162C71.7345 58.4247 71.7973 58.7106 71.7973 59C71.7973 59.2894 71.7345 59.5753 71.6133 59.838L69.0003 65.5" stroke="white" stroke-width="4" stroke-linecap="round" stroke-linejoin="bevel"/>
</mask>
<g mask="url(#mask0_1132_4542)">
<path d="M30 30H78V78H30V30Z" fill="#FF672C"/>
</g>
</g>
<path d="M26.282 134.216C25.298 134.216 24.392 133.988 23.564 133.532C22.736 133.076 22.07 132.404 21.566 131.516C21.074 130.616 20.828 129.512 20.828 128.204C20.828 126.908 21.08 125.804 21.584 124.892C22.1 123.968 22.778 123.266 23.618 122.786C24.47 122.294 25.388 122.048 26.372 122.048C27.128 122.048 27.806 122.204 28.406 122.516C29.006 122.816 29.504 123.17 29.9 123.578L28.496 125.27C28.196 124.994 27.878 124.772 27.542 124.604C27.218 124.424 26.846 124.334 26.426 124.334C25.898 124.334 25.412 124.484 24.968 124.784C24.536 125.084 24.188 125.516 23.924 126.08C23.672 126.644 23.546 127.322 23.546 128.114C23.546 129.314 23.804 130.25 24.32 130.922C24.836 131.594 25.526 131.93 26.39 131.93C26.87 131.93 27.296 131.822 27.668 131.606C28.052 131.39 28.388 131.132 28.676 130.832L30.08 132.488C29.096 133.64 27.83 134.216 26.282 134.216ZM33.8966 134.216C33.0806 134.216 32.4326 133.958 31.9526 133.442C31.4726 132.914 31.2326 132.272 31.2326 131.516C31.2326 130.58 31.6286 129.848 32.4206 129.32C33.2126 128.792 34.4906 128.438 36.2546 128.258C36.2306 127.862 36.1106 127.55 35.8946 127.322C35.6906 127.082 35.3426 126.962 34.8506 126.962C34.4786 126.962 34.1006 127.034 33.7166 127.178C33.3326 127.322 32.9246 127.52 32.4926 127.772L31.5386 126.026C32.1026 125.678 32.7026 125.396 33.3386 125.18C33.9866 124.964 34.6586 124.856 35.3546 124.856C36.4946 124.856 37.3706 125.186 37.9826 125.846C38.5946 126.506 38.9006 127.52 38.9006 128.888V134H36.7406L36.5606 133.082H36.4886C36.1166 133.418 35.7146 133.694 35.2826 133.91C34.8626 134.114 34.4006 134.216 33.8966 134.216ZM34.7966 132.164C35.0966 132.164 35.3546 132.098 35.5706 131.966C35.7986 131.822 36.0266 131.636 36.2546 131.408V129.842C35.3186 129.962 34.6706 130.154 34.3106 130.418C33.9506 130.67 33.7706 130.97 33.7706 131.318C33.7706 131.606 33.8606 131.822 34.0406 131.966C34.2326 132.098 34.4846 132.164 34.7966 132.164ZM45.8188 134.216C45.4228 134.216 45.0208 134.12 44.6128 133.928C44.2168 133.724 43.8448 133.43 43.4968 133.046H43.4248L43.2088 134H41.1388V121.382H43.7848V124.478L43.7128 125.846C44.0608 125.534 44.4388 125.294 44.8468 125.126C45.2548 124.946 45.6628 124.856 46.0708 124.856C46.7908 124.856 47.4148 125.042 47.9428 125.414C48.4708 125.786 48.8728 126.314 49.1488 126.998C49.4368 127.67 49.5808 128.462 49.5808 129.374C49.5808 130.394 49.4008 131.27 49.0408 132.002C48.6808 132.722 48.2128 133.274 47.6368 133.658C47.0728 134.03 46.4668 134.216 45.8188 134.216ZM45.2068 132.056C45.6628 132.056 46.0528 131.846 46.3768 131.426C46.7008 131.006 46.8628 130.34 46.8628 129.428C46.8628 127.82 46.3468 127.016 45.3148 127.016C44.7868 127.016 44.2768 127.286 43.7848 127.826V131.48C44.0248 131.696 44.2648 131.846 44.5048 131.93C44.7448 132.014 44.9788 132.056 45.2068 132.056ZM53.8871 134.216C52.9751 134.216 52.3391 133.946 51.9791 133.406C51.6311 132.854 51.4571 132.128 51.4571 131.228V121.382H54.1031V131.336C54.1031 131.612 54.1511 131.804 54.2471 131.912C54.3551 132.02 54.4631 132.074 54.5711 132.074C54.6311 132.074 54.6791 132.074 54.7151 132.074C54.7631 132.062 54.8231 132.05 54.8951 132.038L55.2191 134C55.0751 134.06 54.8891 134.108 54.6611 134.144C54.4451 134.192 54.1871 134.216 53.8871 134.216ZM60.6035 134.216C59.7515 134.216 58.9835 134.03 58.2995 133.658C57.6155 133.286 57.0755 132.752 56.6795 132.056C56.2835 131.36 56.0855 130.52 56.0855 129.536C56.0855 128.564 56.2835 127.73 56.6795 127.034C57.0875 126.338 57.6155 125.804 58.2635 125.432C58.9115 125.048 59.5895 124.856 60.2975 124.856C61.1495 124.856 61.8515 125.048 62.4035 125.432C62.9675 125.804 63.3875 126.314 63.6635 126.962C63.9515 127.598 64.0955 128.324 64.0955 129.14C64.0955 129.368 64.0835 129.596 64.0595 129.824C64.0355 130.04 64.0115 130.202 63.9875 130.31H58.6415C58.7615 130.958 59.0315 131.438 59.4515 131.75C59.8715 132.05 60.3755 132.2 60.9635 132.2C61.5995 132.2 62.2415 132.002 62.8895 131.606L63.7715 133.208C63.3155 133.52 62.8055 133.766 62.2415 133.946C61.6775 134.126 61.1315 134.216 60.6035 134.216ZM58.6235 128.564H61.8455C61.8455 128.072 61.7255 127.67 61.4855 127.358C61.2575 127.034 60.8795 126.872 60.3515 126.872C59.9435 126.872 59.5775 127.016 59.2535 127.304C58.9295 127.58 58.7195 128 58.6235 128.564ZM72.0294 134V124.496H68.8074V122.264H77.9154V124.496H74.6934V134H72.0294ZM81.7794 134L78.2334 122.264H81.0414L82.4454 127.736C82.6254 128.372 82.7814 128.996 82.9134 129.608C83.0574 130.22 83.2194 130.85 83.3994 131.498H83.4714C83.6394 130.85 83.7954 130.22 83.9394 129.608C84.0834 128.996 84.2394 128.372 84.4074 127.736L85.7934 122.264H88.4934L84.9654 134H81.7794Z" fill="#333333"/>
<defs>
<clipPath id="clip0_1132_4542">
<rect width="48" height="48" fill="white" transform="translate(30 30)"/>
</clipPath>
</defs>
</svg>
