<svg width="108" height="139" viewBox="0 0 108 139" fill="none" xmlns="http://www.w3.org/2000/svg">
<circle cx="54" cy="54" r="54" fill="white"/>
<path d="M40.36 40.9L36.8 39.1L39.32 34H56.26L58.8 39.1L55.24 40.88L53.8 38H41.8L40.36 40.9ZM61 46H52L50.4 40H45.2L43.62 46H34.56L32 51.1L35.58 52.88L37 50H58.56L60 52.9L63.58 51.12L61 46ZM59.34 74H55.2L54.72 72.2L47.8 61.8L40.86 72.2L40.4 74H36.26L42 52H46.18L45.46 54.7L47.8 58.2L50.12 54.7L49.42 52H53.56L59.34 74ZM46.6 60L44.8 57.3L42.44 66.26L46.6 60ZM53.16 66.24L50.8 57.28L49 60L53.16 66.24ZM76 62L68 54V60H60V64H68V70L76 62Z" fill="#3C28D0"/>
<path d="M14.386 134V122.264H21.73V124.496H17.032V126.854H21.028V129.068H17.032V131.768H21.91V134H14.386ZM26.4613 134.216C25.5493 134.216 24.9133 133.946 24.5533 133.406C24.2053 132.854 24.0313 132.128 24.0313 131.228V121.382H26.6773V131.336C26.6773 131.612 26.7253 131.804 26.8213 131.912C26.9293 132.02 27.0373 132.074 27.1453 132.074C27.2053 132.074 27.2533 132.074 27.2893 132.074C27.3373 132.062 27.3973 132.05 27.4693 132.038L27.7933 134C27.6493 134.06 27.4633 134.108 27.2353 134.144C27.0193 134.192 26.7613 134.216 26.4613 134.216ZM33.1777 134.216C32.3257 134.216 31.5577 134.03 30.8737 133.658C30.1897 133.286 29.6497 132.752 29.2537 132.056C28.8577 131.36 28.6597 130.52 28.6597 129.536C28.6597 128.564 28.8577 127.73 29.2537 127.034C29.6617 126.338 30.1897 125.804 30.8377 125.432C31.4857 125.048 32.1637 124.856 32.8717 124.856C33.7237 124.856 34.4257 125.048 34.9777 125.432C35.5417 125.804 35.9617 126.314 36.2377 126.962C36.5257 127.598 36.6697 128.324 36.6697 129.14C36.6697 129.368 36.6577 129.596 36.6337 129.824C36.6097 130.04 36.5857 130.202 36.5617 130.31H31.2157C31.3357 130.958 31.6057 131.438 32.0257 131.75C32.4457 132.05 32.9497 132.2 33.5377 132.2C34.1737 132.2 34.8157 132.002 35.4637 131.606L36.3457 133.208C35.8897 133.52 35.3797 133.766 34.8157 133.946C34.2517 134.126 33.7057 134.216 33.1777 134.216ZM31.1977 128.564H34.4197C34.4197 128.072 34.2997 127.67 34.0597 127.358C33.8317 127.034 33.4537 126.872 32.9257 126.872C32.5177 126.872 32.1517 127.016 31.8277 127.304C31.5037 127.58 31.2937 128 31.1977 128.564ZM42.3861 134.216C41.5581 134.216 40.8081 134.036 40.1361 133.676C39.4761 133.304 38.9481 132.77 38.5521 132.074C38.1681 131.366 37.9761 130.52 37.9761 129.536C37.9761 128.54 38.1921 127.694 38.6241 126.998C39.0561 126.302 39.6261 125.774 40.3341 125.414C41.0421 125.042 41.8041 124.856 42.6201 124.856C43.1721 124.856 43.6581 124.946 44.0781 125.126C44.5101 125.306 44.8941 125.534 45.2301 125.81L43.9881 127.52C43.5681 127.172 43.1661 126.998 42.7821 126.998C42.1461 126.998 41.6361 127.226 41.2521 127.682C40.8801 128.138 40.6941 128.756 40.6941 129.536C40.6941 130.304 40.8801 130.922 41.2521 131.39C41.6361 131.846 42.1161 132.074 42.6921 132.074C42.9801 132.074 43.2621 132.014 43.5381 131.894C43.8141 131.762 44.0661 131.606 44.2941 131.426L45.3381 133.154C44.8941 133.538 44.4141 133.814 43.8981 133.982C43.3821 134.138 42.8781 134.216 42.3861 134.216ZM50.1627 134.216C49.0587 134.216 48.2667 133.898 47.7867 133.262C47.3187 132.626 47.0847 131.792 47.0847 130.76V127.142H45.8607V125.18L47.2287 125.072L47.5347 122.696H49.7307V125.072H51.8727V127.142H49.7307V130.724C49.7307 131.228 49.8327 131.594 50.0367 131.822C50.2527 132.038 50.5347 132.146 50.8827 132.146C51.0267 132.146 51.1707 132.128 51.3147 132.092C51.4707 132.056 51.6087 132.014 51.7287 131.966L52.1427 133.892C51.9147 133.964 51.6327 134.036 51.2967 134.108C50.9727 134.18 50.5947 134.216 50.1627 134.216ZM53.6153 134V125.072H55.7753L55.9553 126.638H56.0273C56.3513 126.038 56.7413 125.594 57.1973 125.306C57.6533 125.006 58.1093 124.856 58.5653 124.856C58.8173 124.856 59.0273 124.874 59.1953 124.91C59.3633 124.934 59.5073 124.976 59.6273 125.036L59.1953 127.322C59.0393 127.274 58.8833 127.238 58.7273 127.214C58.5833 127.19 58.4153 127.178 58.2233 127.178C57.8873 127.178 57.5333 127.304 57.1613 127.556C56.8013 127.796 56.5013 128.216 56.2613 128.816V134H53.6153ZM60.7872 134V125.072H63.4332V134H60.7872ZM62.1012 123.758C61.6572 123.758 61.2972 123.632 61.0212 123.38C60.7452 123.128 60.6072 122.792 60.6072 122.372C60.6072 121.952 60.7452 121.616 61.0212 121.364C61.2972 121.112 61.6572 120.986 62.1012 120.986C62.5452 120.986 62.9052 121.112 63.1812 121.364C63.4572 121.616 63.5952 121.952 63.5952 122.372C63.5952 122.792 63.4572 123.128 63.1812 123.38C62.9052 123.632 62.5452 123.758 62.1012 123.758ZM69.6498 134.216C68.8218 134.216 68.0718 134.036 67.3998 133.676C66.7398 133.304 66.2118 132.77 65.8158 132.074C65.4318 131.366 65.2398 130.52 65.2398 129.536C65.2398 128.54 65.4558 127.694 65.8878 126.998C66.3198 126.302 66.8898 125.774 67.5978 125.414C68.3058 125.042 69.0678 124.856 69.8838 124.856C70.4358 124.856 70.9218 124.946 71.3418 125.126C71.7738 125.306 72.1578 125.534 72.4938 125.81L71.2518 127.52C70.8318 127.172 70.4298 126.998 70.0458 126.998C69.4098 126.998 68.8998 127.226 68.5158 127.682C68.1438 128.138 67.9578 128.756 67.9578 129.536C67.9578 130.304 68.1438 130.922 68.5158 131.39C68.8998 131.846 69.3798 132.074 69.9558 132.074C70.2438 132.074 70.5258 132.014 70.8018 131.894C71.0778 131.762 71.3298 131.606 71.5578 131.426L72.6018 133.154C72.1578 133.538 71.6778 133.814 71.1618 133.982C70.6458 134.138 70.1418 134.216 69.6498 134.216ZM74.1641 134V125.072H76.8101V134H74.1641ZM75.4781 123.758C75.0341 123.758 74.6741 123.632 74.3981 123.38C74.1221 123.128 73.9841 122.792 73.9841 122.372C73.9841 121.952 74.1221 121.616 74.3981 121.364C74.6741 121.112 75.0341 120.986 75.4781 120.986C75.9221 120.986 76.2821 121.112 76.5581 121.364C76.8341 121.616 76.9721 121.952 76.9721 122.372C76.9721 122.792 76.8341 123.128 76.5581 123.38C76.2821 123.632 75.9221 123.758 75.4781 123.758ZM82.5768 134.216C81.4728 134.216 80.6808 133.898 80.2008 133.262C79.7328 132.626 79.4988 131.792 79.4988 130.76V127.142H78.2748V125.18L79.6428 125.072L79.9488 122.696H82.1448V125.072H84.2868V127.142H82.1448V130.724C82.1448 131.228 82.2468 131.594 82.4508 131.822C82.6668 132.038 82.9488 132.146 83.2968 132.146C83.4408 132.146 83.5848 132.128 83.7288 132.092C83.8848 132.056 84.0228 132.014 84.1428 131.966L84.5568 133.892C84.3288 133.964 84.0468 134.036 83.7108 134.108C83.3868 134.18 83.0088 134.216 82.5768 134.216ZM87.0194 137.492C86.7554 137.492 86.5214 137.474 86.3174 137.438C86.1254 137.402 85.9394 137.36 85.7594 137.312L86.2274 135.296C86.3114 135.308 86.4074 135.326 86.5154 135.35C86.6234 135.386 86.7254 135.404 86.8214 135.404C87.2654 135.404 87.6074 135.296 87.8474 135.08C88.0874 134.864 88.2674 134.582 88.3874 134.234L88.5134 133.766L85.0754 125.072H87.7394L89.0174 128.906C89.1494 129.314 89.2694 129.728 89.3774 130.148C89.4854 130.568 89.5994 131 89.7194 131.444H89.7914C89.8874 131.024 89.9834 130.604 90.0794 130.184C90.1874 129.752 90.2954 129.326 90.4034 128.906L91.4834 125.072H94.0214L90.9254 134.09C90.6494 134.834 90.3434 135.458 90.0074 135.962C89.6714 136.478 89.2634 136.862 88.7834 137.114C88.3154 137.366 87.7274 137.492 87.0194 137.492Z" fill="#333333"/>
</svg>
