<svg width="108" height="139" viewBox="0 0 108 139" fill="none" xmlns="http://www.w3.org/2000/svg">
<circle cx="54" cy="54" r="54" fill="white"/>
<mask id="mask0_1132_4565" style="mask-type:luminance" maskUnits="userSpaceOnUse" x="32" y="32" width="44" height="44">
<path d="M39 59C39.6566 59 40.3068 58.8707 40.9134 58.6194C41.52 58.3681 42.0712 57.9998 42.5355 57.5355C42.9998 57.0712 43.3681 56.52 43.6194 55.9134C43.8707 55.3068 44 54.6566 44 54C44 55.3261 44.5268 56.5979 45.4645 57.5355C46.4021 58.4732 47.6739 59 49 59C50.3261 59 51.5979 58.4732 52.5355 57.5355C53.4732 56.5979 54 55.3261 54 54C54 55.3261 54.5268 56.5979 55.4645 57.5355C56.4021 58.4732 57.6739 59 59 59C60.3261 59 61.5979 58.4732 62.5355 57.5355C63.4732 56.5979 64 55.3261 64 54C64 55.3261 64.5268 56.5979 65.4645 57.5355C66.4021 58.4732 67.6739 59 69 59C70.3261 59 71.5979 58.4732 72.5355 57.5355C73.4732 56.5979 74 55.3261 74 54C74 65.046 65.046 74 54 74C42.954 74 34 65.046 34 54C34 55.3261 34.5268 56.5979 35.4645 57.5355C36.4021 58.4732 37.6739 59 39 59ZM58 43C58 44.0609 57.5786 45.0783 56.8284 45.8284C56.0783 46.5786 55.0609 47 54 47C52.9391 47 51.9217 46.5786 51.1716 45.8284C50.4214 45.0783 50 44.0609 50 43C50 40.79 54 34 54 34C54 34 58 40.79 58 43Z" fill="white" stroke="white" stroke-width="4" stroke-linecap="round" stroke-linejoin="round"/>
</mask>
<g mask="url(#mask0_1132_4565)">
<path d="M30 30H78V78H30V30Z" fill="#3CA7E1"/>
</g>
<path d="M33.43 134L31.252 122.264H33.97L34.78 127.754C34.852 128.366 34.93 128.984 35.014 129.608C35.098 130.22 35.176 130.838 35.248 131.462H35.32C35.44 130.838 35.554 130.22 35.662 129.608C35.782 128.984 35.902 128.366 36.022 127.754L37.282 122.264H39.532L40.792 127.754C40.912 128.342 41.026 128.948 41.134 129.572C41.254 130.196 41.374 130.826 41.494 131.462H41.566C41.65 130.826 41.728 130.202 41.8 129.59C41.884 128.966 41.968 128.354 42.052 127.754L42.862 122.264H45.4L43.312 134H39.982L38.83 128.672C38.734 128.216 38.644 127.76 38.56 127.304C38.488 126.836 38.422 126.386 38.362 125.954H38.29C38.218 126.386 38.14 126.836 38.056 127.304C37.984 127.76 37.9 128.216 37.804 128.672L36.706 134H33.43ZM48.8516 134.216C48.0356 134.216 47.3876 133.958 46.9076 133.442C46.4276 132.914 46.1876 132.272 46.1876 131.516C46.1876 130.58 46.5836 129.848 47.3756 129.32C48.1676 128.792 49.4456 128.438 51.2096 128.258C51.1856 127.862 51.0656 127.55 50.8496 127.322C50.6456 127.082 50.2976 126.962 49.8056 126.962C49.4336 126.962 49.0556 127.034 48.6716 127.178C48.2876 127.322 47.8796 127.52 47.4476 127.772L46.4936 126.026C47.0576 125.678 47.6576 125.396 48.2936 125.18C48.9416 124.964 49.6136 124.856 50.3096 124.856C51.4496 124.856 52.3256 125.186 52.9376 125.846C53.5496 126.506 53.8556 127.52 53.8556 128.888V134H51.6956L51.5156 133.082H51.4436C51.0716 133.418 50.6696 133.694 50.2376 133.91C49.8176 134.114 49.3556 134.216 48.8516 134.216ZM49.7516 132.164C50.0516 132.164 50.3096 132.098 50.5256 131.966C50.7536 131.822 50.9816 131.636 51.2096 131.408V129.842C50.2736 129.962 49.6256 130.154 49.2656 130.418C48.9056 130.67 48.7256 130.97 48.7256 131.318C48.7256 131.606 48.8156 131.822 48.9956 131.966C49.1876 132.098 49.4396 132.164 49.7516 132.164ZM59.2154 134.216C58.1114 134.216 57.3194 133.898 56.8394 133.262C56.3714 132.626 56.1374 131.792 56.1374 130.76V127.142H54.9134V125.18L56.2814 125.072L56.5874 122.696H58.7834V125.072H60.9254V127.142H58.7834V130.724C58.7834 131.228 58.8854 131.594 59.0894 131.822C59.3054 132.038 59.5874 132.146 59.9354 132.146C60.0794 132.146 60.2234 132.128 60.3674 132.092C60.5234 132.056 60.6614 132.014 60.7814 131.966L61.1954 133.892C60.9674 133.964 60.6854 134.036 60.3494 134.108C60.0254 134.18 59.6474 134.216 59.2154 134.216ZM66.3476 134.216C65.4956 134.216 64.7276 134.03 64.0436 133.658C63.3596 133.286 62.8196 132.752 62.4236 132.056C62.0276 131.36 61.8296 130.52 61.8296 129.536C61.8296 128.564 62.0276 127.73 62.4236 127.034C62.8316 126.338 63.3596 125.804 64.0076 125.432C64.6556 125.048 65.3336 124.856 66.0416 124.856C66.8936 124.856 67.5956 125.048 68.1476 125.432C68.7116 125.804 69.1316 126.314 69.4076 126.962C69.6956 127.598 69.8396 128.324 69.8396 129.14C69.8396 129.368 69.8276 129.596 69.8036 129.824C69.7796 130.04 69.7556 130.202 69.7316 130.31H64.3856C64.5056 130.958 64.7756 131.438 65.1956 131.75C65.6156 132.05 66.1196 132.2 66.7076 132.2C67.3436 132.2 67.9856 132.002 68.6336 131.606L69.5156 133.208C69.0596 133.52 68.5496 133.766 67.9856 133.946C67.4216 134.126 66.8756 134.216 66.3476 134.216ZM64.3676 128.564H67.5896C67.5896 128.072 67.4696 127.67 67.2296 127.358C67.0016 127.034 66.6236 126.872 66.0956 126.872C65.6876 126.872 65.3216 127.016 64.9976 127.304C64.6736 127.58 64.4636 128 64.3676 128.564ZM71.668 134V125.072H73.828L74.008 126.638H74.08C74.404 126.038 74.794 125.594 75.25 125.306C75.706 125.006 76.162 124.856 76.618 124.856C76.87 124.856 77.08 124.874 77.248 124.91C77.416 124.934 77.56 124.976 77.68 125.036L77.248 127.322C77.092 127.274 76.936 127.238 76.78 127.214C76.636 127.19 76.468 127.178 76.276 127.178C75.94 127.178 75.586 127.304 75.214 127.556C74.854 127.796 74.554 128.216 74.314 128.816V134H71.668Z" fill="#333333"/>
</svg>
