<svg width="108" height="139" viewBox="0 0 108 139" fill="none" xmlns="http://www.w3.org/2000/svg">
<circle cx="54" cy="54" r="54" fill="white"/>
<path d="M39 36C39 34.4087 39.6321 32.8826 40.7574 31.7574C41.8826 30.6321 43.4087 30 45 30H63C64.5913 30 66.1174 30.6321 67.2426 31.7574C68.3679 32.8826 69 34.4087 69 36V72C69 73.5913 68.3679 75.1174 67.2426 76.2426C66.1174 77.3679 64.5913 78 63 78H45C43.4087 78 41.8826 77.3679 40.7574 76.2426C39.6321 75.1174 39 73.5913 39 72V36ZM57 69C57 68.2043 56.6839 67.4413 56.1213 66.8787C55.5587 66.3161 54.7956 66 54 66C53.2044 66 52.4413 66.3161 51.8787 66.8787C51.3161 67.4413 51 68.2043 51 69C51 69.7957 51.3161 70.5587 51.8787 71.1213C52.4413 71.6839 53.2044 72 54 72C54.7956 72 55.5587 71.6839 56.1213 71.1213C56.6839 70.5587 57 69.7957 57 69Z" fill="#79BD62"/>
<path d="M28.386 134V122.264H31.284L33.174 127.484C33.294 127.82 33.408 128.174 33.516 128.546C33.624 128.918 33.738 129.284 33.858 129.644H33.93C34.05 129.284 34.158 128.918 34.254 128.546C34.362 128.174 34.476 127.82 34.596 127.484L36.45 122.264H39.33V134H36.918V129.698C36.918 129.314 36.936 128.888 36.972 128.42C37.02 127.94 37.068 127.46 37.116 126.98C37.176 126.5 37.224 126.074 37.26 125.702H37.188L36.234 128.492L34.56 132.974H33.102L31.428 128.492L30.492 125.702H30.42C30.468 126.074 30.516 126.5 30.564 126.98C30.612 127.46 30.654 127.94 30.69 128.42C30.738 128.888 30.762 129.314 30.762 129.698V134H28.386ZM45.7149 134.216C44.9589 134.216 44.2449 134.036 43.5729 133.676C42.9129 133.304 42.3789 132.77 41.9709 132.074C41.5629 131.366 41.3589 130.52 41.3589 129.536C41.3589 128.54 41.5629 127.694 41.9709 126.998C42.3789 126.302 42.9129 125.774 43.5729 125.414C44.2449 125.042 44.9589 124.856 45.7149 124.856C46.4709 124.856 47.1789 125.042 47.8389 125.414C48.4989 125.774 49.0329 126.302 49.4409 126.998C49.8489 127.694 50.0529 128.54 50.0529 129.536C50.0529 130.52 49.8489 131.366 49.4409 132.074C49.0329 132.77 48.4989 133.304 47.8389 133.676C47.1789 134.036 46.4709 134.216 45.7149 134.216ZM45.7149 132.074C46.2549 132.074 46.6629 131.846 46.9389 131.39C47.2149 130.922 47.3529 130.304 47.3529 129.536C47.3529 128.756 47.2149 128.138 46.9389 127.682C46.6629 127.226 46.2549 126.998 45.7149 126.998C45.1629 126.998 44.7489 127.226 44.4729 127.682C44.2089 128.138 44.0769 128.756 44.0769 129.536C44.0769 130.304 44.2089 130.922 44.4729 131.39C44.7489 131.846 45.1629 132.074 45.7149 132.074ZM56.5453 134.216C56.1493 134.216 55.7473 134.12 55.3393 133.928C54.9433 133.724 54.5713 133.43 54.2233 133.046H54.1513L53.9353 134H51.8653V121.382H54.5113V124.478L54.4393 125.846C54.7873 125.534 55.1653 125.294 55.5733 125.126C55.9813 124.946 56.3893 124.856 56.7973 124.856C57.5173 124.856 58.1413 125.042 58.6693 125.414C59.1973 125.786 59.5993 126.314 59.8753 126.998C60.1633 127.67 60.3073 128.462 60.3073 129.374C60.3073 130.394 60.1273 131.27 59.7673 132.002C59.4073 132.722 58.9393 133.274 58.3633 133.658C57.7993 134.03 57.1933 134.216 56.5453 134.216ZM55.9333 132.056C56.3893 132.056 56.7793 131.846 57.1033 131.426C57.4273 131.006 57.5893 130.34 57.5893 129.428C57.5893 127.82 57.0733 127.016 56.0413 127.016C55.5133 127.016 55.0033 127.286 54.5113 127.826V131.48C54.7513 131.696 54.9913 131.846 55.2313 131.93C55.4713 132.014 55.7053 132.056 55.9333 132.056ZM62.1837 134V125.072H64.8297V134H62.1837ZM63.4977 123.758C63.0537 123.758 62.6937 123.632 62.4177 123.38C62.1417 123.128 62.0037 122.792 62.0037 122.372C62.0037 121.952 62.1417 121.616 62.4177 121.364C62.6937 121.112 63.0537 120.986 63.4977 120.986C63.9417 120.986 64.3017 121.112 64.5777 121.364C64.8537 121.616 64.9917 121.952 64.9917 122.372C64.9917 122.792 64.8537 123.128 64.5777 123.38C64.3017 123.632 63.9417 123.758 63.4977 123.758ZM69.5883 134.216C68.6763 134.216 68.0403 133.946 67.6803 133.406C67.3323 132.854 67.1583 132.128 67.1583 131.228V121.382H69.8043V131.336C69.8043 131.612 69.8523 131.804 69.9483 131.912C70.0563 132.02 70.1643 132.074 70.2723 132.074C70.3323 132.074 70.3803 132.074 70.4163 132.074C70.4643 132.062 70.5243 132.05 70.5963 132.038L70.9203 134C70.7763 134.06 70.5903 134.108 70.3623 134.144C70.1463 134.192 69.8883 134.216 69.5883 134.216ZM76.3047 134.216C75.4527 134.216 74.6847 134.03 74.0007 133.658C73.3167 133.286 72.7767 132.752 72.3807 132.056C71.9847 131.36 71.7867 130.52 71.7867 129.536C71.7867 128.564 71.9847 127.73 72.3807 127.034C72.7887 126.338 73.3167 125.804 73.9647 125.432C74.6127 125.048 75.2907 124.856 75.9987 124.856C76.8507 124.856 77.5527 125.048 78.1047 125.432C78.6687 125.804 79.0887 126.314 79.3647 126.962C79.6527 127.598 79.7967 128.324 79.7967 129.14C79.7967 129.368 79.7847 129.596 79.7607 129.824C79.7367 130.04 79.7127 130.202 79.6887 130.31H74.3427C74.4627 130.958 74.7327 131.438 75.1527 131.75C75.5727 132.05 76.0767 132.2 76.6647 132.2C77.3007 132.2 77.9427 132.002 78.5907 131.606L79.4727 133.208C79.0167 133.52 78.5067 133.766 77.9427 133.946C77.3787 134.126 76.8327 134.216 76.3047 134.216ZM74.3247 128.564H77.5467C77.5467 128.072 77.4267 127.67 77.1867 127.358C76.9587 127.034 76.5807 126.872 76.0527 126.872C75.6447 126.872 75.2787 127.016 74.9547 127.304C74.6307 127.58 74.4207 128 74.3247 128.564Z" fill="#333333"/>
</svg>
