<svg width="55" height="55" viewBox="0 0 55 55" fill="none" xmlns="http://www.w3.org/2000/svg">
<circle cx="27.4696" cy="27.4696" r="27.4696" fill="white"/>
<g clip-path="url(#clip0_1205_13112)">
<path d="M19.5 18C19.5 17.2044 19.8161 16.4413 20.3787 15.8787C20.9413 15.3161 21.7044 15 22.5 15H31.5C32.2956 15 33.0587 15.3161 33.6213 15.8787C34.1839 16.4413 34.5 17.2044 34.5 18V36C34.5 36.7956 34.1839 37.5587 33.6213 38.1213C33.0587 38.6839 32.2956 39 31.5 39H22.5C21.7044 39 20.9413 38.6839 20.3787 38.1213C19.8161 37.5587 19.5 36.7956 19.5 36V18ZM28.5 34.5C28.5 34.1022 28.342 33.7206 28.0607 33.4393C27.7794 33.158 27.3978 33 27 33C26.6022 33 26.2206 33.158 25.9393 33.4393C25.658 33.7206 25.5 34.1022 25.5 34.5C25.5 34.8978 25.658 35.2794 25.9393 35.5607C26.2206 35.842 26.6022 36 27 36C27.3978 36 27.7794 35.842 28.0607 35.5607C28.342 35.2794 28.5 34.8978 28.5 34.5Z" fill="#79BD62"/>
</g>
<defs>
<clipPath id="clip0_1205_13112">
<rect width="24" height="24" fill="white" transform="translate(15 15)"/>
</clipPath>
</defs>
</svg>
