<svg width="56" height="55" viewBox="0 0 56 55" fill="none" xmlns="http://www.w3.org/2000/svg">
<circle cx="28.409" cy="27.4696" r="27.4696" fill="white"/>
<mask id="mask0_1205_13143" style="mask-type:luminance" maskUnits="userSpaceOnUse" x="16" y="15" width="24" height="24">
<path d="M20.5181 29.5C20.8521 29.5 21.1828 29.4353 21.4914 29.3097C21.8 29.1841 22.0804 28.9999 22.3166 28.7678C22.5528 28.5356 22.7401 28.26 22.868 27.9567C22.9958 27.6534 23.0616 27.3283 23.0616 27C23.0616 27.663 23.3295 28.2989 23.8065 28.7678C24.2835 29.2366 24.9305 29.5 25.605 29.5C26.2796 29.5 26.9266 29.2366 27.4036 28.7678C27.8805 28.2989 28.1485 27.663 28.1485 27C28.1485 27.663 28.4165 28.2989 28.8935 28.7678C29.3705 29.2366 30.0174 29.5 30.692 29.5C31.3666 29.5 32.0135 29.2366 32.4905 28.7678C32.9675 28.2989 33.2355 27.663 33.2355 27C33.2355 27.663 33.5035 28.2989 33.9804 28.7678C34.4574 29.2366 35.1044 29.5 35.779 29.5C36.4535 29.5 37.1005 29.2366 37.5775 28.7678C38.0545 28.2989 38.3224 27.663 38.3224 27C38.3224 32.523 33.7676 37 28.1485 37C22.5295 37 17.9746 32.523 17.9746 27C17.9746 27.663 18.2426 28.2989 18.7196 28.7678C19.1966 29.2366 19.8435 29.5 20.5181 29.5ZM30.1833 21.5C30.1833 22.0304 29.9689 22.5391 29.5873 22.9142C29.2057 23.2893 28.6882 23.5 28.1485 23.5C27.6089 23.5 27.0913 23.2893 26.7097 22.9142C26.3281 22.5391 26.1137 22.0304 26.1137 21.5C26.1137 20.395 28.1485 17 28.1485 17C28.1485 17 30.1833 20.395 30.1833 21.5Z" fill="white" stroke="white" stroke-width="2.03478" stroke-linecap="round" stroke-linejoin="round"/>
</mask>
<g mask="url(#mask0_1205_13143)">
<path d="M15.9395 15H40.3568V39H15.9395V15Z" fill="#3CA7E1"/>
</g>
</svg>
