<svg width="55" height="55" viewBox="0 0 55 55" fill="none" xmlns="http://www.w3.org/2000/svg">
<circle cx="27.4696" cy="27.4696" r="27.4696" fill="white"/>
<mask id="mask0_1205_13128" style="mask-type:luminance" maskUnits="userSpaceOnUse" x="17" y="15" width="20" height="23">
<path d="M21.642 36C21.451 36 21.264 35.9453 21.103 35.8423C20.9421 35.7394 20.8141 35.5925 20.734 35.419L18.1955 29.919C18.1349 29.7876 18.1035 29.6447 18.1035 29.5C18.1035 29.3553 18.1349 29.2124 18.1955 29.081L20.734 23.581C20.8141 23.4075 20.9421 23.2606 21.103 23.1577C21.264 23.0547 21.451 23 21.642 23H32.362C32.5531 23 32.7401 23.0547 32.901 23.1577C33.0619 23.2606 33.19 23.4075 33.27 23.581L35.8085 29.081C35.8692 29.2124 35.9005 29.3553 35.9005 29.5C35.9005 29.6447 35.8692 29.7876 35.8085 29.919L33.27 35.419C33.19 35.5925 33.0619 35.7394 32.901 35.8423C32.7401 35.9453 32.5531 36 32.362 36H21.642Z" fill="white" stroke="white" stroke-width="2.03478" stroke-linejoin="bevel"/>
<path d="M19.502 26.5H24.002V31.5H19.002M34.502 26.5H27.502V31H35.002" stroke="black" stroke-width="2.03478" stroke-linecap="round" stroke-linejoin="round"/>
<path d="M34.002 17C34.002 17 29.252 18.75 25.284 19.197C21.316 19.644 19.002 19.5 19.002 19.5M28.002 19V23L23.502 19.5M20.3095 24.5L18.1955 29.081C18.1349 29.2124 18.1035 29.3553 18.1035 29.5C18.1035 29.6447 18.1349 29.7876 18.1955 29.919L19.502 32.75" stroke="white" stroke-width="2.03478" stroke-linecap="round" stroke-linejoin="round"/>
<path d="M33.6953 24.5L35.8093 29.081C35.8699 29.2124 35.9013 29.3553 35.9013 29.5C35.9013 29.6447 35.8699 29.7876 35.8093 29.919L34.5028 32.75" stroke="white" stroke-width="2.03478" stroke-linecap="round" stroke-linejoin="bevel"/>
</mask>
<g mask="url(#mask0_1205_13128)">
<path d="M15 15H39V39H15V15Z" fill="#FF672C"/>
</g>
</svg>
