<svg width="55" height="55" viewBox="0 0 55 55" fill="none" xmlns="http://www.w3.org/2000/svg">
<circle cx="27.4696" cy="27.4696" r="27.4696" fill="white"/>
<path d="M20.18 20.45L18.4 19.55L19.66 17H28.13L29.4 19.55L27.62 20.44L26.9 19H20.9L20.18 20.45ZM30.5 23H26L25.2 20H22.6L21.81 23H17.28L16 25.55L17.79 26.44L18.5 25H29.28L30 26.45L31.79 25.56L30.5 23ZM29.67 37H27.6L27.36 36.1L23.9 30.9L20.43 36.1L20.2 37H18.13L21 26H23.09L22.73 27.35L23.9 29.1L25.06 27.35L24.71 26H26.78L29.67 37ZM23.3 30L22.4 28.65L21.22 33.13L23.3 30ZM26.58 33.12L25.4 28.64L24.5 30L26.58 33.12ZM38 31L34 27V30H30V32H34V35L38 31Z" fill="#3C28D0"/>
</svg>
