<svg width="56" height="55" viewBox="0 0 56 55" fill="none" xmlns="http://www.w3.org/2000/svg">
<circle cx="28.3485" cy="27.4696" r="27.4696" fill="white"/>
<g clip-path="url(#clip0_1205_13154)">
<path d="M39.6985 20.7905L38.7835 18.8255C38.6699 18.5839 38.5046 18.3703 38.2993 18.1998C38.094 18.0292 37.8537 17.9059 37.5955 17.8385C34.6885 17.0465 31.354 16.562 27.916 16.502C24.5276 16.5546 21.1586 17.0251 17.8855 17.903C17.638 17.975 17.206 18.338 16.978 18.8165L16.0585 20.792C15.9404 21.0351 15.8789 21.3017 15.8785 21.572V22.877L15.877 22.9385C15.877 23.5265 16.354 24.0035 16.942 24.0035L16.9915 24.002H20.7685C21.0661 23.9949 21.3492 23.8717 21.5572 23.6587C21.7651 23.4456 21.8815 23.1597 21.8815 22.862L21.8785 22.7825V21.5075C21.8786 21.3445 21.9195 21.1841 21.9976 21.041C22.0757 20.8979 22.1884 20.7767 22.3255 20.6885C24.0397 19.7779 25.9751 19.3668 27.9115 19.502C29.8436 19.3716 31.7739 19.7808 33.487 20.684C33.7015 20.8325 33.88 21.134 33.88 21.4775V22.7855C33.8698 22.9387 33.8907 23.0925 33.9415 23.2375C33.9922 23.3825 34.0718 23.5157 34.1753 23.6292C34.2788 23.7426 34.4042 23.834 34.544 23.8978C34.6837 23.9616 34.8349 23.9965 34.9885 24.0005H38.77L38.8165 24.002C39.0989 24.002 39.3698 23.8897 39.5695 23.69C39.7692 23.4903 39.8815 23.2194 39.8815 22.937L39.88 22.8725V21.5705C39.879 21.2964 39.8159 21.0261 39.6955 20.78L39.6985 20.7905Z" fill="#D40000"/>
<path d="M33.8789 27.45C32.9027 26.199 32.374 24.6568 32.3774 23.07L32.3789 22.944V22.5H30.8789V24H24.8789V22.5H23.3789V22.995L23.3804 23.115C23.3826 24.7082 22.8496 26.2559 21.8669 27.51L17.3789 33V37.5H38.3789V33L33.8789 27.45ZM27.8789 34.5C26.6854 34.5 25.5408 34.0259 24.6969 33.182C23.853 32.3381 23.3789 31.1935 23.3789 30C23.3789 28.8065 23.853 27.6619 24.6969 26.818C25.5408 25.9741 26.6854 25.5 27.8789 25.5C29.0724 25.5 30.217 25.9741 31.0609 26.818C31.9048 27.6619 32.3789 28.8065 32.3789 30C32.3789 31.1935 31.9048 32.3381 31.0609 33.182C30.217 34.0259 29.0724 34.5 27.8789 34.5Z" fill="#D40000"/>
<path d="M30.8781 29.9996C30.8872 30.3991 30.8163 30.7964 30.6697 31.1681C30.5231 31.5398 30.3037 31.8785 30.0243 32.1643C29.745 32.4501 29.4114 32.6772 29.0431 32.8323C28.6748 32.9873 28.2793 33.0673 27.8797 33.0674C27.48 33.0675 27.0844 32.9877 26.7161 32.8329C26.3477 32.678 26.014 32.451 25.7345 32.1654C25.4551 31.8798 25.2355 31.5412 25.0887 31.1695C24.9419 30.7978 24.8708 30.4006 24.8796 30.0011C24.897 29.2172 25.2205 28.4713 25.7809 27.923C26.3413 27.3747 27.0941 27.0676 27.8782 27.0674C28.6622 27.0672 29.4151 27.3739 29.9758 27.922C30.5365 28.47 30.8604 29.2157 30.8781 29.9996Z" fill="#D40000"/>
</g>
<defs>
<clipPath id="clip0_1205_13154">
<rect width="24" height="24" fill="white" transform="translate(15.8789 15)"/>
</clipPath>
</defs>
</svg>
