<svg width="34" height="35" viewBox="0 0 34 35" fill="none" xmlns="http://www.w3.org/2000/svg">
<circle cx="17" cy="17.4038" r="17" fill="#0045A5"/>
<g clip-path="url(#clip0_1178_4973)">
<path d="M17 7.98275C19.937 7.98275 20.2853 7.99375 21.4458 8.04692C24.4268 8.18258 25.8193 9.597 25.9549 12.556C26.0081 13.7156 26.0182 14.0639 26.0182 17.0009C26.0182 19.9388 26.0072 20.2863 25.9549 21.4458C25.8183 24.4021 24.4296 25.8193 21.4458 25.9549C20.2853 26.0081 19.9388 26.0191 17 26.0191C14.063 26.0191 13.7147 26.0081 12.5551 25.9549C9.56675 25.8183 8.18167 24.3975 8.046 21.4449C7.99283 20.2853 7.98183 19.9379 7.98183 17C7.98183 14.063 7.99375 13.7156 8.046 12.5551C8.18258 9.597 9.57133 8.18167 12.5551 8.046C13.7156 7.99375 14.063 7.98275 17 7.98275ZM17 6C14.0126 6 13.6386 6.01283 12.4653 6.066C8.47042 6.24933 6.25025 8.46583 6.06692 12.4643C6.01283 13.6386 6 14.0126 6 17C6 19.9874 6.01283 20.3623 6.066 21.5357C6.24933 25.5305 8.46583 27.7507 12.4643 27.934C13.6386 27.9872 14.0126 28 17 28C19.9874 28 20.3623 27.9872 21.5357 27.934C25.5268 27.7507 27.7525 25.5342 27.9331 21.5357C27.9872 20.3623 28 19.9874 28 17C28 14.0126 27.9872 13.6386 27.934 12.4653C27.7543 8.47408 25.5351 6.25025 21.5366 6.06692C20.3623 6.01283 19.9874 6 17 6ZM17 11.3515C13.8806 11.3515 11.3515 13.8806 11.3515 17C11.3515 20.1194 13.8806 22.6494 17 22.6494C20.1194 22.6494 22.6485 20.1203 22.6485 17C22.6485 13.8806 20.1194 11.3515 17 11.3515ZM17 20.6667C14.9751 20.6667 13.3333 19.0258 13.3333 17C13.3333 14.9751 14.9751 13.3333 17 13.3333C19.0249 13.3333 20.6667 14.9751 20.6667 17C20.6667 19.0258 19.0249 20.6667 17 20.6667ZM22.8722 9.80875C22.1425 9.80875 21.5513 10.4 21.5513 11.1287C21.5513 11.8575 22.1425 12.4488 22.8722 12.4488C23.6009 12.4488 24.1912 11.8575 24.1912 11.1287C24.1912 10.4 23.6009 9.80875 22.8722 9.80875Z" fill="white"/>
</g>
<defs>
<clipPath id="clip0_1178_4973">
<rect width="22" height="22" fill="white" transform="translate(6 6)"/>
</clipPath>
</defs>
</svg>
