<svg width="54" height="54" viewBox="0 0 54 54" fill="none" xmlns="http://www.w3.org/2000/svg">
<circle cx="27" cy="27" r="26.3049" transform="matrix(-1 0 0 1 54 0)" fill="white" stroke="#999999" stroke-width="1.39028"/>
<path d="M32.9357 40.4568C33.2832 40.1093 33.457 39.6977 33.457 39.2223C33.457 38.7468 33.2832 38.3357 32.9357 37.9891L22.7519 27.8053L32.9704 17.5868C33.2948 17.2624 33.457 16.8569 33.457 16.3703C33.457 15.8837 33.2832 15.4666 32.9357 15.119C32.5881 14.7714 32.1766 14.5977 31.7011 14.5977C31.2256 14.5977 30.8146 14.7714 30.4679 15.119L18.7896 26.8321C18.6506 26.9711 18.5519 27.1217 18.4935 27.2839C18.4351 27.4461 18.4063 27.6199 18.4073 27.8053C18.4073 27.9907 18.4365 28.1644 18.4949 28.3266C18.5533 28.4888 18.6515 28.6395 18.7896 28.7785L30.5027 40.4916C30.8271 40.816 31.227 40.9782 31.7025 40.9782C32.178 40.9782 32.589 40.8044 32.9357 40.4568Z" fill="#999999"/>
</svg>
