<svg width="86" height="86" viewBox="0 0 86 86" fill="none" xmlns="http://www.w3.org/2000/svg">
<path d="M86 43C86 66.7482 66.7482 86 43 86C19.2518 86 0 66.7482 0 43C0 19.2518 19.2518 0 43 0C66.7482 0 86 19.2518 86 43Z" fill="white"/>
<g clip-path="url(#clip0_1202_10790)">
<path d="M63.1562 22.8439C62.275 21.9626 62.275 20.5376 63.1562 19.6657C64.0375 18.7939 65.4625 18.7845 66.3344 19.6657L72.3344 25.6657C72.7563 26.0876 72.9906 26.6595 72.9906 27.2595C72.9906 27.8595 72.7563 28.4314 72.3344 28.8532L66.3344 34.8532C65.4531 35.7345 64.0281 35.7345 63.1562 34.8532C62.2844 33.972 62.275 32.547 63.1562 31.6751L65.3125 29.5189L49 29.5001C47.7531 29.5001 46.75 28.497 46.75 27.2501C46.75 26.0032 47.7531 25.0001 49 25.0001H65.3219L63.1562 22.8439ZM22.8438 54.3439L20.6875 56.5001H37C38.2469 56.5001 39.25 57.5032 39.25 58.7501C39.25 59.997 38.2469 61.0001 37 61.0001H20.6781L22.8344 63.1564C23.7156 64.0376 23.7156 65.4626 22.8344 66.3345C21.9531 67.2064 20.5281 67.2157 19.6562 66.3345L13.6562 60.3439C13.2344 59.922 13 59.3501 13 58.7501C13 58.1501 13.2344 57.5782 13.6562 57.1564L19.6562 51.1564C20.5375 50.2751 21.9625 50.2751 22.8344 51.1564C23.7063 52.0376 23.7156 53.4626 22.8344 54.3345L22.8438 54.3439ZM22 25.0001H44.6781C44.3312 25.6751 44.125 26.4345 44.125 27.2501C44.125 29.9407 46.3094 32.1251 49 32.1251H60.0062C59.6312 33.7189 60.0625 35.4532 61.3 36.7001C63.2031 38.6032 66.2875 38.6032 68.1906 36.7001L70 34.8907V55.0001C70 58.3095 67.3094 61.0001 64 61.0001H41.3219C41.6688 60.3251 41.875 59.5657 41.875 58.7501C41.875 56.0595 39.6906 53.8751 37 53.8751H25.9938C26.3688 52.2814 25.9375 50.547 24.7 49.3001C22.7969 47.397 19.7125 47.397 17.8094 49.3001L16 51.1095V31.0001C16 27.6907 18.6906 25.0001 22 25.0001ZM28 31.0001H22V37.0001C25.3094 37.0001 28 34.3095 28 31.0001ZM64 49.0001C60.6906 49.0001 58 51.6907 58 55.0001H64V49.0001ZM43 52.0001C45.3869 52.0001 47.6761 51.0519 49.364 49.3641C51.0518 47.6762 52 45.3871 52 43.0001C52 40.6132 51.0518 38.324 49.364 36.6361C47.6761 34.9483 45.3869 34.0001 43 34.0001C40.6131 34.0001 38.3239 34.9483 36.636 36.6361C34.9482 38.324 34 40.6132 34 43.0001C34 45.3871 34.9482 47.6762 36.636 49.3641C38.3239 51.0519 40.6131 52.0001 43 52.0001Z" fill="#0045A5"/>
<path d="M19.5 50H22L27 56H40V67L22 70L10.5 59L19.5 50Z" fill="white"/>
<path d="M16 46L44.5 54.5L45 61H22.4C20.1598 61 19.0397 61 18.184 60.564C17.4314 60.1805 16.8195 59.5686 16.436 58.816C16 57.9603 16 56.8402 16 54.6V46Z" fill="#0045A5"/>
</g>
<defs>
<clipPath id="clip0_1202_10790">
<rect width="60" height="48" fill="white" transform="translate(13 19)"/>
</clipPath>
</defs>
</svg>
