<svg width="86" height="86" viewBox="0 0 86 86" fill="none" xmlns="http://www.w3.org/2000/svg">
<path d="M86 43C86 66.7482 66.7482 86 43 86C19.2518 86 0 66.7482 0 43C0 19.2518 19.2518 0 43 0C66.7482 0 86 19.2518 86 43Z" fill="white"/>
<g clip-path="url(#clip0_1202_10768)">
<path d="M60.9156 27.0812C56.5281 22.1312 50.1437 19 43 19C29.7438 19 19 29.7438 19 43H25C25 33.0531 33.0531 25 43 25C48.4844 25 53.35 27.4844 56.6406 31.3563L50.9969 37H67V20.9969L60.9156 27.0812ZM43 61C37.5156 61 32.65 58.5156 29.3594 54.6438L35.0031 49H19V65.0031L25.0844 58.9187C29.4719 63.8687 35.8656 67 43 67C56.2562 67 67 56.2562 67 43H61C61 52.9469 52.9469 61 43 61Z" fill="#0045A5"/>
<g clip-path="url(#clip1_1202_10768)">
<path d="M46.251 35.068C46.3489 35.1247 46.4246 35.2129 46.4659 35.3183C46.5071 35.4236 46.5114 35.5399 46.478 35.648L44.677 41.5H48C48.0977 41.4999 48.1932 41.5285 48.2748 41.5821C48.3564 41.6357 48.4205 41.7121 48.4593 41.8017C48.498 41.8914 48.5096 41.9904 48.4927 42.0866C48.4757 42.1828 48.431 42.2719 48.364 42.343L40.364 50.843C40.2866 50.9253 40.1836 50.9789 40.0718 50.9952C39.96 51.0115 39.8459 50.9894 39.7483 50.9326C39.6506 50.8757 39.5751 50.7875 39.534 50.6822C39.4929 50.577 39.4887 50.4609 39.522 50.353L41.323 44.5H38C37.9024 44.5 37.8068 44.4714 37.7252 44.4178C37.6436 44.3642 37.5795 44.2878 37.5408 44.1982C37.5021 44.1085 37.4905 44.0095 37.5074 43.9133C37.5243 43.8171 37.569 43.728 37.636 43.657L45.636 35.157C45.7133 35.0748 45.8162 35.0211 45.9278 35.0048C46.0395 34.9884 46.1534 35.0104 46.251 35.067V35.068Z" fill="#0045A5"/>
</g>
</g>
<defs>
<clipPath id="clip0_1202_10768">
<rect width="48" height="48" fill="white" transform="translate(19 19)"/>
</clipPath>
<clipPath id="clip1_1202_10768">
<rect width="16" height="16" fill="white" transform="translate(35 35)"/>
</clipPath>
</defs>
</svg>
