<svg width="86" height="86" viewBox="0 0 86 86" fill="none" xmlns="http://www.w3.org/2000/svg">
<path d="M86 43C86 66.7482 66.7482 86 43 86C19.2518 86 0 66.7482 0 43C0 19.2518 19.2518 0 43 0C66.7482 0 86 19.2518 86 43Z" fill="white"/>
<path d="M43 21L25 29V41C25 52.1 32.68 62.48 43 65C53.32 62.48 61 52.1 61 41V29L43 21ZM43 33C45.8 33 48.6 35.2 48.6 38V41C49.8 41 51 42.2 51 43.6V50.6C51 51.8 49.8 53 48.4 53H37.4C36.2 53 35 51.8 35 50.4V43.4C35 42.2 36.2 41 37.4 41V38C37.4 35.2 40.2 33 43 33ZM43 35.4C41.4 35.4 40 36.4 40 38V41H46V38C46 36.4 44.6 35.4 43 35.4Z" fill="#0045A5"/>
</svg>
