<svg width="86" height="86" viewBox="0 0 86 86" fill="none" xmlns="http://www.w3.org/2000/svg">
<path d="M86 43C86 66.7482 66.7482 86 43 86C19.2518 86 0 66.7482 0 43C0 19.2518 19.2518 0 43 0C66.7482 0 86 19.2518 86 43Z" fill="#0045A5"/>
<g clip-path="url(#clip0_1530_926)">
<path d="M60.9156 27.0812C56.5281 22.1312 50.1437 19 43 19C29.7438 19 19 29.7438 19 43H25C25 33.0531 33.0531 25 43 25C48.4844 25 53.35 27.4844 56.6406 31.3563L50.9969 37H67V20.9969L60.9156 27.0812ZM43 61C37.5156 61 32.65 58.5156 29.3594 54.6438L35.0031 49H19V65.0031L25.0844 58.9187C29.4719 63.8687 35.8656 67 43 67C56.2562 67 67 56.2562 67 43H61C61 52.9469 52.9469 61 43 61Z" fill="white"/>
<g clip-path="url(#clip1_1530_926)">
<path d="M46.2512 35.068C46.3491 35.1247 46.4248 35.2129 46.466 35.3183C46.5073 35.4236 46.5116 35.5399 46.4782 35.648L44.6772 41.5H48.0002C48.0979 41.4999 48.1934 41.5285 48.275 41.5821C48.3566 41.6357 48.4207 41.7121 48.4594 41.8017C48.4981 41.8914 48.5098 41.9904 48.4928 42.0866C48.4759 42.1828 48.4312 42.2719 48.3642 42.343L40.3642 50.843C40.2868 50.9253 40.1838 50.9789 40.072 50.9952C39.9602 51.0115 39.8461 50.9894 39.7485 50.9326C39.6508 50.8757 39.5753 50.7875 39.5342 50.6822C39.4931 50.577 39.4889 50.4609 39.5222 50.353L41.3232 44.5H38.0002C37.9025 44.5 37.807 44.4714 37.7254 44.4178C37.6438 44.3642 37.5797 44.2878 37.541 44.1982C37.5023 44.1085 37.4906 44.0095 37.5076 43.9133C37.5245 43.8171 37.5692 43.728 37.6362 43.657L45.6362 35.157C45.7135 35.0748 45.8164 35.0211 45.928 35.0048C46.0397 34.9884 46.1536 35.0104 46.2512 35.067V35.068Z" fill="white"/>
</g>
</g>
<defs>
<clipPath id="clip0_1530_926">
<rect width="48" height="48" fill="white" transform="translate(19 19)"/>
</clipPath>
<clipPath id="clip1_1530_926">
<rect width="16" height="16" fill="white" transform="translate(35 35)"/>
</clipPath>
</defs>
</svg>
