<svg width="86" height="86" viewBox="0 0 86 86" fill="none" xmlns="http://www.w3.org/2000/svg">
<path d="M86 43C86 66.7482 66.7482 86 43 86C19.2518 86 0 66.7482 0 43C0 19.2518 19.2518 0 43 0C66.7482 0 86 19.2518 86 43Z" fill="white"/>
<g clip-path="url(#clip0_1202_10723)">
<path d="M26.3846 19V54.0769C26.3846 55.1015 25.5631 55.9231 24.5385 55.9231C23.5138 55.9231 22.6923 55.1015 22.6923 54.0769V31.9231H24.5385V28.2308H19V54.0769C19 57.1138 21.5015 59.6154 24.5385 59.6154H43C42.6308 58.5077 42.4222 57.2154 42.4222 55.9231H29.7335C29.944 55.3397 30.0788 54.7286 30.0788 54.0769V22.6923H59.6172V43C60.9095 43.3692 62.2018 43.9231 63.3095 44.8462V19H26.3846ZM33.7692 26.3846V33.7692H55.9231V26.3846H33.7692ZM33.7692 37.4615V41.1538H43V37.4615H33.7692ZM46.6923 37.4615V41.1538H55.9231V37.4615H46.6923ZM33.7692 43V46.6923H43V43H33.7692ZM55.9231 44.8462C49.7865 44.8462 44.8462 49.7865 44.8462 55.9231C44.8462 62.0597 49.7865 67 55.9231 67V63.3077C51.7212 63.3077 48.5385 60.1249 48.5385 55.9231C48.5385 51.7212 51.7212 48.5385 55.9231 48.5385C60.1249 48.5385 63.3077 51.7212 63.3077 55.9231C63.3077 57.5255 62.8517 59.0062 62.0375 60.1932L59.6154 57.7692L58.6923 66.0769L67 65.1538L64.6923 62.8462C66.2265 60.9188 67 58.4652 67 55.9231C67 49.7865 62.0597 44.8462 55.9231 44.8462ZM33.7692 48.5385V52.2308H43V48.5385H33.7692Z" fill="#0045A5"/>
</g>
<defs>
<clipPath id="clip0_1202_10723">
<rect width="48" height="48" fill="white" transform="translate(19 19)"/>
</clipPath>
</defs>
</svg>
