<svg width="32" height="33" viewBox="0 0 32 33" fill="none" xmlns="http://www.w3.org/2000/svg">
<path d="M3 4.21831V28.7808C3.00016 28.8341 3.01606 28.8862 3.04569 28.9305C3.07532 28.9747 3.11737 29.0093 3.16656 29.0298C3.21575 29.0503 3.2699 29.0558 3.32222 29.0456C3.37453 29.0355 3.42268 29.0101 3.46062 28.9727L16.25 16.5002L3.46062 4.02644C3.42268 3.98902 3.37453 3.96364 3.32222 3.95349C3.2699 3.94333 3.21575 3.94884 3.16656 3.96933C3.11737 3.98982 3.07532 4.02438 3.04569 4.06867C3.01606 4.11297 3.00016 4.16502 3 4.21831ZM21.6125 11.3752L5.57625 2.54019L5.56625 2.53456C5.29 2.38456 5.0275 2.75831 5.25375 2.97581L17.8244 14.9958L21.6125 11.3752ZM5.255 30.0246C5.0275 30.2421 5.29 30.6158 5.5675 30.4658L5.5775 30.4602L21.6125 21.6252L17.8244 18.0033L5.255 30.0246ZM28.0862 14.9377L23.6081 12.4714L19.3975 16.5002L23.6081 20.5271L28.0862 18.0627C29.3044 17.3896 29.3044 15.6108 28.0862 14.9377Z" fill="#0045A5"/>
</svg>
