<svg width="108" height="32" viewBox="0 0 108 32" fill="none" xmlns="http://www.w3.org/2000/svg">
<path d="M22.4914 25.2626C22.8421 25.0237 23.0836 24.6552 23.1626 24.2383C23.2417 23.8214 23.1519 23.3901 22.913 23.0394C22.6741 22.6886 22.3057 22.4472 21.8887 22.3681C21.4718 22.2891 21.0405 22.3789 20.6898 22.6178C19.2126 23.622 17.4419 24.1029 15.6597 23.984C13.8775 23.8651 12.1864 23.1532 10.8557 21.9617C9.52498 20.7702 8.63131 19.1677 8.31702 17.4094C8.00273 15.6511 8.28591 13.8382 9.12144 12.2595C9.95697 10.6808 11.2968 9.42716 12.9275 8.69824C14.5581 7.96932 16.3858 7.80707 18.1194 8.23735C19.8529 8.66763 21.3926 9.66568 22.4932 11.0725C23.5938 12.4793 24.1918 14.214 24.1922 16.0002C24.1922 16.4245 24.3608 16.8315 24.6608 17.1315C24.9609 17.4316 25.3679 17.6002 25.7922 17.6002C26.2165 17.6002 26.6235 17.4316 26.9236 17.1315C27.2236 16.8315 27.3922 16.4245 27.3922 16.0002C27.3918 13.4994 26.5545 11.0707 25.0136 9.10099C23.4728 7.1313 21.317 5.73397 18.8899 5.13163C16.4627 4.52929 13.9038 4.75659 11.6208 5.77732C9.33779 6.79804 7.46209 8.55347 6.29253 10.7639C5.12297 12.9743 4.72684 15.5126 5.16725 17.9743C5.60767 20.436 6.85928 22.6795 8.72269 24.3473C10.5861 26.0152 12.9541 27.0114 15.4494 27.1772C17.9446 27.3431 20.4236 26.6691 22.4914 25.2626Z" fill="white"/>
<path d="M21.8548 11.9905C21.6777 11.8772 21.4801 11.7999 21.2732 11.763C21.0664 11.7262 20.8542 11.7304 20.649 11.7755C20.4437 11.8206 20.2494 11.9056 20.077 12.0259C19.9046 12.1461 19.7576 12.299 19.6444 12.4761C19.5311 12.6531 19.4538 12.8507 19.4169 13.0576C19.38 13.2645 19.3843 13.4766 19.4294 13.6818C19.4745 13.8871 19.5595 14.0815 19.6797 14.2538C19.7999 14.4262 19.9529 14.5732 20.13 14.6865L25.7012 18.2497C26.0586 18.4709 26.4887 18.5425 26.8985 18.4492C27.3083 18.3558 27.6649 18.105 27.8913 17.7508C28.1177 17.3967 28.1956 16.9677 28.1082 16.5565C28.0208 16.1454 27.7752 15.7852 27.4244 15.5537L21.8548 11.9905Z" fill="white"/>
<path d="M30.4374 12.144C30.6007 11.7582 30.6062 11.3237 30.4526 10.9339C30.2991 10.544 29.9987 10.23 29.6161 10.0592C29.2335 9.88848 28.7992 9.8746 28.4064 10.0206C28.0137 10.1666 27.6939 10.4608 27.5158 10.84L25.103 16.248C25.0126 16.4406 24.9614 16.6492 24.9526 16.8617C24.9437 17.0743 24.9773 17.2865 25.0514 17.4858C25.1256 17.6852 25.2387 17.8678 25.3842 18.023C25.5298 18.1781 25.7048 18.3027 25.8991 18.3894C26.0933 18.4761 26.3029 18.5232 26.5156 18.5279C26.7282 18.5327 26.9397 18.4949 27.1376 18.417C27.3355 18.339 27.5159 18.2223 27.6682 18.0738C27.8205 17.9253 27.9417 17.7479 28.0246 17.552L30.4374 12.144Z" fill="white"/>
<g clip-path="url(#clip0_1801_1978)">
<path d="M17.6089 11.7742C17.6676 11.8083 17.713 11.8612 17.7378 11.9244C17.7625 11.9876 17.7651 12.0574 17.7451 12.1222L16.6645 15.6334H18.6583C18.7169 15.6334 18.7742 15.6505 18.8232 15.6827C18.8721 15.7149 18.9106 15.7607 18.9338 15.8145C18.957 15.8683 18.964 15.9277 18.9539 15.9854C18.9437 16.0431 18.9169 16.0966 18.8767 16.1392L14.0767 21.2392C14.0302 21.2886 13.9684 21.3208 13.9013 21.3306C13.8342 21.3403 13.7658 21.3271 13.7072 21.293C13.6486 21.2589 13.6033 21.2059 13.5787 21.1428C13.554 21.0796 13.5515 21.01 13.5715 20.9452L14.6521 17.4334H12.6583C12.5997 17.4334 12.5424 17.4163 12.4934 17.3841C12.4444 17.3519 12.406 17.3061 12.3827 17.2523C12.3595 17.1986 12.3525 17.1391 12.3627 17.0814C12.3728 17.0237 12.3997 16.9703 12.4399 16.9276L17.2399 11.8276C17.2863 11.7783 17.348 11.7461 17.415 11.7363C17.482 11.7265 17.5503 11.7397 17.6089 11.7736V11.7742Z" fill="white"/>
</g>
<path d="M45.7537 11.4625C46.6645 11.4625 47.4151 11.5723 48.0055 11.792C48.6006 12.0117 49.0422 12.3435 49.3306 12.7875C49.6189 13.2315 49.7631 13.7922 49.7631 14.4696C49.7631 14.9273 49.6762 15.3278 49.5022 15.671C49.3283 16.0143 49.0995 16.305 48.8157 16.543C48.5319 16.781 48.2252 16.9755 47.8957 17.1265L50.8479 21.4999H48.4861L46.0901 17.6483H44.9572V21.4999H42.8289V11.4625H45.7537ZM45.6026 13.2063H44.9572V15.9182H45.6438C46.3487 15.9182 46.8521 15.8015 47.1542 15.5681C47.4609 15.33 47.6142 14.9822 47.6142 14.5245C47.6142 14.0485 47.4494 13.7098 47.1199 13.5084C46.7949 13.307 46.2892 13.2063 45.6026 13.2063ZM55.1114 13.68C55.8208 13.68 56.4318 13.8173 56.9445 14.092C57.4571 14.362 57.853 14.7556 58.1322 15.2728C58.4114 15.79 58.551 16.4217 58.551 17.1677V18.1838H53.601C53.6238 18.7743 53.8001 19.2388 54.1296 19.5775C54.4637 19.9117 54.926 20.0787 55.5164 20.0787C56.0062 20.0787 56.4547 20.0284 56.8621 19.9277C57.2694 19.827 57.6882 19.6759 58.1185 19.4745V21.0948C57.7386 21.2825 57.3404 21.4198 56.9239 21.5067C56.5119 21.5937 56.0108 21.6372 55.4203 21.6372C54.6514 21.6372 53.9694 21.4953 53.3744 21.2115C52.784 20.9277 52.3194 20.4952 51.9807 19.9139C51.6466 19.3327 51.4795 18.6003 51.4795 17.717C51.4795 16.8199 51.6305 16.0738 51.9326 15.4788C52.2393 14.8792 52.665 14.4307 53.2096 14.1332C53.7543 13.8311 54.3882 13.68 55.1114 13.68ZM55.1251 15.1699C54.7178 15.1699 54.3791 15.3003 54.109 15.5612C53.8435 15.8221 53.6902 16.2317 53.649 16.7901H56.5875C56.5829 16.4789 56.5257 16.202 56.4158 15.9594C56.3106 15.7168 56.1504 15.5246 55.9352 15.3827C55.7247 15.2408 55.4547 15.1699 55.1251 15.1699ZM63.3706 21.6372C62.6108 21.6372 61.9632 21.4999 61.4277 21.2253C60.8922 20.9461 60.4848 20.5158 60.2056 19.9345C59.9264 19.3533 59.7868 18.6095 59.7868 17.7032C59.7868 16.7649 59.9447 16.0006 60.2605 15.4101C60.5809 14.8151 61.0226 14.378 61.5856 14.0988C62.1531 13.8196 62.8099 13.68 63.556 13.68C64.0869 13.68 64.5446 13.7327 64.9291 13.8379C65.3181 13.9386 65.6568 14.0599 65.9452 14.2018L65.3273 15.8221C64.9977 15.6893 64.6911 15.5818 64.4073 15.4994C64.1235 15.4124 63.8398 15.369 63.556 15.369C63.1898 15.369 62.8855 15.4559 62.6429 15.6298C62.4003 15.7992 62.2195 16.0555 62.1005 16.3988C61.9815 16.7421 61.922 17.1723 61.922 17.6895C61.922 18.1976 61.9861 18.6186 62.1142 18.9528C62.2424 19.2869 62.4278 19.5363 62.6703 19.7011C62.9129 19.8613 63.2081 19.9414 63.556 19.9414C63.9908 19.9414 64.3776 19.8842 64.7163 19.7698C65.055 19.6508 65.3845 19.486 65.7049 19.2754V21.0673C65.3845 21.2687 65.0481 21.4129 64.6957 21.4999C64.3478 21.5914 63.9061 21.6372 63.3706 21.6372ZM69.5839 10.8171V12.9935C69.5839 13.3734 69.5702 13.735 69.5427 14.0782C69.5198 14.4215 69.5015 14.6641 69.4878 14.806H69.5977C69.7624 14.5405 69.957 14.3254 70.1812 14.1606C70.4101 13.9958 70.6618 13.8746 70.9364 13.7967C71.2111 13.7189 71.5063 13.68 71.8221 13.68C72.3759 13.68 72.8588 13.7784 73.2707 13.9753C73.6827 14.1675 74.003 14.4719 74.2319 14.8884C74.4607 15.3003 74.5752 15.8358 74.5752 16.4949V21.4999H72.4812V17.0167C72.4812 16.4674 72.3805 16.0532 72.1791 15.774C71.9777 15.4948 71.6665 15.3552 71.2454 15.3552C70.8243 15.3552 70.4925 15.4536 70.2499 15.6504C70.0073 15.8427 69.8357 16.1287 69.735 16.5086C69.6343 16.8839 69.5839 17.3439 69.5839 17.8886V21.4999H67.4899V10.8171H69.5839ZM79.8754 13.6663C80.9052 13.6663 81.6947 13.8906 82.244 14.3391C82.7932 14.7877 83.0678 15.4696 83.0678 16.3851V21.4999H81.6055L81.2004 20.4563H81.1455C80.9258 20.7309 80.7015 20.9552 80.4727 21.1291C80.2438 21.3031 79.9806 21.4312 79.6831 21.5136C79.3856 21.596 79.024 21.6372 78.5984 21.6372C78.1452 21.6372 77.7379 21.5502 77.3763 21.3763C77.0193 21.2024 76.7378 20.9369 76.5318 20.5799C76.3259 20.2183 76.2229 19.7606 76.2229 19.2068C76.2229 18.3921 76.509 17.7925 77.0811 17.408C77.6532 17.019 78.5114 16.8039 79.6557 16.7627L80.9876 16.7215V16.3851C80.9876 15.9823 80.8823 15.6871 80.6718 15.4994C80.4612 15.3117 80.1683 15.2179 79.793 15.2179C79.4222 15.2179 79.0584 15.2705 78.7014 15.3758C78.3443 15.4811 77.9873 15.6138 77.6303 15.774L76.9369 14.3597C77.3443 14.1446 77.7997 13.9753 78.3032 13.8517C78.8112 13.7281 79.3353 13.6663 79.8754 13.6663ZM80.9876 17.9435L80.1774 17.971C79.5 17.9893 79.0286 18.1106 78.7631 18.3349C78.5023 18.5591 78.3718 18.8544 78.3718 19.2205C78.3718 19.5409 78.4656 19.7698 78.6533 19.9071C78.841 20.0398 79.0858 20.1062 79.3879 20.1062C79.8365 20.1062 80.2141 19.9734 80.5207 19.708C80.832 19.4425 80.9876 19.0649 80.9876 18.5752V17.9435ZM89.5146 13.68C89.6198 13.68 89.7411 13.6869 89.8784 13.7006C90.0203 13.7098 90.1348 13.7235 90.2217 13.7418L90.0638 15.7054C89.9952 15.6825 89.8968 15.6665 89.7686 15.6573C89.645 15.6436 89.5375 15.6367 89.4459 15.6367C89.1759 15.6367 88.9127 15.671 88.6564 15.7397C88.4046 15.8083 88.1781 15.9205 87.9767 16.0761C87.7753 16.2271 87.6151 16.4285 87.4961 16.6803C87.3817 16.9274 87.3245 17.2318 87.3245 17.5934V21.4999H85.2305V13.8242H86.8164L87.1254 15.1149H87.2284C87.3794 14.854 87.5671 14.616 87.7913 14.4009C88.0202 14.1812 88.2788 14.0073 88.5671 13.8791C88.8601 13.7464 89.1759 13.68 89.5146 13.68ZM93.8605 24.8777C92.7894 24.8777 91.9701 24.6901 91.4026 24.3147C90.8396 23.944 90.5581 23.4222 90.5581 22.7494C90.5581 22.2871 90.7023 21.9004 90.9907 21.5891C91.279 21.2779 91.7024 21.0559 92.2608 20.9232C92.0457 20.8316 91.858 20.6829 91.6978 20.4769C91.5376 20.2664 91.4575 20.0444 91.4575 19.811C91.4575 19.518 91.5422 19.2754 91.7115 19.0832C91.8809 18.8864 92.1258 18.6942 92.4462 18.5065C92.0434 18.3326 91.723 18.0534 91.485 17.6689C91.2516 17.2844 91.1348 16.8313 91.1348 16.3095C91.1348 15.7511 91.2561 15.2774 91.4987 14.8884C91.7459 14.4947 92.1029 14.1949 92.5697 13.989C93.0412 13.783 93.6133 13.68 94.2861 13.68C94.428 13.68 94.5928 13.6892 94.7804 13.7075C94.9681 13.7258 95.1397 13.7464 95.2954 13.7693C95.4556 13.7922 95.5631 13.8105 95.618 13.8242H98.2956V14.8884L97.0941 15.1973C97.204 15.3667 97.2864 15.5475 97.3413 15.7397C97.3962 15.9319 97.4237 16.1356 97.4237 16.3507C97.4237 17.1746 97.1353 17.8177 96.5586 18.2799C95.9865 18.7376 95.1901 18.9665 94.1694 18.9665C93.9268 18.9528 93.698 18.9345 93.4829 18.9116C93.3776 18.994 93.2975 19.0809 93.2426 19.1725C93.1876 19.264 93.1602 19.3601 93.1602 19.4608C93.1602 19.5615 93.2014 19.6462 93.2838 19.7148C93.3707 19.7789 93.4989 19.8293 93.6682 19.8659C93.8422 19.8979 94.0573 19.9139 94.3136 19.9139H95.618C96.4602 19.9139 97.101 20.0947 97.5404 20.4563C97.9844 20.8179 98.2063 21.3488 98.2063 22.0491C98.2063 22.9462 97.831 23.6419 97.0804 24.1362C96.3343 24.6306 95.261 24.8777 93.8605 24.8777ZM93.9497 23.5115C94.4486 23.5115 94.8766 23.4634 95.2336 23.3673C95.5952 23.2758 95.8721 23.143 96.0643 22.9691C96.2565 22.7998 96.3527 22.5961 96.3527 22.3581C96.3527 22.1658 96.2954 22.0125 96.181 21.8981C96.0712 21.7882 95.9018 21.7104 95.673 21.6647C95.4487 21.6189 95.1603 21.596 94.8079 21.596H93.7232C93.4668 21.596 93.2357 21.6372 93.0297 21.7196C92.8283 21.802 92.6681 21.9164 92.5491 22.0629C92.4301 22.2139 92.3706 22.3878 92.3706 22.5846C92.3706 22.873 92.508 23.0995 92.7826 23.2643C93.0618 23.4291 93.4508 23.5115 93.9497 23.5115ZM94.2861 17.6895C94.6797 17.6895 94.9681 17.5682 95.1512 17.3256C95.3343 17.083 95.4258 16.7535 95.4258 16.337C95.4258 15.8747 95.3297 15.5292 95.1375 15.3003C94.9498 15.0669 94.666 14.9502 94.2861 14.9502C93.9017 14.9502 93.6133 15.0669 93.4211 15.3003C93.2288 15.5292 93.1327 15.8747 93.1327 16.337C93.1327 16.7535 93.2265 17.083 93.4142 17.3256C93.6064 17.5682 93.8971 17.6895 94.2861 17.6895ZM102.731 13.68C103.44 13.68 104.051 13.8173 104.564 14.092C105.076 14.362 105.472 14.7556 105.752 15.2728C106.031 15.79 106.17 16.4217 106.17 17.1677V18.1838H101.22C101.243 18.7743 101.419 19.2388 101.749 19.5775C102.083 19.9117 102.545 20.0787 103.136 20.0787C103.626 20.0787 104.074 20.0284 104.481 19.9277C104.889 19.827 105.308 19.6759 105.738 19.4745V21.0948C105.358 21.2825 104.96 21.4198 104.543 21.5067C104.131 21.5937 103.63 21.6372 103.04 21.6372C102.271 21.6372 101.589 21.4953 100.994 21.2115C100.403 20.9277 99.9387 20.4952 99.6 19.9139C99.2659 19.3327 99.0989 18.6003 99.0989 17.717C99.0989 16.8199 99.2499 16.0738 99.552 15.4788C99.8587 14.8792 100.284 14.4307 100.829 14.1332C101.374 13.8311 102.008 13.68 102.731 13.68ZM102.744 15.1699C102.337 15.1699 101.998 15.3003 101.728 15.5612C101.463 15.8221 101.31 16.2317 101.268 16.7901H104.207C104.202 16.4789 104.145 16.202 104.035 15.9594C103.93 15.7168 103.77 15.5246 103.555 15.3827C103.344 15.2408 103.074 15.1699 102.744 15.1699Z" fill="white"/>
<defs>
<clipPath id="clip0_1801_1978">
<rect width="9.6" height="9.6" fill="white" transform="translate(10.8586 11.7333)"/>
</clipPath>
</defs>
</svg>
