<svg width="54" height="54" viewBox="0 0 54 54" fill="none" xmlns="http://www.w3.org/2000/svg">
<circle cx="27" cy="27" r="26.3049" fill="white" stroke="#999999" stroke-width="1.39028"/>
<path d="M21.0643 40.4568C20.7168 40.1093 20.543 39.6977 20.543 39.2223C20.543 38.7468 20.7168 38.3357 21.0643 37.9891L31.2481 27.8053L21.0296 17.5868C20.7052 17.2624 20.543 16.8569 20.543 16.3703C20.543 15.8837 20.7168 15.4666 21.0643 15.119C21.4119 14.7714 21.8234 14.5977 22.2989 14.5977C22.7744 14.5977 23.1854 14.7714 23.5321 15.119L35.2104 26.8321C35.3494 26.9711 35.4481 27.1217 35.5065 27.2839C35.5649 27.4461 35.5937 27.6199 35.5927 27.8053C35.5927 27.9907 35.5635 28.1644 35.5051 28.3266C35.4467 28.4888 35.3485 28.6395 35.2104 28.7785L23.4973 40.4916C23.1729 40.816 22.773 40.9782 22.2975 40.9782C21.822 40.9782 21.411 40.8044 21.0643 40.4568Z" fill="#999999"/>
</svg>
