<svg width="105" height="32" viewBox="0 0 105 32" fill="none" xmlns="http://www.w3.org/2000/svg">
<path d="M27.6205 25.9046V27.4284H0.191895V25.9046L3.23951 22.857V13.7142C3.23951 8.99035 6.33285 4.83035 10.8586 3.4894V3.0475C10.8586 2.23922 11.1796 1.46404 11.7512 0.892505C12.3227 0.320965 13.0979 -0.00012207 13.9062 -0.00012207C14.7145 -0.00012207 15.4896 0.320965 16.0612 0.892505C16.6327 1.46404 16.9538 2.23922 16.9538 3.0475V3.4894C21.4795 4.83035 24.5728 8.99035 24.5728 13.7142V22.857L27.6205 25.9046ZM16.9538 28.9523C16.9538 29.7605 16.6327 30.5357 16.0612 31.1073C15.4896 31.6788 14.7145 31.9999 13.9062 31.9999C13.0979 31.9999 12.3227 31.6788 11.7512 31.1073C11.1796 30.5357 10.8586 29.7605 10.8586 28.9523" fill="white"/>
<path d="M44.1824 18.7125C44.1824 19.3075 44.0382 19.8247 43.7498 20.2641C43.4615 20.7035 43.0404 21.0422 42.4866 21.2802C41.9373 21.5182 41.2691 21.6372 40.4818 21.6372C40.134 21.6372 39.793 21.6143 39.4589 21.5685C39.1293 21.5228 38.8112 21.4564 38.5046 21.3694C38.2025 21.2779 37.9141 21.1658 37.6395 21.033V19.0557C38.1155 19.2663 38.6098 19.4562 39.1225 19.6256C39.6351 19.7949 40.1431 19.8796 40.6466 19.8796C40.9945 19.8796 41.2737 19.8338 41.4842 19.7423C41.6993 19.6508 41.8549 19.5249 41.9511 19.3647C42.0472 19.2045 42.0952 19.0214 42.0952 18.8155C42.0952 18.5637 42.0106 18.3486 41.8412 18.1701C41.6719 17.9916 41.4384 17.8245 41.1409 17.6689C40.848 17.5133 40.5162 17.3462 40.1454 17.1677C39.912 17.0579 39.658 16.9251 39.3833 16.7695C39.1087 16.6093 38.8478 16.4148 38.6007 16.186C38.3535 15.9571 38.1498 15.6802 37.9896 15.3552C37.834 15.0257 37.7562 14.6321 37.7562 14.1744C37.7562 13.5748 37.8935 13.0621 38.1681 12.6365C38.4428 12.2108 38.8341 11.8858 39.3422 11.6616C39.8548 11.4327 40.4589 11.3183 41.1547 11.3183C41.6764 11.3183 42.173 11.3801 42.6445 11.5037C43.1205 11.6227 43.6171 11.7966 44.1343 12.0254L43.4477 13.68C42.9855 13.4924 42.5712 13.3482 42.2051 13.2475C41.8389 13.1422 41.4659 13.0896 41.086 13.0896C40.8205 13.0896 40.594 13.1331 40.4063 13.22C40.2187 13.3024 40.0768 13.4214 39.9806 13.577C39.8845 13.7281 39.8365 13.9043 39.8365 14.1057C39.8365 14.3437 39.9051 14.5451 40.0424 14.7099C40.1843 14.8701 40.3949 15.0257 40.6741 15.1767C40.9578 15.3278 41.3103 15.504 41.7314 15.7054C42.244 15.9479 42.6811 16.202 43.0427 16.4674C43.4088 16.7283 43.6903 17.0373 43.8871 17.3943C44.084 17.7467 44.1824 18.1861 44.1824 18.7125ZM52.881 13.8242V21.4999H51.2745L50.993 20.5181H50.8831C50.7183 20.779 50.5124 20.9918 50.2652 21.1566C50.0181 21.3214 49.7457 21.4427 49.4482 21.5205C49.1507 21.5983 48.8418 21.6372 48.5214 21.6372C47.9721 21.6372 47.4938 21.5411 47.0865 21.3488C46.6791 21.152 46.361 20.8477 46.1322 20.4357C45.9079 20.0238 45.7958 19.4883 45.7958 18.8292V13.8242H47.8897V18.3074C47.8897 18.8566 47.9882 19.2709 48.185 19.5501C48.3818 19.8293 48.6953 19.9689 49.1255 19.9689C49.5512 19.9689 49.8853 19.8727 50.1279 19.6805C50.3705 19.4837 50.5398 19.1976 50.636 18.8223C50.7367 18.4424 50.787 17.9801 50.787 17.4355V13.8242H52.881ZM57.172 10.8171V13.3024C57.172 13.5908 57.1628 13.8768 57.1445 14.1606C57.1308 14.4444 57.1124 14.6641 57.0896 14.8197H57.172C57.3733 14.5039 57.648 14.2361 57.9958 14.0164C58.3437 13.7922 58.7945 13.68 59.3483 13.68C60.2088 13.68 60.9068 14.0164 61.4423 14.6893C61.9778 15.3621 62.2456 16.3484 62.2456 17.6483C62.2456 18.5225 62.122 19.2571 61.8748 19.8521C61.6277 20.4426 61.2821 20.8888 60.8381 21.1909C60.3942 21.4884 59.8793 21.6372 59.2934 21.6372C58.7304 21.6372 58.2865 21.5365 57.9615 21.3351C57.6365 21.1337 57.3733 20.9072 57.172 20.6554H57.0278L56.6776 21.4999H55.078V10.8171H57.172ZM58.6755 15.3552C58.3093 15.3552 58.0187 15.4307 57.8036 15.5818C57.5885 15.7328 57.4306 15.9594 57.3299 16.2615C57.2337 16.5636 57.1811 16.9457 57.172 17.408V17.6346C57.172 18.3806 57.2818 18.9528 57.5015 19.351C57.7212 19.7446 58.1217 19.9414 58.703 19.9414C59.1332 19.9414 59.4742 19.7423 59.7259 19.3441C59.9822 18.9459 60.1104 18.3715 60.1104 17.6209C60.1104 16.8702 59.9822 16.305 59.7259 15.9251C59.4696 15.5452 59.1195 15.3552 58.6755 15.3552ZM69.3308 19.2205C69.3308 19.7423 69.2072 20.184 68.9601 20.5456C68.7175 20.9026 68.3536 21.1749 67.8685 21.3626C67.3833 21.5456 66.7791 21.6372 66.056 21.6372C65.5204 21.6372 65.0605 21.6029 64.676 21.5342C64.2961 21.4656 63.9116 21.3511 63.5226 21.1909V19.4608C63.9391 19.6485 64.3853 19.8041 64.8614 19.9277C65.3419 20.0467 65.763 20.1062 66.1246 20.1062C66.532 20.1062 66.8226 20.0467 66.9965 19.9277C67.175 19.8041 67.2643 19.6439 67.2643 19.4471C67.2643 19.3189 67.2277 19.2045 67.1544 19.1038C67.0858 18.9985 66.9347 18.8818 66.7013 18.7537C66.4679 18.6209 66.1017 18.4493 65.6028 18.2387C65.1222 18.0374 64.7263 17.8337 64.4151 17.6277C64.1084 17.4217 63.8796 17.1792 63.7285 16.9C63.5821 16.6162 63.5088 16.2569 63.5088 15.8221C63.5088 15.1126 63.7835 14.5794 64.3327 14.2224C64.8865 13.8608 65.6257 13.68 66.5503 13.68C67.0263 13.68 67.4794 13.7281 67.9097 13.8242C68.3445 13.9203 68.7907 14.0737 69.2484 14.2842L68.6168 15.7946C68.2369 15.6298 67.8776 15.4948 67.5389 15.3896C67.2048 15.2843 66.8638 15.2316 66.5159 15.2316C66.2093 15.2316 65.9781 15.2728 65.8225 15.3552C65.6669 15.4376 65.5891 15.5635 65.5891 15.7328C65.5891 15.8564 65.628 15.9663 65.7058 16.0624C65.7882 16.1585 65.9438 16.2661 66.1727 16.3851C66.4061 16.4995 66.7471 16.6482 67.1956 16.8313C67.6305 17.0098 68.0081 17.1975 68.3284 17.3943C68.6488 17.5865 68.896 17.8268 69.0699 18.1152C69.2439 18.3989 69.3308 18.7674 69.3308 19.2205ZM74.0818 21.6372C73.322 21.6372 72.6743 21.4999 72.1388 21.2253C71.6033 20.9461 71.196 20.5158 70.9168 19.9345C70.6376 19.3533 70.498 18.6095 70.498 17.7032C70.498 16.7649 70.6559 16.0006 70.9717 15.4101C71.2921 14.8151 71.7338 14.378 72.2967 14.0988C72.8643 13.8196 73.5211 13.68 74.2671 13.68C74.7981 13.68 75.2558 13.7327 75.6402 13.8379C76.0293 13.9386 76.368 14.0599 76.6563 14.2018L76.0384 15.8221C75.7089 15.6893 75.4022 15.5818 75.1185 15.4994C74.8347 15.4124 74.5509 15.369 74.2671 15.369C73.901 15.369 73.5966 15.4559 73.354 15.6298C73.1114 15.7992 72.9306 16.0555 72.8116 16.3988C72.6926 16.7421 72.6331 17.1723 72.6331 17.6895C72.6331 18.1976 72.6972 18.6186 72.8254 18.9528C72.9535 19.2869 73.1389 19.5363 73.3815 19.7011C73.6241 19.8613 73.9193 19.9414 74.2671 19.9414C74.702 19.9414 75.0887 19.8842 75.4274 19.7698C75.7661 19.6508 76.0957 19.486 76.416 19.2754V21.0673C76.0957 21.2687 75.7592 21.4129 75.4068 21.4999C75.059 21.5914 74.6173 21.6372 74.0818 21.6372ZM82.4852 13.68C82.5905 13.68 82.7117 13.6869 82.8491 13.7006C82.9909 13.7098 83.1054 13.7235 83.1923 13.7418L83.0344 15.7054C82.9658 15.6825 82.8674 15.6665 82.7392 15.6573C82.6156 15.6436 82.5081 15.6367 82.4165 15.6367C82.1465 15.6367 81.8833 15.671 81.627 15.7397C81.3753 15.8083 81.1487 15.9205 80.9473 16.0761C80.7459 16.2271 80.5857 16.4285 80.4667 16.6803C80.3523 16.9274 80.2951 17.2318 80.2951 17.5934V21.4999H78.2011V13.8242H79.787L80.096 15.1149H80.199C80.35 14.854 80.5377 14.616 80.7619 14.4009C80.9908 14.1812 81.2494 14.0073 81.5377 13.8791C81.8307 13.7464 82.1465 13.68 82.4852 13.68ZM86.68 13.8242V21.4999H84.586V13.8242H86.68ZM85.6365 10.8171C85.9477 10.8171 86.2155 10.8903 86.4397 11.0368C86.664 11.1787 86.7761 11.4464 86.7761 11.8401C86.7761 12.2291 86.664 12.4992 86.4397 12.6502C86.2155 12.7967 85.9477 12.8699 85.6365 12.8699C85.3206 12.8699 85.0506 12.7967 84.8263 12.6502C84.6066 12.4992 84.4968 12.2291 84.4968 11.8401C84.4968 11.4464 84.6066 11.1787 84.8263 11.0368C85.0506 10.8903 85.3206 10.8171 85.6365 10.8171ZM90.9779 10.8171V13.3024C90.9779 13.5908 90.9687 13.8768 90.9504 14.1606C90.9367 14.4444 90.9184 14.6641 90.8955 14.8197H90.9779C91.1792 14.5039 91.4539 14.2361 91.8017 14.0164C92.1496 13.7922 92.6004 13.68 93.1542 13.68C94.0147 13.68 94.7127 14.0164 95.2482 14.6893C95.7837 15.3621 96.0515 16.3484 96.0515 17.6483C96.0515 18.5225 95.9279 19.2571 95.6807 19.8521C95.4336 20.4426 95.088 20.8888 94.644 21.1909C94.2001 21.4884 93.6852 21.6372 93.0993 21.6372C92.5363 21.6372 92.0924 21.5365 91.7674 21.3351C91.4424 21.1337 91.1792 20.9072 90.9779 20.6554H90.8337L90.4835 21.4999H88.8839V10.8171H90.9779ZM92.4814 15.3552C92.1152 15.3552 91.8246 15.4307 91.6095 15.5818C91.3944 15.7328 91.2365 15.9594 91.1358 16.2615C91.0396 16.5636 90.987 16.9457 90.9779 17.408V17.6346C90.9779 18.3806 91.0877 18.9528 91.3074 19.351C91.5271 19.7446 91.9276 19.9414 92.5089 19.9414C92.9391 19.9414 93.2801 19.7423 93.5318 19.3441C93.7881 18.9459 93.9163 18.3715 93.9163 17.6209C93.9163 16.8702 93.7881 16.305 93.5318 15.9251C93.2755 15.5452 92.9254 15.3552 92.4814 15.3552ZM100.947 13.68C101.656 13.68 102.267 13.8173 102.78 14.092C103.292 14.362 103.688 14.7556 103.967 15.2728C104.247 15.79 104.386 16.4217 104.386 17.1677V18.1838H99.4362C99.4591 18.7743 99.6353 19.2388 99.9648 19.5775C100.299 19.9117 100.761 20.0787 101.352 20.0787C101.841 20.0787 102.29 20.0284 102.697 19.9277C103.105 19.827 103.523 19.6759 103.954 19.4745V21.0948C103.574 21.2825 103.176 21.4198 102.759 21.5067C102.347 21.5937 101.846 21.6372 101.256 21.6372C100.487 21.6372 99.8046 21.4953 99.2096 21.2115C98.6192 20.9277 98.1546 20.4952 97.8159 19.9139C97.4818 19.3327 97.3147 18.6003 97.3147 17.717C97.3147 16.8199 97.4658 16.0738 97.7679 15.4788C98.0745 14.8792 98.5002 14.4307 99.0449 14.1332C99.5895 13.8311 100.223 13.68 100.947 13.68ZM100.96 15.1699C100.553 15.1699 100.214 15.3003 99.9442 15.5612C99.6788 15.8221 99.5254 16.2317 99.4842 16.7901H102.423C102.418 16.4789 102.361 16.202 102.251 15.9594C102.146 15.7168 101.986 15.5246 101.77 15.3827C101.56 15.2408 101.29 15.1699 100.96 15.1699Z" fill="white"/>
</svg>
