<svg width="34" height="35" viewBox="0 0 34 35" fill="none" xmlns="http://www.w3.org/2000/svg">
<circle cx="17" cy="17.4043" r="17" fill="#0045A5"/>
<g clip-path="url(#clip0_1181_7958)">
<path d="M29 10.0522C28.117 10.4442 27.168 10.7082 26.172 10.8272C27.189 10.2182 27.97 9.25316 28.337 8.10316C27.386 8.66716 26.332 9.07716 25.21 9.29816C24.313 8.34116 23.032 7.74316 21.616 7.74316C18.437 7.74316 16.101 10.7092 16.819 13.7882C12.728 13.5832 9.1 11.6232 6.671 8.64416C5.381 10.8572 6.002 13.7522 8.194 15.2182C7.388 15.1922 6.628 14.9712 5.965 14.6022C5.911 16.8832 7.546 19.0172 9.914 19.4922C9.221 19.6802 8.462 19.7242 7.69 19.5762C8.316 21.5322 10.134 22.9552 12.29 22.9952C10.22 24.6182 7.612 25.3432 5 25.0352C7.179 26.4322 9.768 27.2472 12.548 27.2472C21.69 27.2472 26.855 19.5262 26.543 12.6012C27.505 11.9062 28.34 11.0392 29 10.0522Z" fill="white"/>
</g>
<defs>
<clipPath id="clip0_1181_7958">
<rect width="24" height="24" fill="white" transform="translate(5 5.49512)"/>
</clipPath>
</defs>
</svg>
